<svg width="15" height="15" viewBox="0 0 15 15" fill="none" xmlns="http://www.w3.org/2000/svg">
<path d="M7.5 15C11.6421 15 15 11.6421 15 7.5C15 3.35786 11.6421 0 7.5 0C3.35786 0 0 3.35786 0 7.5C0 11.6421 3.35786 15 7.5 15Z" fill="#FCE5AC"/>
<path d="M7.2927 0.572391C7.29019 0.742391 6.8677 0.851141 6.3702 0.897391C5.8727 0.943641 5.4577 0.911141 5.41395 0.747391C5.3702 0.583641 5.7502 0.339891 6.2927 0.287391C6.8352 0.234891 7.29394 0.402391 7.2927 0.572391ZM14.4214 6.93364C14.4202 6.88364 14.4227 6.83364 14.4314 6.78239C14.5839 5.87864 14.6564 5.03239 13.6414 4.51489C13.5302 4.45739 13.4077 4.41114 13.3227 4.31864C13.1664 4.14989 13.1802 3.89239 13.1402 3.66614C13.0189 2.97364 12.2352 2.47739 11.5577 2.66489C11.3352 2.72614 11.1027 2.84864 10.8889 2.76489C10.7164 2.69739 10.6189 2.51864 10.5214 2.36114C10.2452 1.91364 9.82145 1.51614 9.3002 1.44364C8.77895 1.36989 8.18645 1.73114 8.15395 2.25614C8.1402 2.48489 8.17895 2.75489 8.35395 2.90364C9.08895 3.52989 9.54395 3.06864 9.8852 3.39239C10.2814 3.76864 9.45895 3.86989 9.5952 4.82614C9.66395 5.30364 10.1377 5.75114 10.6189 5.71114C10.8327 5.69239 11.1577 5.68114 11.2764 5.85989C11.3702 5.99989 11.3464 6.13364 11.3464 6.36364C11.3464 6.93114 11.4089 7.37739 11.9614 7.50614C12.0327 7.52239 12.1102 7.53114 12.1764 7.50239C12.3227 7.43864 12.3214 7.24239 12.3114 7.08239C12.2677 6.37989 11.7727 6.23739 11.6827 5.85114C11.5689 5.35864 12.2414 4.69239 12.7914 4.87864C13.2289 5.02739 12.8727 5.53489 13.1927 6.12114C13.4039 6.50989 13.8189 6.68864 13.9727 7.00614C14.1264 7.32364 13.9839 7.54364 14.0589 7.74489C14.1752 8.05989 14.3602 8.06489 14.4639 7.95364C14.5777 7.83239 14.5402 7.58364 14.5127 7.43864C14.4827 7.26989 14.4264 7.10489 14.4214 6.93364ZM2.5302 12.2549C2.54395 12.2349 2.65395 12.2061 2.78145 12.3261C2.90895 12.4449 3.2852 12.7999 3.4352 12.9361C3.5852 13.0724 3.43895 13.1874 3.31395 13.1649C2.71395 13.0599 2.38645 12.4636 2.5302 12.2549ZM4.7552 13.8024C4.76145 13.7786 4.85394 13.7136 5.01519 13.7786C5.17645 13.8436 5.6552 14.0424 5.84395 14.1161C6.0327 14.1899 5.93645 14.3486 5.8127 14.3736C5.2127 14.4886 4.6952 14.0486 4.7552 13.8024ZM5.53769 13.3549C5.61269 13.4136 5.68894 13.5061 5.65394 13.5936C5.62145 13.6736 5.51895 13.6949 5.4327 13.6974C5.1477 13.7061 4.8627 13.6336 4.61395 13.4974C4.43895 13.4011 3.9802 13.1049 4.0452 12.8561C4.1377 12.5036 5.34519 13.2061 5.53769 13.3549ZM11.7139 12.7499C11.6864 12.7336 11.6389 12.5974 11.7864 12.4286C11.9339 12.2599 12.3714 11.7624 12.5377 11.5636C12.7039 11.3649 12.8702 11.5411 12.8527 11.6999C12.7652 12.4636 12.0039 12.9161 11.7139 12.7499ZM13.1264 11.2736C13.1014 11.2686 13.0302 11.1761 13.1002 11.0086C13.1702 10.8411 13.3789 10.3474 13.4564 10.1536C13.5339 9.95864 13.7064 10.0511 13.7327 10.1786C13.8602 10.7861 13.3914 11.3274 13.1264 11.2736ZM10.3139 1.16489C10.3089 1.18989 10.2152 1.26364 10.0489 1.19864C9.8827 1.13364 9.3927 0.936141 9.19895 0.863641C9.00519 0.791141 9.10019 0.616141 9.22645 0.586141C9.83644 0.442391 10.3714 0.897391 10.3139 1.16489ZM6.55895 1.43364C5.37145 1.21739 4.94645 1.92864 4.5827 2.08364C4.2927 2.20614 4.0927 1.99239 3.6452 2.26614C3.0277 2.64239 3.26145 2.91489 3.2052 3.23364C3.1477 3.55239 2.80645 3.68864 2.55645 3.71239C2.2602 3.74114 2.23645 3.56114 2.37895 3.34489C2.4577 3.22614 2.54145 3.15239 2.58145 3.01239C2.6277 2.84989 2.6027 2.67489 2.6927 2.52489C2.83395 2.28989 3.16395 2.25739 3.3677 2.07489C3.5152 1.94239 3.58645 1.73864 3.74395 1.61739C3.90145 1.49614 4.10645 1.45239 4.3027 1.41739C4.70269 1.34614 5.04019 1.03114 4.85894 1.02114C4.67645 1.01114 4.37269 0.952391 4.1177 1.13989C3.83395 1.34739 3.4527 1.41239 3.15145 1.58364C2.81395 1.77739 2.63645 2.19864 2.53395 2.31239C2.43145 2.42614 2.10145 2.43739 1.87395 2.67239C1.39895 3.15864 0.606445 4.92489 0.606445 5.58614C0.606445 6.20239 0.880195 6.80489 1.49145 6.97239C1.58395 6.99739 1.6827 7.02614 1.7427 7.10114C1.8802 7.27239 1.53645 7.78739 1.48395 7.99489C1.3502 8.53239 1.49645 8.94614 1.73395 9.24239C2.2477 9.88114 2.7602 9.79489 3.2752 9.47864C3.4002 9.40114 3.50769 9.29239 3.64645 9.24114C3.93895 9.13239 3.94645 9.31989 3.9752 9.53864C4.1102 10.5461 4.52895 10.8061 4.8227 10.9199C5.43395 11.1561 6.18519 10.9311 6.5827 10.4099C6.9802 9.88864 7.02395 9.10989 6.6652 8.56114C6.1177 7.72364 5.03645 7.67739 4.8177 7.20864C4.57145 6.68114 5.2527 6.60739 5.5502 6.14989C5.8152 5.74364 5.87019 5.18489 5.61769 4.76489C5.49269 4.55739 5.2852 4.34989 5.3377 4.11364C5.39645 3.84989 6.1477 3.43614 6.70645 2.95614C7.10395 2.61614 8.0352 1.70239 6.55895 1.43364ZM2.75145 5.60739C2.70895 5.68864 2.6452 5.76989 2.55395 5.78364C2.4677 5.79614 2.3852 5.74114 2.33145 5.67239C2.24645 5.56114 2.22145 5.40489 2.2752 5.27614C2.33895 5.12114 2.55645 4.99739 2.7252 5.06989C2.81645 5.10864 2.84395 5.20114 2.83895 5.30239C2.8327 5.41364 2.78895 5.53489 2.75145 5.60739ZM4.68894 5.97489C4.67144 6.07364 4.64019 6.16864 4.61769 6.23364C4.55644 6.41489 4.4677 6.60489 4.29645 6.68864C4.22145 6.72614 4.1377 6.73864 4.0552 6.75239C3.88394 6.77864 3.6702 6.78739 3.58145 6.63864C3.54895 6.58489 3.54145 6.51989 3.5352 6.45739C3.50645 6.18739 3.4927 5.87364 3.69145 5.68989C3.83395 5.55739 3.99395 5.57364 4.17145 5.57239C4.27145 5.57239 4.5127 5.53989 4.5977 5.59489C4.71145 5.66864 4.71519 5.82614 4.68894 5.97489Z" fill="#F1C688"/>
</svg>
