<svg width="17" height="15" viewBox="0 0 17 15" fill="none" xmlns="http://www.w3.org/2000/svg">
<path d="M14.058 14.116C13.234 14.116 12.5373 13.8313 11.968 13.262C11.3987 12.6927 11.1143 11.9963 11.115 11.173C11.1157 10.3497 11.4003 9.65333 11.969 9.084C12.5377 8.51467 13.234 8.23034 14.058 8.231C14.882 8.23167 15.5783 8.516 16.147 9.084C16.7157 9.652 17 10.3487 17 11.174C17 11.9973 16.7157 12.6937 16.147 13.263C15.5783 13.8323 14.8817 14.1167 14.057 14.116M14.056 13.116C14.592 13.116 15.05 12.9263 15.43 12.547C15.81 12.1677 16 11.7103 16 11.175C16 10.6397 15.8107 10.1817 15.432 9.801C15.0533 9.42033 14.596 9.23034 14.06 9.231C13.524 9.23167 13.066 9.421 12.686 9.799C12.306 10.177 12.116 10.6347 12.116 11.172C12.116 11.7093 12.3053 12.1673 12.684 12.546C13.0627 12.9247 13.52 13.1147 14.056 13.116ZM1.5 11.674V10.674H8.73V11.674H1.5ZM2.942 5.885C2.118 5.885 1.42167 5.60067 0.853 5.032C0.284334 4.46333 0 3.76667 0 2.942C0 2.11867 0.284334 1.42233 0.853 0.853001C1.42167 0.283668 2.11833 -0.000665497 2.943 1.16959e-06C3.76767 0.000667836 4.46367 0.285335 5.031 0.854001C5.59833 1.42267 5.88267 2.119 5.884 2.943C5.88533 3.767 5.601 4.46333 5.031 5.032C4.461 5.60067 3.76467 5.885 2.942 5.885ZM2.94 4.885C3.476 4.885 3.934 4.69567 4.314 4.317C4.694 3.93833 4.884 3.481 4.884 2.945C4.884 2.409 4.69467 1.951 4.316 1.571C3.93733 1.191 3.48 1.001 2.944 1.001C2.408 1.001 1.95 1.19033 1.57 1.569C1.19 1.94767 1 2.405 1 2.941C1 3.477 1.18933 3.935 1.568 4.315C1.94667 4.695 2.404 4.885 2.94 4.885ZM8.27 3.442V2.442H15.5V3.442H8.27Z" fill="black"/>
</svg>
