<svg width="23" height="24" viewBox="0 0 23 24" fill="none" xmlns="http://www.w3.org/2000/svg">
<path d="M5.61822 15.8657L3.67922 22.6648M1 21.8994L6.35663 23.4267M2.79638 10.2617L6.28983 1L12.885 2.87762L10.9676 12.5907C10.8554 13.1711 10.6238 13.7218 10.2874 14.2079C9.95107 14.694 9.51731 15.1049 9.01369 15.4144C8.51008 15.724 7.9476 15.9254 7.36198 16.006C6.77636 16.0865 6.18039 16.0445 5.61189 15.8824C5.04339 15.7204 4.5148 15.4419 4.05965 15.0647C3.60451 14.6875 3.23276 14.2198 2.96801 13.6913C2.70325 13.1627 2.55128 12.5849 2.52174 11.9945C2.49219 11.4041 2.58571 10.814 2.79638 10.2617Z" stroke="black" stroke-linecap="round" stroke-linejoin="round"/>
<path d="M4.54492 5.61646L11.9218 7.7378" stroke="black"/>
<path d="M14.3281 15.5913C15.0955 15.9698 15.959 16.1088 16.8063 15.9902C17.6537 15.8715 18.4458 15.5006 19.0796 14.9258C19.7134 14.351 20.1597 13.5988 20.3603 12.767C20.561 11.9352 20.5067 11.0623 20.2047 10.2617L16.7076 1L15.6677 1.29428M17.3811 15.8657L19.3201 22.6648M21.9993 21.8994L16.6427 23.4267M18.4535 5.63808L15.4403 6.50468" stroke="black" stroke-linecap="round" stroke-linejoin="round"/>
</svg>
