<svg width="1013" height="236" viewBox="0 0 1013 236" fill="none" xmlns="http://www.w3.org/2000/svg">
<path d="M118.659 0C184.196 0 237.324 53.1282 237.324 118.665C237.324 140.022 231.68 160.06 221.806 177.372C221.248 177.683 220.683 177.995 220.109 178.305C181.374 199.21 122.781 171.315 102.673 100.22C87.8463 47.796 34.2549 52.8393 18.0972 55.6399C39.0882 22.2174 76.2788 0 118.659 0Z" fill="#264919"/>
<path d="M0.184934 112.019C12.6101 113.707 32.2962 125.598 45.4986 164.779C58.5039 203.375 82.9084 225.928 97.3281 235.415C41.9746 225.365 0 176.918 0 118.665C0 116.435 0.0634541 114.219 0.184934 112.019Z" fill="#DAE8AF"/>
<path d="M221.247 178.352C203.966 207.989 174.21 229.457 139.176 235.562C162.319 217.041 167.238 195.521 168.466 187.528C192.447 188.758 212.821 182.782 221.247 178.352Z" fill="#DAE8AF"/>
<path d="M128.5 82.3895C152.61 82.3895 172.154 102.485 172.154 127.273C172.154 145.546 161.533 161.265 146.294 168.269C128.247 154.628 112.523 132.801 103.551 103.214C102.155 103.04 100.597 104.384 100.22 105.139C117.927 162.688 146.128 182.404 158.015 185.069C158.63 204.744 138.34 246.553 98.9902 221.959C65.5426 201.055 52.2619 154.941 41.1947 129.733C32.3409 109.566 17.4207 98.3755 11.6821 95.9161C74.3964 84.234 112.517 190.602 113.747 193.062C114.73 195.029 116.206 193.472 116.821 192.447C104.524 154.08 90.7923 133.832 85.4636 128.503C87.824 108.204 96.1529 96.4739 100.268 93.0412C100.243 92.9776 100.293 93.1046 100.268 93.0412C107.88 86.3983 117.734 82.3895 128.5 82.3895Z" fill="#DAE8AF"/>
<path d="M969.937 196.022C969.647 196.022 969.502 195.587 969.502 194.716C969.502 193.844 969.647 193.409 969.937 193.409C975.304 193.409 978.786 192.465 980.381 190.578C982.122 188.545 982.992 184.479 982.992 178.381L983.21 66.4335C983.21 61.3516 982.702 57.649 981.687 55.3259C980.817 53.0027 979.076 51.8411 976.465 51.8411C974.289 51.8411 971.17 52.7849 967.108 54.6725C966.528 54.9629 966.02 54.6725 965.585 53.8013C965.295 52.9301 965.367 52.4219 965.803 52.2767L994.96 38.3377C995.25 38.1925 995.54 38.1199 995.831 38.1199C996.266 38.1199 996.773 38.3377 997.354 38.7733C998.079 39.2089 998.442 39.7171 998.442 40.2979V178.381C998.442 184.334 999.239 188.327 1000.84 190.36C1002.43 192.393 1005.91 193.409 1011.28 193.409C1011.86 193.409 1012.15 193.844 1012.15 194.716C1012.15 195.587 1011.86 196.022 1011.28 196.022C1008.67 196.022 1005.55 195.95 1001.92 195.805C998.442 195.659 994.67 195.587 990.608 195.587C986.692 195.587 982.92 195.659 979.293 195.805C975.812 195.95 972.693 196.022 969.937 196.022Z" fill="#264919"/>
<path d="M916.64 198.549C906.033 198.549 897.137 196.23 889.952 191.593C882.767 186.785 877.293 180.602 873.529 173.046C869.937 165.489 868.14 157.417 868.14 148.83C868.14 138.526 870.535 129.252 875.325 121.008C880.287 112.593 886.959 105.981 895.341 101.172C903.724 96.1918 913.047 93.7016 923.312 93.7016C933.234 93.7016 940.847 96.1918 946.15 101.172C951.624 106.153 954.362 113.452 954.362 123.069C954.362 125.302 954.105 127.105 953.592 128.479C953.25 129.681 952.48 130.282 951.282 130.282H933.576C934.26 119.978 932.892 112.164 929.47 106.84C926.22 101.516 921.259 98.8538 914.587 98.8538C906.204 98.8538 899.618 102.46 894.828 109.673C890.209 116.887 887.899 126.59 887.899 138.783C887.899 148.573 889.439 157.245 892.518 164.802C895.598 172.187 900.131 177.94 906.119 182.062C912.106 186.184 919.377 188.245 927.931 188.245C933.576 188.245 938.195 187.472 941.788 185.926C945.551 184.38 949.401 182.491 953.335 180.259C953.677 179.915 954.105 180.173 954.618 181.031C955.303 181.718 955.474 182.319 955.132 182.835C948.973 188.502 942.729 192.538 936.399 194.942C930.069 197.347 923.483 198.549 916.64 198.549ZM881.997 130.54L881.741 126.676L939.222 125.645V130.282L881.997 130.54Z" fill="#264919"/>
<path d="M757.235 192.914L817.673 101.203C818.359 99.9937 817.931 99.3893 816.387 99.3893C804.9 99.3893 795.384 100.166 787.84 101.721C780.296 103.103 774.295 105.521 769.837 108.975C765.38 112.429 762.122 117.438 760.064 124.001C759.893 124.346 759.293 124.433 758.264 124.26C757.407 124.087 757.064 123.742 757.235 123.224L766.494 87.7311C766.665 87.3857 767.266 87.2993 768.294 87.472C769.323 87.472 769.752 87.6447 769.58 87.9901C768.723 91.2717 769.237 93.4306 771.123 94.4669C773.181 95.5032 776.781 96.0213 781.925 96.0213C788.269 96.0213 796.07 96.0213 805.329 96.0213C814.587 96.0213 825.389 96.0213 837.734 96.0213C838.591 96.0213 839.191 96.3668 839.534 97.0576C840.048 97.7485 840.134 98.4393 839.791 99.1302L779.868 190.064C779.182 191.273 779.61 191.877 781.153 191.877C791.955 191.877 800.785 191.532 807.643 190.841C814.501 190.15 819.988 188.855 824.103 186.955C828.389 185.055 831.733 182.378 834.133 178.924C836.533 175.297 838.505 170.72 840.048 165.193C840.22 164.675 840.734 164.416 841.591 164.416C842.449 164.416 842.877 164.675 842.877 165.193L842.363 193.173C842.363 193.864 842.106 194.555 841.591 195.245C841.248 195.764 840.734 196.023 840.048 196.023C831.818 196.023 823.074 196.023 813.816 196.023C804.557 196.023 795.213 196.023 785.783 196.023C776.524 196.023 767.608 196.023 759.036 196.023C758.35 196.023 757.75 195.677 757.235 194.986C756.893 194.295 756.893 193.605 757.235 192.914Z" fill="#264919"/>
<path d="M445.195 196.022C444.905 196.022 444.76 195.587 444.76 194.716C444.76 193.844 444.905 193.409 445.195 193.409C450.562 193.409 454.044 192.465 455.639 190.578C457.38 188.545 458.251 184.479 458.251 178.381L458.468 66.4335C458.468 61.3516 457.96 57.649 456.945 55.3259C456.075 53.0027 454.334 51.8411 451.723 51.8411C449.547 51.8411 446.428 52.7849 442.366 54.6725C441.786 54.9629 441.278 54.6725 440.843 53.8013C440.553 52.9301 440.625 52.4219 441.061 52.2767L470.218 38.3377C470.508 38.1925 470.798 38.1199 471.089 38.1199C471.524 38.1199 472.031 38.3377 472.612 38.7733C473.337 39.2089 473.7 39.7171 473.7 40.2979V178.381C473.7 184.334 474.498 188.327 476.093 190.36C477.689 192.393 481.17 193.409 486.538 193.409C487.118 193.409 487.408 193.844 487.408 194.716C487.408 195.587 487.118 196.022 486.538 196.022C483.927 196.022 480.808 195.95 477.181 195.805C473.7 195.659 469.928 195.587 465.866 195.587C461.95 195.587 458.178 195.659 454.551 195.805C451.07 195.95 447.951 196.022 445.195 196.022Z" fill="#264919"/>
<path d="M364.595 198.549C352.068 198.549 340.853 196.73 330.949 193.091C321.19 189.306 312.887 184.139 306.042 177.589C299.342 171.039 294.171 163.47 290.529 154.882C287.034 146.294 285.286 137.197 285.286 127.59C285.286 116.674 287.325 106.921 291.403 98.3337C295.627 89.7458 301.526 82.3953 309.1 76.2819C316.674 70.023 325.486 65.2924 335.537 62.0902C345.587 58.7424 356.511 57.0685 368.309 57.0685C375.883 57.0685 383.02 57.7235 389.72 59.0335C396.566 60.3435 402.246 62.2357 406.762 64.7102C408.072 65.2924 408.801 65.8018 408.946 66.2385C409.092 66.6752 409.238 67.8396 409.383 69.7319L412.224 96.8053C412.224 97.242 411.86 97.5331 411.131 97.6787C410.403 97.8242 409.893 97.6059 409.602 97.0237C408.145 92.5114 406.179 88.1447 403.703 83.9236C401.227 79.5569 398.095 75.6997 394.308 72.3519C390.521 68.8585 386.006 66.093 380.762 64.0552C375.664 62.0174 369.693 60.9985 362.847 60.9985C352.068 60.9985 342.31 63.5457 333.57 68.6402C324.831 73.5891 317.912 80.7941 312.815 90.2553C307.717 99.5709 305.168 110.779 305.168 123.879C305.168 133.194 306.551 142.146 309.319 150.734C312.232 159.322 316.456 166.963 321.991 173.659C327.526 180.355 334.299 185.667 342.31 189.597C350.466 193.382 359.788 195.274 370.275 195.274C376.83 195.274 382 194.474 385.787 192.872C389.72 191.126 392.56 188.36 394.308 184.576C396.056 180.646 396.93 175.333 396.93 168.637C396.93 161.651 396.493 156.556 395.619 153.354C394.745 150.006 392.633 147.823 389.283 146.804C385.933 145.785 380.471 145.276 372.897 145.276C372.023 145.276 371.586 144.693 371.586 143.529C371.586 142.364 371.95 141.782 372.678 141.782C382.292 142.364 390.958 142.728 398.678 142.874C406.543 142.874 414.7 142.656 423.148 142.219C423.876 142.219 424.24 142.728 424.24 143.747C424.24 144.766 423.876 145.276 423.148 145.276C420.089 145.13 417.831 145.639 416.375 146.804C414.918 147.823 413.971 150.152 413.535 153.791C413.243 157.429 413.098 163.106 413.098 170.821C413.098 175.624 413.243 179.19 413.535 181.519C413.826 183.848 414.044 185.595 414.19 186.759C414.481 187.778 414.627 188.87 414.627 190.034C414.627 190.907 414.481 191.49 414.19 191.781C413.899 192.072 413.243 192.363 412.224 192.654C404.65 194.255 396.639 195.638 388.191 196.802C379.888 197.967 372.023 198.549 364.595 198.549Z" fill="#264919"/>
<path d="M560.53 94.9649C571.283 94.9651 580.475 97.5426 588.106 102.697C609.607 117.221 618.649 149.511 629.646 171.645L648.758 125.956L644.519 117.148C640.876 109.587 637.929 104.69 635.674 102.456C633.593 100.05 630.905 98.847 627.609 98.8469C627.263 98.8469 627.089 98.3303 627.089 97.2992C627.089 96.2688 627.263 95.7535 627.609 95.7535C630.211 95.7535 632.986 95.8393 635.934 96.0111C639.056 96.183 642.612 96.2688 646.601 96.2688C652.498 96.2688 657.614 96.183 661.95 96.0111C666.459 95.8393 670.45 95.7535 673.919 95.7535C674.438 95.7541 674.699 96.2693 674.699 97.2992C674.699 98.3298 674.439 98.8464 673.919 98.8469C669.062 98.8469 665.245 99.6209 662.47 101.167C659.696 102.542 659.262 105.12 661.17 108.9L691.949 171.844L714.244 118.178C716.845 111.649 716.672 106.837 713.724 103.744C710.775 100.479 705.138 98.8469 696.812 98.8469C696.292 98.8469 696.032 98.3303 696.032 97.2992C696.032 96.2688 696.292 95.7535 696.812 95.7535C700.801 95.7535 704.617 95.8393 708.259 96.0111C712.075 96.183 716.931 96.2688 722.828 96.2688C726.817 96.2688 730.027 96.183 732.455 96.0111C734.883 95.8393 737.745 95.7535 741.04 95.7535C741.56 95.7535 741.82 96.2688 741.82 97.2992C741.82 98.3303 741.56 98.8469 741.04 98.8469C736.704 98.847 732.888 100.393 729.593 103.486C726.297 106.407 723.088 111.562 719.966 118.951L687.706 194.992C687.359 195.679 686.406 196.022 684.846 196.023C683.285 196.023 682.33 195.679 681.983 194.992L651.976 132.642L625.527 194.992C625.353 195.679 624.399 196.023 622.665 196.023C621.105 196.022 620.152 195.679 619.805 194.992L586.105 125.171C579.58 111.842 567.542 100.119 551.684 100.119C543.185 100.119 536.595 103.385 531.912 109.915C527.403 116.273 525.148 125.724 525.148 138.269C525.148 147.317 526.298 155.705 528.599 163.433C529.052 164.951 529.549 166.443 530.09 167.911C535.525 182.364 547.411 191.625 564.294 191.625C573.327 191.014 572.424 193.64 560.229 195.319C554.105 195.899 548.18 195.561 542.623 194.392C520.596 189.761 504.334 172.083 504.334 146.774C504.334 137.839 505.981 130.106 509.277 123.576C512.745 117.047 517.256 111.72 522.806 107.596C528.356 103.3 534.426 100.12 541.017 98.0583C547.608 95.9962 554.113 94.9649 560.53 94.9649Z" fill="#264919"/>
</svg>
