<svg width="20" height="23" viewBox="0 0 20 23" fill="none" xmlns="http://www.w3.org/2000/svg">
<path d="M16.6638 22.0772C15.3716 23.2909 13.9606 23.0993 12.6024 22.5244C11.1651 21.9367 9.84643 21.9111 8.32999 22.5244C6.43114 23.3165 5.42897 23.0865 4.29493 22.0772C-2.14006 15.6508 -1.19063 5.86426 6.11466 5.50653C7.89483 5.59596 9.13436 6.45196 10.1761 6.52862C11.7321 6.22199 13.2222 5.34044 14.8837 5.45542C16.8748 5.60874 18.3781 6.37531 19.3671 7.75513C15.2529 10.1443 16.2287 15.3953 20 16.8645C19.2484 18.781 18.2726 20.6846 16.6506 22.09L16.6638 22.0772ZM10.0442 5.42987C9.84643 2.58079 12.2332 0.229971 14.976 0C15.3584 3.29625 11.8903 5.74927 10.0442 5.42987Z" fill="black"/>
</svg>
