<svg width="22" height="22" viewBox="0 0 22 22" fill="none" xmlns="http://www.w3.org/2000/svg">
<path d="M0 10.9951C0 12.9889 0.488672 14.8361 1.47579 16.5171C2.46291 18.1981 3.79209 19.5469 5.4829 20.5242C7.1737 21.5016 9.01111 22 11.0049 22C12.9987 22 14.8361 21.5113 16.5269 20.5242C18.2177 19.5371 19.5469 18.2079 20.5242 16.5171C21.5016 14.8263 22 12.9889 22 10.9951C22 9.00133 21.5113 7.16393 20.5242 5.47312C19.5371 3.78232 18.2079 2.45313 16.5269 1.47579C14.8458 0.498445 12.9987 0 11.0049 0C9.01111 0 7.1737 0.498445 5.4829 1.47579C3.79209 2.45313 2.45313 3.79209 1.47579 5.47312C0.498445 7.15415 0 9.00133 0 10.9951Z" fill="black"/>
</svg>
