<svg width="30" height="20" viewBox="0 0 30 20" fill="none" xmlns="http://www.w3.org/2000/svg">
<path d="M23.4685 19.2745C22.9663 19.1637 22.2199 19.0315 21.517 19.0315C20.9975 19.0315 20.5017 19.1345 19.9768 19.2434C19.2207 19.4004 18.3638 19.5783 17.23 19.4818C15.6606 19.3482 13.6496 18.2143 13.0705 17.87C12.8777 17.7553 12.6498 17.7098 12.429 17.7414C11.419 17.8869 7.9766 18.3504 6.0866 18.2135C3.89482 18.0547 0.355546 16.7278 0.320069 16.7144C0.196498 16.6678 0.0597725 16.7332 0.0146535 16.8604C-0.0305845 16.9876 0.0328678 17.1284 0.15632 17.175C0.30382 17.2306 3.79393 18.5392 6.05321 18.7028C7.9894 18.8432 11.4733 18.3743 12.4949 18.2273C12.6113 18.2105 12.7312 18.2345 12.8325 18.2948C13.6024 18.7527 15.5682 19.8325 17.1908 19.9706C17.4301 19.991 17.6571 20 17.8734 20C18.7431 20 19.4407 19.8552 20.071 19.7243C20.5937 19.6158 21.045 19.5221 21.517 19.5221C22.1783 19.5221 22.8891 19.6483 23.3689 19.7541C23.9001 19.8711 24.4214 19.5379 24.5554 18.9951C24.571 18.932 24.5802 18.8687 24.584 18.8057C24.9192 18.6516 25.1696 18.3455 25.2554 17.9699C25.3927 17.3689 25.0721 16.7553 24.5097 16.5425C24.1578 16.4093 23.716 16.2434 23.2173 16.0588L29.8032 14.8658C29.917 14.8452 30 14.7433 30 14.6243V3.38098C30 3.25977 29.914 3.15677 29.7977 3.13856C29.7693 3.13408 28.2132 2.89117 26.3824 2.65672C26.3822 2.65666 26.382 2.65666 26.3818 2.65666C24.8524 2.46083 23.1314 2.27089 21.9492 2.23085C20.7525 2.19045 19.2293 2.26942 17.7561 2.34593C16.0353 2.43532 14.4099 2.51975 13.5528 2.39952C11.9969 2.18138 10.4514 1.30193 10.4359 1.29304C10.3733 1.25705 10.2982 1.25203 10.2316 1.27949C10.165 1.3069 10.1139 1.36374 10.0926 1.43424L9.74868 2.57223L7.74053 2.0457V1.5145C7.74053 1.41928 7.68702 1.33265 7.60327 1.29237C7.49368 1.23958 4.90089 0 3.20304 0C1.47959 0 0.151796 1.0017 0.0960819 1.04431C-0.00933452 1.12505 -0.0312392 1.27839 0.0470344 1.38716C0.125308 1.49586 0.274415 1.51861 0.38001 1.43811C0.39245 1.42866 1.64155 0.490486 3.20304 0.490486C4.58339 0.490486 6.7075 1.41824 7.26422 1.6728V12.9941C7.18964 12.983 7.11612 12.9713 7.04404 12.9592C6.32583 12.838 5.45327 12.5675 4.57851 12.2458V5.1376C4.57851 5.00216 4.4719 4.89235 4.34042 4.89235C4.20893 4.89235 4.10232 5.00216 4.10232 5.1376V12.0658C2.17441 11.3191 0.370962 10.4075 0.343403 10.3935C0.225486 10.3337 0.0827486 10.3835 0.024594 10.505C-0.0335606 10.6264 0.0149512 10.7735 0.132868 10.8334C0.308284 10.9225 4.45762 13.0198 6.96708 13.4431C8.20213 13.6515 9.7838 13.7158 11.3134 13.778C12.8985 13.8425 14.5375 13.9091 15.7398 14.1369C17.604 14.4902 22.3791 16.2588 24.3455 17.0028C24.6822 17.1301 24.874 17.4975 24.7919 17.8574C24.7495 18.043 24.6392 18.1991 24.4895 18.3004C24.3758 18.0506 24.1679 17.8474 23.8976 17.7547L21.1518 16.812C21.0272 16.7693 20.8922 16.8386 20.8506 16.9671C20.8091 17.0956 20.8764 17.2344 21.0012 17.2773L23.747 18.22C24.0097 18.3102 24.1621 18.5975 24.0938 18.874C24.0232 19.1604 23.7486 19.3363 23.4685 19.2745ZM26.5724 3.17541C27.9133 3.35002 29.0715 3.52328 29.5238 3.59226V14.4184L26.5724 14.953V3.17541ZM7.74047 2.55182L9.60689 3.0412L7.74047 9.2163V2.55182ZM13.2825 13.38C12.8672 13.355 12.4425 13.3348 12.0165 13.3165L13.2825 7.52387V13.38ZM13.2825 5.29057L11.5328 13.2962C11.4659 13.2935 11.399 13.2908 11.3322 13.288C10.8322 13.2676 10.3268 13.247 9.83029 13.2212L10.6718 9.7619C10.7037 9.63045 10.6262 9.49734 10.4987 9.46436C10.3711 9.4315 10.2418 9.51126 10.2099 9.64259L9.34594 13.1941C8.78469 13.1601 8.24219 13.117 7.74041 13.0575V10.8664L10.4624 1.8606C10.9553 2.11516 12.0826 2.64501 13.2825 2.85291V5.29057H13.2825ZM19.8613 14.8575C19.2989 14.6646 18.7421 14.4791 18.2173 14.3123V8.74261C18.2173 8.60717 18.1107 8.49736 17.9792 8.49736C17.8477 8.49736 17.7411 8.60717 17.7411 8.74261V14.1633C16.9781 13.9291 16.3083 13.7461 15.8259 13.6547C15.2196 13.5398 14.5115 13.4652 13.7587 13.4112V2.91545C14.6966 2.99589 16.1985 2.9179 17.78 2.83581C18.4765 2.79963 19.184 2.76303 19.8613 2.73875V14.8575ZM20.3375 15.0221V2.72379C20.9084 2.70853 21.4496 2.70472 21.9335 2.72109C23.0432 2.75868 24.638 2.93053 26.0963 3.1144V15.0393L22.3092 15.7253C21.6857 15.4981 21.0131 15.2572 20.3375 15.0221ZM10.7188 7.55073L11.4906 4.37796C11.5225 4.24651 11.6518 4.16674 11.7794 4.19966C11.9069 4.23259 11.9844 4.36576 11.9525 4.49714L11.1807 7.66992C11.1536 7.78132 11.0566 7.85563 10.9499 7.85563C10.9308 7.85563 10.9114 7.85323 10.8919 7.84821C10.7643 7.81528 10.6868 7.68212 10.7188 7.55073ZM16.0184 4.92994V8.92807C16.0184 9.06351 15.9118 9.17332 15.7803 9.17332C15.6488 9.17332 15.5422 9.06351 15.5422 8.92807V4.92994C15.5422 4.7945 15.6488 4.68469 15.7803 4.68469C15.9118 4.68469 16.0184 4.7945 16.0184 4.92994ZM24.7291 6.23947V12.0058C24.7291 12.1412 24.6225 12.2511 24.491 12.2511C24.3595 12.2511 24.2529 12.1412 24.2529 12.0058V6.23947C24.2529 6.10404 24.3595 5.99423 24.491 5.99423C24.6225 5.99423 24.7291 6.10404 24.7291 6.23947ZM22.6426 4.21138V10.9614C22.6426 11.0969 22.536 11.2067 22.4045 11.2067C22.273 11.2067 22.1664 11.0969 22.1664 10.9614V4.21138C22.1664 4.07594 22.273 3.96613 22.4045 3.96613C22.536 3.96613 22.6426 4.07594 22.6426 4.21138Z" fill="#F1C688"/>
</svg>
