<svg width="16" height="16" viewBox="0 0 16 16" fill="none" xmlns="http://www.w3.org/2000/svg">
<path d="M8 12.423C8.17467 12.423 8.321 12.364 8.439 12.246C8.55633 12.128 8.615 11.982 8.615 11.808C8.615 11.634 8.556 11.4877 8.438 11.369C8.32 11.2503 8.174 11.1913 8 11.192C7.826 11.1927 7.68 11.2517 7.562 11.369C7.444 11.4863 7.385 11.6327 7.385 11.808C7.385 11.9833 7.444 12.1293 7.562 12.246C7.68 12.3627 7.826 12.4217 8 12.423ZM8 9.462C8.14267 9.462 8.26167 9.414 8.357 9.318C8.45233 9.222 8.5 9.103 8.5 8.961V3.885C8.5 3.743 8.452 3.624 8.356 3.528C8.26 3.432 8.141 3.38433 7.999 3.385C7.857 3.38567 7.73833 3.43333 7.643 3.528C7.54767 3.62267 7.5 3.74167 7.5 3.885V8.962C7.5 9.10333 7.548 9.222 7.644 9.318C7.74 9.414 7.859 9.462 8.001 9.462M5.344 16C5.12333 16 4.91267 15.9567 4.712 15.87C4.51133 15.7833 4.33867 15.667 4.194 15.521L0.48 11.806C0.335333 11.6613 0.219333 11.4887 0.132 11.288C0.0446666 11.0873 0.000666667 10.8767 0 10.656V5.344C0 5.12333 0.0433334 4.91267 0.13 4.712C0.216667 4.51133 0.333 4.33867 0.479 4.194L4.194 0.48C4.33867 0.334667 4.51133 0.218667 4.712 0.132C4.91267 0.0453333 5.12333 0.00133333 5.344 0H10.656C10.8767 0 11.0873 0.0433334 11.288 0.13C11.4887 0.216667 11.6613 0.333 11.806 0.479L15.521 4.194C15.6663 4.33867 15.7823 4.51133 15.869 4.712C15.9557 4.91267 15.9993 5.12333 16 5.344V10.656C16 10.8767 15.9567 11.0873 15.87 11.288C15.7833 11.4887 15.667 11.6613 15.521 11.806L11.806 15.521C11.6613 15.6663 11.4887 15.7823 11.288 15.869C11.0873 15.9557 10.8767 15.9993 10.656 16H5.344ZM5.1 15H10.9L15 10.9V5.1L10.9 1H5.1L1 5.1V10.9L5.1 15Z" fill="black"/>
</svg>
