<svg width="19" height="21" viewBox="0 0 19 21" fill="none" xmlns="http://www.w3.org/2000/svg">
<path d="M2.37133 17.2968C1.93117 17.2968 1.53238 17.1894 1.18597 16.9776C0.395705 16.4945 -0.0250774 15.5311 0.00115667 14.2652C0.0264442 13.0434 0.466745 11.6732 1.24092 10.407C2.47072 8.39561 4.33465 7.04419 5.87904 7.04419C6.31916 7.04419 6.71799 7.15156 7.06435 7.36337C7.85462 7.84658 8.2754 8.80985 8.24917 10.0759C8.22388 11.2976 7.78358 12.6678 7.0094 13.9341C5.77965 15.9454 3.91572 17.2968 2.37133 17.2968ZM5.87908 7.49499C4.48584 7.49499 2.77643 8.75973 1.62551 10.6421C0.892305 11.8413 0.475489 13.1313 0.451824 14.2745C0.429061 15.3736 0.773305 16.197 1.42113 16.5931C1.69569 16.7609 2.01537 16.8461 2.37133 16.8461C3.76458 16.8461 5.47394 15.5813 6.62491 13.699C7.35811 12.4998 7.77493 11.2098 7.79859 10.0666C7.82135 8.96753 7.47711 8.14408 6.82928 7.74796C6.55468 7.58009 6.235 7.49499 5.87908 7.49499Z" fill="black"/>
<path d="M1.30373 17.0107C1.23084 17.0107 1.1593 16.9754 1.11589 16.9102C1.04693 16.8065 1.07506 16.6666 1.17869 16.5976C1.20289 16.5815 3.61796 14.938 3.90095 12.1477C4.00016 11.1696 4.34652 10.2255 4.93043 9.34167C4.99904 9.23777 5.13886 9.20923 5.24272 9.27784C5.34657 9.34644 5.37515 9.48627 5.30655 9.59012C4.7632 10.4126 4.44123 11.2884 4.34945 12.1933C4.04451 15.1997 1.5351 16.902 1.42845 16.9729C1.39 16.9985 1.34659 17.0107 1.30373 17.0107Z" fill="black"/>
<path d="M14.2543 20.3111C13.4205 20.3111 12.5439 19.8254 11.786 18.9434C11.042 18.0777 10.4577 16.8803 10.1408 15.5717C9.79133 14.1293 9.79164 12.6901 10.1416 11.5192C10.5042 10.306 11.1996 9.51779 12.0999 9.29971C12.2621 9.2604 12.4298 9.24048 12.5985 9.24048C13.4323 9.24048 14.3089 9.72621 15.0669 10.6082C15.8108 11.4739 16.3951 12.6713 16.7121 13.9799C17.0615 15.4223 17.0612 16.8615 16.7113 18.0323C16.3487 19.2455 15.6532 20.0338 14.753 20.2519C14.5907 20.2912 14.423 20.3111 14.2543 20.3111ZM12.5984 9.69124C12.4655 9.69124 12.3335 9.70692 12.2059 9.7378C11.468 9.91657 10.8882 10.5951 10.5734 11.6483C10.246 12.7439 10.2479 14.0996 10.5788 15.4657C11.1857 17.9711 12.7658 19.8604 14.2543 19.8604C14.3872 19.8604 14.5192 19.8447 14.6468 19.8139C15.3848 19.6351 15.9645 18.9566 16.2794 17.9033C16.6068 16.8078 16.6048 15.4521 16.2739 14.086C15.667 11.5805 14.0869 9.69124 12.5984 9.69124Z" fill="black"/>
<path d="M14.7 20.2584C14.6854 20.2584 14.6705 20.2569 14.6556 20.254C14.5335 20.2296 14.4543 20.1109 14.4787 19.9888C14.4844 19.9603 15.027 17.0898 13.2518 14.9186C11.339 12.5791 11.9067 9.60036 11.9318 9.47473C11.9561 9.35267 12.0744 9.27351 12.197 9.29785C12.3189 9.32224 12.3981 9.44084 12.3739 9.56281C12.3681 9.59157 11.8256 12.4619 13.6008 14.6333C15.5136 16.9728 14.9459 19.9514 14.9208 20.0771C14.8994 20.1842 14.8052 20.2584 14.7 20.2584Z" fill="black"/>
<path d="M2.77302 19.3825C3.02197 19.3825 3.22378 19.1807 3.22378 18.9317C3.22378 18.6828 3.02197 18.481 2.77302 18.481C2.52408 18.481 2.32227 18.6828 2.32227 18.9317C2.32227 19.1807 2.52408 19.3825 2.77302 19.3825Z" fill="black"/>
<path d="M18.5484 16.2272C18.7974 16.2272 18.9992 16.0254 18.9992 15.7764C18.9992 15.5275 18.7974 15.3257 18.5484 15.3257C18.2995 15.3257 18.0977 15.5275 18.0977 15.7764C18.0977 16.0254 18.2995 16.2272 18.5484 16.2272Z" fill="black"/>
<path d="M17.1969 9.91665C17.4458 9.91665 17.6476 9.71484 17.6476 9.46589C17.6476 9.21695 17.4458 9.01514 17.1969 9.01514C16.9479 9.01514 16.7461 9.21695 16.7461 9.46589C16.7461 9.71484 16.9479 9.91665 17.1969 9.91665Z" fill="black"/>
<path d="M17.648 2.25381C17.897 2.25381 18.0988 2.052 18.0988 1.80305C18.0988 1.55411 17.897 1.35229 17.648 1.35229C17.3991 1.35229 17.1973 1.55411 17.1973 1.80305C17.1973 2.052 17.3991 2.25381 17.648 2.25381Z" fill="black"/>
<path d="M5.02693 0.901516C5.27588 0.901516 5.47769 0.699704 5.47769 0.450758C5.47769 0.201811 5.27588 0 5.02693 0C4.77798 0 4.57617 0.201811 4.57617 0.450758C4.57617 0.699704 4.77798 0.901516 5.02693 0.901516Z" fill="black"/>
<path d="M0.52107 8.11367C0.770017 8.11367 0.971828 7.91186 0.971828 7.66292C0.971828 7.41397 0.770017 7.21216 0.52107 7.21216C0.272124 7.21216 0.0703125 7.41397 0.0703125 7.66292C0.0703125 7.91186 0.272124 8.11367 0.52107 8.11367Z" fill="black"/>
<path d="M13.4406 8.21635C12.4493 8.21635 11.3775 7.99985 10.341 7.59029C8.96081 7.04487 7.78465 6.21548 7.02923 5.25487C6.24649 4.25955 6.0029 3.23696 6.34331 2.37552C6.76382 1.31137 8.02851 0.676025 9.72633 0.676025C10.7176 0.676025 11.7895 0.892524 12.8259 1.30208C14.2061 1.8475 15.3823 2.67689 16.1378 3.6375C16.9205 4.63282 17.1641 5.65541 16.8237 6.51685C16.4031 7.58105 15.1385 8.21635 13.4406 8.21635ZM9.72633 1.12683C8.22044 1.12683 7.11248 1.65557 6.76251 2.54117C6.48349 3.24737 6.704 4.1122 7.38357 4.97625C8.0904 5.87507 9.19958 6.65456 10.5067 7.17108C11.4909 7.56 12.5055 7.76554 13.4406 7.76554C14.9465 7.76554 16.0545 7.2368 16.4044 6.3512C16.6835 5.645 16.463 4.78017 15.7834 3.91612C15.0766 3.01731 13.9675 2.23781 12.6603 1.72129C11.676 1.33237 10.6615 1.12683 9.72633 1.12683Z" fill="black"/>
<path d="M16.6127 6.65936C16.5531 6.65936 16.4935 6.63588 16.4493 6.58918C16.4292 6.56808 14.3959 4.47071 11.5982 4.67093C8.58471 4.88658 6.47638 2.7064 6.38812 2.6135C6.30243 2.52325 6.30608 2.38059 6.39632 2.29485C6.48652 2.20921 6.62909 2.21282 6.71483 2.30292C6.73502 2.32411 8.7683 4.4218 11.5661 4.2213C14.5798 4.00625 16.6879 6.18584 16.7761 6.27874C16.8618 6.36898 16.8581 6.51165 16.7679 6.59738C16.7242 6.63881 16.6684 6.65936 16.6127 6.65936Z" fill="black"/>
<path d="M7.73 20.0589C6.86008 20.0589 6.15234 19.3511 6.15234 18.4812C6.15234 17.6113 6.86008 16.9036 7.73 16.9036C8.59991 16.9036 9.30765 17.6113 9.30765 18.4812C9.30765 19.3511 8.59991 20.0589 7.73 20.0589ZM7.73 17.3543C7.10863 17.3543 6.6031 17.8598 6.6031 18.4812C6.6031 19.1026 7.10863 19.6081 7.73 19.6081C8.35137 19.6081 8.85689 19.1026 8.85689 18.4812C8.85689 17.8598 8.35137 17.3543 7.73 17.3543Z" fill="black"/>
<path d="M2.32333 5.63446C1.20487 5.63446 0.294922 4.72451 0.294922 3.60605C0.294922 2.48758 1.20487 1.57764 2.32333 1.57764C3.4418 1.57764 4.35174 2.48758 4.35174 3.60605C4.35174 4.72451 3.4418 5.63446 2.32333 5.63446ZM2.32333 2.02839C1.45341 2.02839 0.74568 2.73613 0.74568 3.60605C0.74568 4.47596 1.45341 5.1837 2.32333 5.1837C3.19325 5.1837 3.90098 4.47596 3.90098 3.60605C3.90098 2.73613 3.19325 2.02839 2.32333 2.02839Z" fill="black"/>
</svg>
