<svg width="13" height="13" viewBox="0 0 13 13" fill="none" xmlns="http://www.w3.org/2000/svg">
<path d="M9.25 2.22222V1M3.75 2.22222V1M1.15278 4.05556H11.8472M1 5.30467C1 4.01217 1 3.36561 1.26644 2.87183C1.50737 2.43141 1.88122 2.07831 2.33467 1.86289C2.85778 1.61111 3.54222 1.61111 4.91111 1.61111H8.08889C9.45778 1.61111 10.1422 1.61111 10.6653 1.86289C11.1255 2.08411 11.4989 2.43733 11.7336 2.87122C12 3.36622 12 4.01278 12 5.30528V8.30706C12 9.59956 12 10.2461 11.7336 10.7399C11.4926 11.1803 11.1188 11.5334 10.6653 11.7488C10.1422 12 9.45778 12 8.08889 12H4.91111C3.54222 12 2.85778 12 2.33467 11.7482C1.88131 11.533 1.50747 11.1801 1.26644 10.7399C1 10.2449 1 9.59833 1 8.30583V5.30467Z" stroke="black" stroke-linecap="round" stroke-linejoin="round"/>
</svg>
