<svg width="24" height="22" viewBox="0 0 24 22" fill="none" xmlns="http://www.w3.org/2000/svg">
<path d="M11.9998 20.6866C16.7974 20.6866 20.6866 16.7974 20.6866 11.9998C20.6866 7.20221 16.7974 3.31299 11.9998 3.31299C7.20221 3.31299 3.31299 7.20221 3.31299 11.9998C3.31299 16.7974 7.20221 20.6866 11.9998 20.6866Z" stroke="black"/>
<path d="M4.51072 1C3.66885 1.22547 2.90118 1.66863 2.2849 2.2849C1.66863 2.90118 1.22547 3.66885 1 4.51072M19.4893 1C20.3312 1.22547 21.0988 1.66863 21.7151 2.2849C22.3314 2.90118 22.7745 3.66885 23 4.51072M12 7.0361V11.6898C12 11.861 12.139 12 12.3102 12H15.7229" stroke="black" stroke-linecap="round"/>
</svg>
