<svg width="16" height="16" viewBox="0 0 16 16" fill="none" xmlns="http://www.w3.org/2000/svg">
<path d="M12.211 6.69018C12.4957 6.08564 12.6594 5.4131 12.6594 4.70025C12.6594 2.10831 10.5508 0 7.95843 0C5.36608 0 3.25996 2.10831 3.25996 4.70025C3.25996 5.40554 3.42119 6.07053 3.69832 6.67254C1.58463 7.14106 0 9.02771 0 11.2796C0 13.8816 2.11872 16 4.72115 16C6.00094 16 7.16234 15.4861 8.01386 14.6574C8.86286 15.4861 10.0192 16 11.299 16C13.8914 16 16 13.8917 16 11.2997C15.9975 9.02015 14.3675 7.11839 12.211 6.69018ZM3.75878 4.70025C3.75878 2.38539 5.64321 0.501259 7.95843 0.501259C10.2737 0.501259 12.1581 2.38539 12.1581 4.70025C12.1581 5.39295 11.9868 6.04282 11.6895 6.61965C11.5585 6.60957 11.4275 6.5995 11.2965 6.5995C10.0293 6.5995 8.88301 7.10579 8.03653 7.92191C7.18249 7.07809 6.01354 6.55668 4.72115 6.55668C4.54983 6.55668 4.37852 6.56675 4.21225 6.58438C3.92505 6.01763 3.75878 5.37783 3.75878 4.70025ZM8.94347 11.2796C8.94347 12.2771 8.59581 13.1914 8.01386 13.9144C7.44198 13.1965 7.09684 12.2897 7.09684 11.3023C7.09684 10.6096 7.26815 9.9597 7.56542 9.38287C7.69643 9.39295 7.82743 9.40302 7.95843 9.40302C8.13478 9.40302 8.30861 9.39043 8.47992 9.3728C8.77468 9.94458 8.94347 10.5919 8.94347 11.2796ZM7.95843 8.89924C7.92316 8.89924 7.89041 8.89421 7.85766 8.89421C7.91308 8.81612 7.96851 8.73803 8.02897 8.66499C8.08692 8.73803 8.14234 8.81108 8.19524 8.88917C8.11715 8.89169 8.03905 8.89924 7.95843 8.89924ZM7.29838 8.84383C6.13699 8.65995 5.13179 8 4.49441 7.07053C4.56999 7.06549 4.64557 7.05793 4.72115 7.05793C5.88002 7.05793 6.93056 7.52897 7.69391 8.28715C7.54779 8.46096 7.41678 8.64735 7.29838 8.84383ZM8.37411 8.28967C9.1299 7.55416 10.1628 7.09824 11.299 7.09824C11.3343 7.09824 11.367 7.10327 11.3998 7.10327C10.7826 7.98237 9.84034 8.61461 8.74697 8.82116C8.6336 8.63728 8.51016 8.45844 8.37411 8.28967ZM0.498819 11.2796C0.498819 9.21662 1.9852 7.49874 3.94269 7.1335C4.61534 8.24181 5.73138 9.05038 7.04393 9.30982C6.75925 9.91436 6.5955 10.5869 6.5955 11.2997C6.5955 12.4358 7.0011 13.4761 7.67375 14.2897C6.91293 15.0378 5.86994 15.4987 4.72115 15.4987C2.39332 15.4987 0.498819 13.6071 0.498819 11.2796ZM11.2965 15.4987C10.1502 15.4987 9.11227 15.0353 8.35144 14.2897C9.03165 13.471 9.43977 12.4207 9.43977 11.2771C9.43977 10.5617 9.27602 9.88917 8.99134 9.2796C10.2434 8.99748 11.3015 8.21411 11.9565 7.15365C13.9594 7.47355 15.4961 9.20655 15.4961 11.2972C15.4987 13.6146 13.6142 15.4987 11.2965 15.4987Z" fill="black"/>
</svg>
