<svg width="21" height="21" viewBox="0 0 21 21" fill="none" xmlns="http://www.w3.org/2000/svg">
<path d="M7.17422 12.4002C7.04824 12.4002 6.92742 12.3502 6.83834 12.2611C6.74926 12.172 6.69922 12.0512 6.69922 11.9252C6.69922 11.7992 6.74926 11.6784 6.83834 11.5893C6.92742 11.5002 7.04824 11.4502 7.17422 11.4502C7.3002 11.4502 7.42102 11.5002 7.51009 11.5893C7.59917 11.6784 7.64922 11.7992 7.64922 11.9252C7.64922 12.0512 7.59917 12.172 7.51009 12.2611C7.42102 12.3502 7.3002 12.4002 7.17422 12.4002ZM13.8242 12.4002C13.6982 12.4002 13.5774 12.3502 13.4883 12.2611C13.3993 12.172 13.3492 12.0512 13.3492 11.9252C13.3492 11.7992 13.3993 11.6784 13.4883 11.5893C13.5774 11.5002 13.6982 11.4502 13.8242 11.4502C13.9502 11.4502 14.071 11.5002 14.1601 11.5893C14.2492 11.6784 14.2992 11.7992 14.2992 11.9252C14.2992 12.0512 14.2492 12.172 14.1601 12.2611C14.071 12.3502 13.9502 12.4002 13.8242 12.4002Z" fill="black" stroke="black" stroke-linecap="round" stroke-linejoin="round"/>
<path d="M8.6 16.2H12.4M20 10.5C20 15.7468 15.7468 20 10.5 20C5.25315 20 1 15.7468 1 10.5C1 5.25315 5.25315 1 10.5 1C15.7468 1 20 5.25315 20 10.5Z" stroke="black" stroke-linecap="round" stroke-linejoin="round"/>
</svg>
