<svg width="24" height="26" viewBox="0 0 24 26" fill="none" xmlns="http://www.w3.org/2000/svg">
<path d="M5.36852 11.7301C5.36852 11.7557 5.38968 11.7768 5.41474 11.7768H5.78119C5.8068 11.7768 5.82769 11.7557 5.82769 11.7301V9.93042L7.12945 11.2007C7.14755 11.2177 7.17734 11.2177 7.19516 11.1996L7.45134 10.937C7.45969 10.9289 7.4647 10.9167 7.4647 10.9047C7.4647 10.8925 7.45914 10.8802 7.45078 10.8721L5.82769 9.2911V6.28382L8.18478 7.62958L8.87868 10.1267C8.88509 10.1523 8.91432 10.1668 8.93549 10.1596L9.28634 10.0618C9.29831 10.0591 9.30833 10.0507 9.31502 10.0401C9.32086 10.0295 9.3217 10.0167 9.31919 10.0045L8.75087 7.95174L10.5572 8.98369C10.5678 8.99009 10.5825 8.9926 10.592 8.98814C10.6042 8.9848 10.6145 8.977 10.6204 8.96642L10.8019 8.64871C10.8148 8.62643 10.8067 8.59859 10.7844 8.58494L9.14711 7.65074L10.9323 7.15649C10.9437 7.15259 10.9543 7.14535 10.9601 7.13477C10.966 7.12363 10.9673 7.11082 10.9643 7.09968L10.8665 6.74633C10.8599 6.72099 10.8331 6.70762 10.8089 6.71375L8.58631 7.33024L6.06187 5.88981L8.54482 4.4892L10.8849 5.10569C10.8966 5.10903 10.9094 5.10792 10.9203 5.10096C10.9306 5.09511 10.9384 5.08453 10.9417 5.07311L11.0345 4.71892C11.0414 4.69497 11.0269 4.66936 11.0022 4.66212L9.11704 4.16508L10.7989 3.21723C10.8089 3.21138 10.8173 3.20052 10.8203 3.18883C10.8237 3.17741 10.8226 3.16405 10.8161 3.15319L10.636 2.83492C10.6235 2.81264 10.5953 2.8054 10.5725 2.81737L8.83692 3.7978L9.354 1.83472C9.3604 1.80994 9.3462 1.78432 9.32114 1.77875L8.96695 1.68435C8.95553 1.68185 8.94301 1.68296 8.93159 1.68937C8.92129 1.69521 8.91349 1.70552 8.91015 1.71777L8.27918 4.11245L5.82769 5.4958V2.57289L7.55854 0.842038C7.56745 0.833127 7.57247 0.821432 7.57247 0.808902C7.57247 0.796929 7.56745 0.784677 7.55854 0.776323L7.30014 0.517642C7.28288 0.500378 7.25169 0.500378 7.23498 0.517642L5.82797 1.92494V0.0467799C5.82797 0.0206055 5.8068 0 5.78147 0H5.41502C5.38996 0 5.3688 0.0206055 5.3688 0.0467799V1.92494L3.96067 0.517642C3.94368 0.500378 3.9125 0.500378 3.89579 0.517642L3.63683 0.776323C3.61845 0.794423 3.61845 0.824217 3.63683 0.842038L5.3688 2.57401V5.49274L2.77642 4.01277L2.09031 1.654C2.08669 1.64259 2.07862 1.63228 2.06803 1.62588C2.05773 1.62115 2.04687 1.61892 2.03239 1.62226L1.68154 1.72501C1.6576 1.73225 1.64312 1.75759 1.65008 1.78237L2.20336 3.68614L0.639299 2.79287C0.617301 2.78006 0.589456 2.78786 0.575812 2.80986L0.393426 3.12701C0.387578 3.13759 0.386186 3.15096 0.389249 3.16265C0.392033 3.17463 0.39983 3.18493 0.41069 3.19106L1.99285 4.09407L0.0754339 4.65293C0.0506517 4.65989 0.0358939 4.68523 0.0431336 4.71029L0.145047 5.06086C0.148388 5.07228 0.156463 5.08258 0.167045 5.08898C0.178183 5.09455 0.190713 5.09706 0.202408 5.09232L2.54586 4.41012L5.13323 5.88758L2.60461 7.31548L0.146718 6.70261C0.132795 6.69899 0.1211 6.70122 0.110797 6.70762C0.100773 6.71347 0.0929764 6.72461 0.0899134 6.73658L0.00136583 7.09161C-0.0047601 7.11611 0.0102763 7.14173 0.035337 7.1473L2.02209 7.64322L0.397324 8.561C0.386464 8.56684 0.378668 8.57659 0.375883 8.58884C0.372542 8.60081 0.373934 8.61307 0.38006 8.62393L0.560218 8.94192C0.573027 8.96419 0.601151 8.97143 0.623427 8.95946L2.19055 8.07565L1.72053 9.95353C1.7183 9.96523 1.71997 9.97776 1.72637 9.98862C1.73278 9.99892 1.74364 10.007 1.75478 10.0092L2.11008 10.0983C2.12428 10.1017 2.13542 10.1 2.146 10.093C2.1563 10.0866 2.16382 10.0766 2.16688 10.0646L2.74022 7.76435L5.36852 6.28131V9.03436L3.5274 10.9228C3.51877 10.9317 3.51403 10.9434 3.51403 10.9562C3.51403 10.9688 3.51932 10.9802 3.52796 10.9885L3.78998 11.243C3.80808 11.2614 3.83787 11.26 3.85597 11.2425L5.36852 9.69067V11.7301Z" fill="black"/>
<path d="M7.70621 16.894C6.72662 16.894 5.92969 17.6904 5.92969 18.6703C5.92969 19.6496 6.72662 20.4463 7.70621 20.4463C8.68552 20.4463 9.48217 19.6496 9.48217 18.6703C9.48217 17.6904 8.68524 16.894 7.70621 16.894ZM7.70621 19.9821C6.98223 19.9821 6.39442 19.3931 6.39442 18.6703C6.39442 17.9469 6.98223 17.3582 7.70621 17.3582C8.42963 17.3582 9.018 17.9469 9.018 18.6703C9.018 19.3931 8.42935 19.9821 7.70621 19.9821Z" fill="black"/>
<path d="M11.4492 21.2236C10.6762 21.2236 10.0469 21.8535 10.0469 22.6273C10.0469 23.4008 10.6762 24.031 11.4492 24.031C12.2238 24.031 12.8542 23.4008 12.8542 22.6273C12.8542 21.8532 12.2238 21.2236 11.4492 21.2236ZM11.4492 23.5665C10.9321 23.5665 10.5111 23.1444 10.5111 22.6273C10.5111 22.1091 10.9321 21.6878 11.4492 21.6878C11.9682 21.6878 12.3898 22.1091 12.3898 22.6273C12.3898 23.1444 11.9682 23.5665 11.4492 23.5665Z" fill="black"/>
<path d="M18.4219 21.7747C18.4219 22.6075 19.0996 23.2847 19.9322 23.2847C20.7648 23.2847 21.442 22.6075 21.442 21.7747C21.442 20.9421 20.7648 20.2649 19.9322 20.2649C19.0996 20.2649 18.4219 20.9421 18.4219 21.7747ZM19.9322 20.7296C20.5091 20.7296 20.9781 21.198 20.9781 21.7747C20.9781 22.3513 20.5091 22.8205 19.9322 22.8205C19.3558 22.8205 18.8863 22.3513 18.8863 21.7747C18.8863 21.198 19.3558 20.7296 19.9322 20.7296Z" fill="black"/>
<path d="M14.537 17.9941C13.9795 17.9941 13.5254 18.4489 13.5254 19.0074C13.5254 19.5657 13.9795 20.0199 14.537 20.0199C15.0961 20.0199 15.5514 19.5657 15.5514 19.0074C15.5514 18.4489 15.0961 17.9941 14.537 17.9941ZM14.537 19.5554C14.2352 19.5554 13.9893 19.3093 13.9893 19.0071C13.9893 18.705 14.2352 18.458 14.537 18.458C14.8405 18.458 15.0875 18.705 15.0875 19.0071C15.0875 19.3093 14.8405 19.5554 14.537 19.5554Z" fill="black"/>
<path d="M10.1831 14.737C10.7236 14.685 11.2218 14.4795 11.2218 14.0938C11.2218 13.6413 10.5398 13.4355 9.90609 13.4355C9.27345 13.4355 8.5918 13.6413 8.5918 14.0938C8.5918 14.5374 9.24839 14.7429 9.87128 14.7501L10.1831 14.737ZM9.90637 13.8997C10.4307 13.8997 10.727 14.0515 10.7618 14.0721C10.727 14.135 10.4307 14.2871 9.90637 14.2871C9.38288 14.2871 9.08772 14.1353 9.05236 14.1147C9.08772 14.0515 9.38288 13.8997 9.90637 13.8997Z" fill="black"/>
<path d="M14.8919 13.5608C15.9345 13.5608 16.7208 13.1255 16.7208 12.5475C16.7208 11.9702 15.9345 11.5342 14.8919 11.5342C13.8494 11.5342 13.0625 11.97 13.0625 12.5475C13.0622 13.1255 13.8494 13.5608 14.8919 13.5608ZM14.8919 11.9986C15.7245 11.9986 16.2569 12.3241 16.2569 12.5477C16.2569 12.7713 15.7245 13.0966 14.8919 13.0966C14.0588 13.0966 13.527 12.7713 13.527 12.5477C13.527 12.3241 14.0588 11.9986 14.8919 11.9986Z" fill="black"/>
<path d="M23.9392 14.3808C23.3087 13.673 22.4664 13.0189 21.5005 12.4567C21.364 12.3765 21.2254 12.2975 21.0834 12.2214C21.0285 12.3818 20.9246 12.5113 20.7896 12.6093C20.6562 12.7048 20.5025 12.7722 20.3268 12.7722C19.8999 12.7722 19.5577 12.4378 19.5279 12.0176C19.5268 11.9987 19.5171 11.9825 19.5171 11.963C19.5171 11.8177 19.5666 11.6874 19.634 11.569C19.4873 11.5103 19.3397 11.451 19.1913 11.3969C16.9979 10.595 14.816 10.2856 13.7055 10.1754C13.2422 10.1297 12.9604 10.1163 12.9506 10.1158L12.8963 10.1133L12.8621 10.1283L9.9297 11.8319L9.50618 12.0778L4.15712 15.185L4.14431 15.1856L4.14487 15.1928L4.07721 15.2312C4.0747 15.2332 4.06718 15.2399 4.06662 15.2399L3.97975 15.3072L3.97752 15.4175C3.97752 15.4256 3.97418 15.5779 3.97028 15.8299C3.95107 16.9632 3.90122 20.1684 3.9313 21.8784L3.9338 22.0589C3.9338 22.0589 4.18274 21.9581 4.4055 22.0065C4.51967 22.0305 4.65221 22.1739 4.65221 22.4139C4.65221 22.6531 4.51911 22.7945 4.4055 22.8201C4.1535 22.8769 3.94995 22.7862 3.94995 22.7862L3.9533 22.9769C3.96666 23.6132 3.97752 24.0172 3.97808 24.0306C4.04546 24.8514 5.44273 25.0394 5.60145 25.0581L5.61927 25.0606L5.63681 25.0595C6.22657 25.0402 20.1015 24.5752 21.7232 24.3992C23.5148 24.2049 23.7039 23.0646 23.7136 22.9897L23.8506 18.909L23.8684 18.3619C23.732 18.4635 23.5724 18.5345 23.3981 18.5646C23.3371 18.5743 23.2759 18.5827 23.2121 18.5827C22.6015 18.5827 22.1047 18.0859 22.1047 17.475C22.1047 16.8646 22.6012 16.3676 23.2121 16.3676C23.3012 16.3676 23.3873 16.3815 23.4705 16.4016C23.6418 16.4422 23.7969 16.5252 23.9269 16.6366L23.9458 16.093L24.0001 14.4502L23.9392 14.3808ZM9.41958 12.6645L10.0294 12.3105L10.3995 12.0959L10.8163 11.8533L13.0033 10.5825C13.4699 10.6095 16.267 10.8111 19.0654 11.8402C19.061 11.8814 19.0523 11.9213 19.0523 11.9628C19.0523 12.665 19.624 13.2367 20.3265 13.2367C20.6866 13.2367 21.0107 13.0846 21.2424 12.8435C22.0373 13.3007 22.7218 13.8128 23.284 14.3767L19.2726 14.5457C18.9554 14.1823 18.3779 13.9412 17.6966 13.9412C16.9314 13.9412 16.2912 14.2436 16.0111 14.6838L10.1831 14.9302L9.87151 14.9436L5.15398 15.1432L9.41958 12.6645ZM19.0702 15.1847C19.0702 15.6074 18.4414 15.9638 17.6968 15.9638C16.9528 15.9638 16.3241 15.6074 16.3241 15.1847C16.3241 15.1672 16.3316 15.1516 16.3333 15.1346C16.3555 14.9514 16.4914 14.7832 16.7047 14.6545C16.9575 14.5025 17.3101 14.4053 17.6968 14.4053C18.0112 14.4053 18.3022 14.4716 18.5366 14.5769C18.7831 14.688 18.9657 14.8428 19.0359 15.0207C19.0571 15.0742 19.0702 15.1285 19.0702 15.1847ZM23.4867 15.9315C23.397 15.9154 23.3062 15.9037 23.2127 15.9037C22.3459 15.9037 21.6408 16.609 21.6408 17.4753C21.6408 18.3424 22.3456 19.0474 23.2127 19.0474C23.2714 19.0474 23.3263 19.0363 23.3828 19.0301L23.2522 22.9449C23.2467 22.9794 23.0907 23.7841 21.674 23.9376C20.0951 24.1094 6.22685 24.5752 5.6396 24.5953C5.24977 24.5457 4.46982 24.3383 4.44198 24.0052C4.44198 24.0047 4.43474 23.7332 4.42444 23.2846C4.81399 23.2724 5.11611 22.8942 5.11611 22.4142C5.11611 21.9196 4.79673 21.5175 4.39102 21.5426C4.36986 19.6541 4.42332 16.4703 4.43836 15.6375L15.8641 15.1546C15.8641 15.165 15.8602 15.1744 15.8602 15.1847C15.8602 15.882 16.6666 16.4283 17.6968 16.4283C18.7274 16.4283 19.5341 15.882 19.5341 15.1847C19.5341 15.1212 19.5199 15.0608 19.5073 15.0004L23.5232 14.8311L23.4867 15.9315Z" fill="black"/>
</svg>
