<svg width="19" height="21" viewBox="0 0 19 21" fill="none" xmlns="http://www.w3.org/2000/svg">
<path d="M11.5076 4.11816H4.77587C4.38624 4.11816 4.07031 4.42551 4.07031 4.80454C4.07031 5.18356 4.38624 5.49091 4.77587 5.49091H11.5076C11.8972 5.49091 12.2132 5.18356 12.2132 4.80454C12.2132 4.42551 11.898 4.11816 11.5076 4.11816Z" fill="white"/>
<path d="M8.76551 6.86377H4.80368C4.3987 6.86377 4.07031 7.17111 4.07031 7.55014C4.07031 7.92917 4.3987 8.23651 4.80368 8.23651H8.76551C9.1705 8.23651 9.49888 7.92917 9.49888 7.55014C9.49888 7.17111 9.1705 6.86377 8.76551 6.86377Z" fill="white"/>
<path d="M16.1997 0H3.6542C2.11057 0 0.854611 1.23689 0.854611 2.75709V4.77205H0.631486C0.282765 4.77205 0 5.05053 0 5.39395C0 5.73738 0.282765 6.01585 0.631486 6.01585H0.855312V9.67401H0.631486C0.282765 9.67401 0 9.95248 0 10.2959C0 10.6393 0.282765 10.9178 0.631486 10.9178H0.855312V14.5753H0.631486C0.282765 14.5753 0 14.8538 0 15.1972C0 15.5406 0.282765 15.8191 0.631486 15.8191H0.855312V17.834C0.855312 19.3542 2.11127 20.5911 3.6549 20.5911H16.2004C17.744 20.5911 19 19.3542 19 17.834V2.75709C18.9993 1.23689 17.744 0 16.1997 0ZM2.11758 17.8347V15.8198H2.34141C2.69013 15.8198 2.97289 15.5413 2.97289 15.1979C2.97289 14.8544 2.69013 14.576 2.34141 14.576H2.11758V10.9178H2.34141C2.69013 10.9178 2.97289 10.6393 2.97289 10.2959C2.97289 9.95248 2.69013 9.67401 2.34141 9.67401H2.11758V6.01654H2.34141C2.69013 6.01654 2.97289 5.73807 2.97289 5.39464C2.97289 5.05122 2.69013 4.77274 2.34141 4.77274H2.11758V2.75709C2.11758 1.92306 2.8066 1.24449 3.6542 1.24449H13.9551V19.348H3.6542C2.8073 19.348 2.11758 18.6688 2.11758 17.8347ZM17.7363 17.8347C17.7363 18.6688 17.0473 19.3473 16.1997 19.3473H15.2181V1.2438H16.1997C17.0473 1.2438 17.7363 1.92236 17.7363 2.7564V17.8347Z" fill="white"/>
</svg>
