<svg width="4" height="8" viewBox="0 0 4 8" fill="none" xmlns="http://www.w3.org/2000/svg">
<path d="M2.00029 0.888889C1.68199 0.888889 1.37672 1.02936 1.15164 1.27941C0.926564 1.52946 0.800117 1.8686 0.800117 2.22222V2.31733C0.800117 2.43521 0.757968 2.54825 0.682943 2.6316C0.607917 2.71495 0.506161 2.76178 0.400058 2.76178C0.293956 2.76178 0.1922 2.71495 0.117174 2.6316C0.0421486 2.54825 0 2.43521 0 2.31733V2.22222C0 1.63285 0.210744 1.06762 0.585872 0.650874C0.961 0.234126 1.46978 0 2.00029 0H2.09311C2.48269 0.000132771 2.86289 0.132787 3.18259 0.380124C3.50229 0.627461 3.74616 0.97762 3.88139 1.38351C4.01662 1.78941 4.03674 2.23157 3.93904 2.65055C3.84134 3.06952 3.63051 3.44522 3.33489 3.72711L2.718 4.31467C2.61852 4.40964 2.53864 4.52733 2.48383 4.65971C2.42901 4.7921 2.40054 4.93606 2.40035 5.08178V5.55556C2.40035 5.67343 2.3582 5.78648 2.28318 5.86983C2.20815 5.95318 2.10639 6 2.00029 6C1.89419 6 1.79243 5.95318 1.71741 5.86983C1.64238 5.78648 1.60023 5.67343 1.60023 5.55556V5.08178C1.60023 4.52711 1.81867 4.00089 2.19712 3.64L2.81321 3.05333C2.98502 2.8898 3.10762 2.67172 3.16451 2.42844C3.2214 2.18517 3.20985 1.92837 3.13141 1.69261C3.05297 1.45685 2.91141 1.25343 2.72578 1.10974C2.54015 0.96605 2.31935 0.888975 2.09311 0.888889H2.00029ZM2.00029 8C2.15945 8 2.31208 7.92976 2.42462 7.80474C2.53716 7.67971 2.60038 7.51014 2.60038 7.33333C2.60038 7.15652 2.53716 6.98695 2.42462 6.86193C2.31208 6.73691 2.15945 6.66667 2.00029 6.66667C1.84114 6.66667 1.6885 6.73691 1.57597 6.86193C1.46343 6.98695 1.4002 7.15652 1.4002 7.33333C1.4002 7.51014 1.46343 7.67971 1.57597 7.80474C1.6885 7.92976 1.84114 8 2.00029 8Z" fill="black"/>
</svg>
