<svg width="18" height="22" viewBox="0 0 18 22" fill="none" xmlns="http://www.w3.org/2000/svg">
<path d="M8.99614 22C6.42557 22 4.28357 21.1244 2.57014 19.3731C0.856714 17.621 0 15.4404 0 12.8313C0 11.6763 0.265714 10.5127 0.797143 9.34067C1.32771 8.16862 1.99071 7.04414 2.78614 5.96722C3.58329 4.88945 4.443 3.87368 5.36529 2.91991C6.28843 1.96529 7.14557 1.13467 7.93671 0.42805C8.091 0.291312 8.25943 0.185574 8.442 0.110835C8.62371 0.036945 8.80971 0 9 0C9.19029 0 9.37629 0.036945 9.558 0.110835C9.73971 0.184724 9.90814 0.290887 10.0633 0.429324C10.8544 1.13425 11.7116 1.96444 12.6347 2.91991C13.5579 3.87368 14.4176 4.88903 15.2139 5.96595C16.0101 7.04287 16.6736 8.16778 17.2041 9.34067C17.7347 10.5136 18 11.6771 18 12.8313C18 15.4404 17.142 17.621 15.426 19.3731C13.7083 21.1244 11.5659 22 8.99614 22ZM9.27771 19.0597C9.46971 19.0385 9.61971 18.9735 9.72771 18.8648C9.83486 18.7544 9.88843 18.6223 9.88843 18.4686C9.88843 18.2885 9.82714 18.1488 9.70457 18.0495C9.58114 17.9509 9.42343 17.9123 9.23143 17.9335C8.35286 17.9972 7.37143 17.7254 6.28714 17.1182C5.202 16.5118 4.53086 15.4969 4.27371 14.0734C4.23086 13.873 4.15971 13.7231 4.06029 13.6237C3.96 13.5243 3.83357 13.4747 3.681 13.4747C3.51214 13.4747 3.36857 13.5371 3.25029 13.6619C3.132 13.7868 3.09643 13.9736 3.14357 14.2225C3.47529 15.9907 4.29943 17.2562 5.616 18.0189C6.93257 18.7816 8.15314 19.1285 9.27771 19.0597Z" fill="black"/>
</svg>
