<svg width="18" height="18" viewBox="0 0 18 18" fill="none" xmlns="http://www.w3.org/2000/svg">
<path d="M8.99989 15.9988C8.86718 15.9988 8.73992 16.0515 8.64608 16.1453C8.55224 16.2392 8.49951 16.3665 8.49951 16.4992V17.4999C8.49951 17.6326 8.55224 17.7599 8.64608 17.8538C8.73992 17.9476 8.86718 18.0003 8.99989 18.0003C9.1326 18.0003 9.25987 17.9476 9.35371 17.8538C9.44755 17.7599 9.50027 17.6326 9.50027 17.4999V16.4992C9.50027 16.3665 9.44755 16.2392 9.35371 16.1453C9.25987 16.0515 9.1326 15.9988 8.99989 15.9988Z" fill="black"/>
<path d="M12.7243 14.9948C12.6455 14.999 12.5688 15.0217 12.5004 15.0612C12.3855 15.1275 12.3016 15.2367 12.2672 15.3648C12.2327 15.4929 12.2505 15.6294 12.3167 15.7444L12.8171 16.6112C12.8499 16.6683 12.8936 16.7183 12.9458 16.7584C12.9979 16.7985 13.0575 16.8279 13.121 16.845C13.1846 16.8621 13.2509 16.8664 13.3161 16.8578C13.3813 16.8493 13.4442 16.8279 13.5012 16.795C13.5582 16.7621 13.6081 16.7183 13.6481 16.6661C13.6881 16.6139 13.7174 16.5543 13.7344 16.4908C13.7514 16.4273 13.7557 16.361 13.747 16.2958C13.7383 16.2306 13.7169 16.1678 13.684 16.1109L13.1836 15.244C13.1171 15.1292 13.0078 15.0456 12.8796 15.0114C12.829 14.9977 12.7766 14.9921 12.7243 14.9948Z" fill="black"/>
<path d="M5.27588 14.9948C5.22353 14.9921 5.17109 14.9977 5.12049 15.0114C4.99235 15.0456 4.88303 15.1292 4.81654 15.244L4.31616 16.1109C4.2832 16.1678 4.26178 16.2306 4.25313 16.2958C4.24447 16.361 4.24877 16.4273 4.26574 16.4908C4.28271 16.5543 4.31204 16.6139 4.35205 16.6661C4.39206 16.7183 4.44197 16.7621 4.49892 16.795C4.55589 16.8279 4.61879 16.8493 4.68403 16.8578C4.74926 16.8664 4.81555 16.8621 4.87909 16.845C4.94264 16.8279 5.00218 16.7985 5.05433 16.7584C5.10649 16.7183 5.15023 16.6683 5.18303 16.6112L5.68341 15.7444C5.74959 15.6294 5.7674 15.4929 5.73295 15.3648C5.6985 15.2367 5.6146 15.1275 5.49968 15.0612C5.43136 15.0217 5.35468 14.999 5.27588 14.9948Z" fill="black"/>
<path d="M15.4941 12.2493C15.4063 12.2493 15.3201 12.2725 15.2441 12.3164C15.1681 12.3603 15.105 12.4234 15.0611 12.4995C14.9948 12.6143 14.9769 12.7508 15.0111 12.8788C15.0454 13.0069 15.1291 13.1162 15.2439 13.1826L16.1107 13.683C16.2256 13.7492 16.362 13.7672 16.4901 13.7329C16.6182 13.6987 16.7274 13.615 16.7939 13.5002C16.8268 13.4433 16.8483 13.3805 16.8569 13.3153C16.8656 13.2501 16.8613 13.1838 16.8443 13.1203C16.8273 13.0567 16.798 12.9972 16.758 12.945C16.718 12.8928 16.6681 12.849 16.6111 12.8161L15.7442 12.3157C15.6681 12.272 15.5818 12.2491 15.4941 12.2493Z" fill="black"/>
<path d="M2.50661 12.2493C2.41882 12.2491 2.33254 12.272 2.25642 12.3157L1.38955 12.8161C1.33259 12.849 1.28269 12.8928 1.24267 12.945C1.20266 12.9972 1.17334 13.0567 1.15637 13.1203C1.13939 13.1838 1.1351 13.2501 1.14375 13.3153C1.15241 13.3805 1.17383 13.4433 1.20679 13.5002C1.27321 13.615 1.38246 13.6987 1.51055 13.7329C1.63863 13.7672 1.77508 13.7492 1.88993 13.683L2.7568 13.1826C2.87155 13.1162 2.95525 13.0069 2.98952 12.8788C3.02378 12.7508 3.00581 12.6143 2.93955 12.4995C2.89567 12.4234 2.83257 12.3603 2.75658 12.3164C2.68059 12.2725 2.59437 12.2493 2.50661 12.2493Z" fill="black"/>
<path d="M16.4987 8.49951C16.366 8.49951 16.2387 8.55224 16.1449 8.64608C16.051 8.73992 15.9983 8.86718 15.9983 8.99989C15.9983 9.1326 16.051 9.25988 16.1449 9.35372C16.2387 9.44756 16.366 9.50027 16.4987 9.50027H17.4994C17.6321 9.50027 17.7594 9.44756 17.8532 9.35372C17.9471 9.25988 17.9998 9.1326 17.9998 8.99989C17.9998 8.86718 17.9471 8.73992 17.8532 8.64608C17.7594 8.55224 17.6321 8.49951 17.4994 8.49951H16.4987Z" fill="black"/>
<path d="M0.500381 8.49951C0.367671 8.49951 0.240405 8.55224 0.146565 8.64608C0.0527258 8.73992 0 8.86718 0 8.99989C0 9.1326 0.0527258 9.25988 0.146565 9.35372C0.240405 9.44756 0.367671 9.50027 0.500381 9.50027H1.50114C1.63385 9.50027 1.76112 9.44756 1.85496 9.35372C1.9488 9.25988 2.00152 9.1326 2.00152 8.99989C2.00152 8.86718 1.9488 8.73992 1.85496 8.64608C1.76112 8.55224 1.63385 8.49951 1.50114 8.49951H0.500381Z" fill="black"/>
<path d="M16.335 4.25039C16.2562 4.25458 16.1795 4.27736 16.1112 4.31685L15.2443 4.81723C15.1873 4.85011 15.1374 4.8939 15.0974 4.94609C15.0574 4.99829 15.0281 5.05786 15.0111 5.1214C14.9941 5.18493 14.9898 5.25119 14.9985 5.31638C15.0071 5.38158 15.0286 5.44443 15.0615 5.50134C15.1279 5.6161 15.2372 5.69979 15.3653 5.73406C15.4934 5.76833 15.6298 5.75036 15.7447 5.6841L16.6115 5.18372C16.7263 5.1173 16.81 5.00804 16.8443 4.87996C16.8785 4.75187 16.8606 4.61542 16.7943 4.50058C16.7615 4.44358 16.7177 4.3936 16.6656 4.35352C16.6134 4.31345 16.5539 4.28405 16.4903 4.267C16.4397 4.25336 16.3873 4.24775 16.335 4.25039Z" fill="black"/>
<path d="M1.63932 4.25025C1.55155 4.25031 1.46533 4.27348 1.38934 4.31739C1.31335 4.3613 1.25025 4.42443 1.20637 4.50044C1.14011 4.61528 1.12214 4.75173 1.15641 4.87981C1.19067 5.0079 1.27437 5.11715 1.38913 5.18357L2.256 5.68395C2.37084 5.75022 2.50729 5.76818 2.63537 5.73392C2.76346 5.69965 2.87271 5.61595 2.93913 5.5012C2.9721 5.44429 2.99352 5.38144 3.00217 5.31624C3.01082 5.25105 3.00653 5.18479 2.98956 5.12125C2.97258 5.05772 2.94326 4.99814 2.90325 4.94595C2.86323 4.89376 2.81333 4.84997 2.75638 4.81708L1.88951 4.3167C1.81338 4.27299 1.7271 4.25007 1.63932 4.25025Z" fill="black"/>
<path d="M9.00017 2.99561C5.68987 2.99561 2.99561 5.68987 2.99561 9.00017C2.99561 10.2537 3.38139 11.4219 4.04035 12.3856C4.07741 12.4399 4.12481 12.4864 4.17986 12.5223C4.2349 12.5583 4.29649 12.5831 4.36112 12.5953C4.42574 12.6074 4.49213 12.6067 4.55648 12.5932C4.62084 12.5797 4.68191 12.5536 4.73619 12.5165C4.79043 12.4794 4.83681 12.4319 4.8727 12.3768C4.90859 12.3218 4.93329 12.2602 4.94536 12.1955C4.95743 12.1309 4.95666 12.0645 4.94307 12.0002C4.92948 11.9359 4.90334 11.8749 4.86617 11.8207C4.31682 11.0173 3.99637 10.0489 3.99637 9.00017C3.99637 6.23073 6.23073 3.99637 9.00017 3.99637C11.7696 3.99637 14.004 6.23073 14.004 9.00017C14.004 11.7696 11.7696 14.004 9.00017 14.004C7.98635 14.004 7.0471 13.7042 6.25981 13.1879C6.20488 13.1519 6.14337 13.127 6.07882 13.1147C6.01427 13.1024 5.94795 13.1029 5.8836 13.1162C5.81926 13.1296 5.75818 13.1555 5.70384 13.1924C5.6495 13.2294 5.60296 13.2767 5.5669 13.3316C5.53088 13.3866 5.50604 13.4481 5.49381 13.5127C5.48159 13.5773 5.48221 13.6437 5.49565 13.708C5.50908 13.7724 5.53508 13.8334 5.57212 13.8877C5.60916 13.942 5.65653 13.9885 5.71154 14.0245C6.65604 14.6439 7.78836 15.0047 9.00017 15.0047C12.3105 15.0047 15.0047 12.3105 15.0047 9.00017C15.0047 5.68987 12.3105 2.99561 9.00017 2.99561Z" fill="black"/>
<path d="M13.2764 1.13955C13.2241 1.13691 13.1716 1.14252 13.121 1.15616C12.9929 1.19035 12.8836 1.27401 12.8171 1.38876L12.3167 2.25563C12.2505 2.3706 12.2327 2.50712 12.2672 2.63522C12.3016 2.76332 12.3855 2.87251 12.5004 2.93877C12.6153 3.00503 12.7517 3.023 12.8798 2.98873C13.0079 2.95447 13.1172 2.87077 13.1836 2.75601L13.684 1.88914C13.7502 1.7743 13.7682 1.63783 13.7339 1.50975C13.6997 1.38166 13.616 1.27242 13.5012 1.20601C13.4326 1.16637 13.3556 1.14359 13.2764 1.13955Z" fill="black"/>
<path d="M4.72523 1.13955C4.6461 1.14359 4.56906 1.16637 4.50045 1.20601C4.3857 1.27242 4.302 1.38168 4.26773 1.50976C4.23347 1.63785 4.25144 1.7743 4.3177 1.88914L4.81808 2.75601C4.8845 2.87077 4.99375 2.95447 5.12184 2.98873C5.24992 3.023 5.38637 3.00503 5.50122 2.93877C5.61614 2.87251 5.70003 2.76334 5.73449 2.63524C5.76894 2.50714 5.75113 2.3706 5.68495 2.25563L5.18457 1.38876C5.11808 1.27401 5.00876 1.19035 4.88063 1.15616C4.83002 1.14252 4.77758 1.13691 4.72523 1.13955Z" fill="black"/>
<path d="M8.99989 0C8.86718 0 8.73992 0.0527258 8.64608 0.146565C8.55224 0.240405 8.49951 0.367671 8.49951 0.500381V1.50114C8.49951 1.63385 8.55224 1.76112 8.64608 1.85496C8.73992 1.9488 8.86718 2.00152 8.99989 2.00152C9.1326 2.00152 9.25987 1.9488 9.35371 1.85496C9.44755 1.76112 9.50027 1.63385 9.50027 1.50114V0.500381C9.50027 0.367671 9.44755 0.240405 9.35371 0.146565C9.25987 0.0527258 9.1326 0 8.99989 0Z" fill="black"/>
</svg>
