<svg width="15" height="12" viewBox="0 0 15 12" fill="none" xmlns="http://www.w3.org/2000/svg">
<path d="M2.36842 0H12.6316C13.2597 0 13.8621 0.252856 14.3063 0.702944C14.7505 1.15303 15 1.76348 15 2.4V9.6C15 10.2365 14.7505 10.847 14.3063 11.2971C13.8621 11.7471 13.2597 12 12.6316 12H2.36842C1.74028 12 1.13786 11.7471 0.693695 11.2971C0.249529 10.847 0 10.2365 0 9.6V2.4C0 1.76348 0.249529 1.15303 0.693695 0.702944C1.13786 0.252856 1.74028 0 2.36842 0ZM2.36842 0.8C1.97368 0.8 1.62632 0.936 1.35789 1.176L7.5 5.2L13.6421 1.176C13.3737 0.936 13.0263 0.8 12.6316 0.8H2.36842ZM7.5 6.168L0.892105 1.824C0.828947 2 0.789474 2.2 0.789474 2.4V9.6C0.789474 10.0243 0.955827 10.4313 1.25194 10.7314C1.54805 11.0314 1.94966 11.2 2.36842 11.2H12.6316C13.0503 11.2 13.452 11.0314 13.7481 10.7314C14.0442 10.4313 14.2105 10.0243 14.2105 9.6V2.4C14.2105 2.2 14.1711 2 14.1079 1.824L7.5 6.168Z" fill="black"/>
</svg>
