<svg width="20" height="20" viewBox="0 0 20 20" fill="none" xmlns="http://www.w3.org/2000/svg">
<path d="M10 20C12.6522 20 15.1957 18.9464 17.0711 17.0711C18.9464 15.1957 20 12.6522 20 10C20 7.34784 18.9464 4.8043 17.0711 2.92893C15.1957 1.05357 12.6522 0 10 0C7.34784 0 4.8043 1.05357 2.92893 2.92893C1.05357 4.8043 0 7.34784 0 10C0 12.6522 1.05357 15.1957 2.92893 17.0711C4.8043 18.9464 7.34784 20 10 20ZM6.41016 12.7148C7.10938 13.5234 8.30469 14.375 10 14.375C11.6953 14.375 12.8906 13.5234 13.5898 12.7148C13.8164 12.4531 14.2109 12.4258 14.4727 12.6523C14.7344 12.8789 14.7617 13.2734 14.5352 13.5352C13.6641 14.5352 12.1523 15.625 10 15.625C7.84766 15.625 6.33594 14.5352 5.46484 13.5352C5.23828 13.2734 5.26562 12.8789 5.52734 12.6523C5.78906 12.4258 6.18359 12.4531 6.41016 12.7148ZM5.64062 8.125C5.64062 7.79348 5.77232 7.47554 6.00674 7.24112C6.24116 7.0067 6.5591 6.875 6.89062 6.875C7.22215 6.875 7.54009 7.0067 7.77451 7.24112C8.00893 7.47554 8.14062 7.79348 8.14062 8.125C8.14062 8.45652 8.00893 8.77446 7.77451 9.00888C7.54009 9.2433 7.22215 9.375 6.89062 9.375C6.5591 9.375 6.24116 9.2433 6.00674 9.00888C5.77232 8.77446 5.64062 8.45652 5.64062 8.125ZM13.1406 6.875C13.4721 6.875 13.7901 7.0067 14.0245 7.24112C14.2589 7.47554 14.3906 7.79348 14.3906 8.125C14.3906 8.45652 14.2589 8.77446 14.0245 9.00888C13.7901 9.2433 13.4721 9.375 13.1406 9.375C12.8091 9.375 12.4912 9.2433 12.2567 9.00888C12.0223 8.77446 11.8906 8.45652 11.8906 8.125C11.8906 7.79348 12.0223 7.47554 12.2567 7.24112C12.4912 7.0067 12.8091 6.875 13.1406 6.875Z" fill="#FFCA28"/>
</svg>
