<svg width="28" height="28" viewBox="0 0 28 28" fill="none" xmlns="http://www.w3.org/2000/svg">
<path d="M24.8864 25.5075C24.5169 25.3453 24.0448 25.1729 23.5458 25.0057C24.0311 24.8149 24.4871 24.54 24.8895 24.1928C25.8039 23.4038 26.3749 22.2914 26.4561 21.1409C26.5292 20.1047 26.2065 19.1183 25.5473 18.3637C25.38 18.1721 25.1944 17.9993 24.9927 17.8467C25.7862 17.5335 27.389 16.6913 27.6651 14.9264C27.8595 13.6834 27.3537 12.8809 26.8303 12.3992C26.9992 11.6844 27.0858 10.947 27.0858 10.2045C27.0858 5.10684 23.0614 0.959603 18.1146 0.959603C13.2249 0.959603 9.23682 5.01184 9.14544 10.0285L7.36671 7.5808C6.96843 7.03274 6.3152 6.71452 5.63986 6.72979L4.78503 5.55346C3.57613 3.88995 2.78635 2.131 2.37063 0.176044C2.34513 0.0559877 2.22713 -0.0205682 2.10707 0.00493194C1.98702 0.030432 1.91041 0.148433 1.93596 0.268489C2.36491 2.28561 3.17924 4.09978 4.42553 5.81473L5.4692 7.25091C5.41503 7.37791 5.28275 7.61624 4.99381 7.82369C4.70292 8.03252 4.43169 8.0818 4.29436 8.09263L3.24997 6.65546C1.80329 4.66478 0.884402 2.54705 0.440733 0.181322C0.418066 0.0606544 0.301732 -0.0188459 0.181343 0.00387638C0.0607315 0.0264876 -0.0187688 0.142655 0.0038424 0.263211C0.459955 2.69511 1.40413 4.87151 2.89035 6.91674L3.74441 8.09202C3.51741 8.72558 3.6168 9.4417 4.01514 9.98986L6.54437 13.4703C6.88059 13.933 7.22387 14.2056 7.52687 14.4461C7.78154 14.6484 8.00154 14.8231 8.18782 15.0794C8.38877 15.3559 8.48221 15.6351 8.5811 15.9306C8.6856 16.2427 8.79366 16.5656 9.03143 16.8928L9.78355 17.9278C9.3591 18.7035 9.3266 19.4337 9.69994 19.9475C9.99772 20.3574 10.5027 20.558 11.1052 20.558C11.6555 20.558 12.2872 20.3899 12.9162 20.0613C13.3739 20.6154 13.8751 21.0927 14.4093 21.4799C14.8223 21.7793 15.2517 22.024 15.6956 22.2145V23.5746C15.6956 23.8881 15.4833 24.166 15.1792 24.2507C14.1871 24.5266 12.3694 25.0568 11.3424 25.5074C9.88249 26.148 8.36338 27.5557 8.29943 27.6153C8.20971 27.6989 8.20476 27.8395 8.28838 27.9293C8.33215 27.9763 8.39149 28 8.45104 28C8.50532 28 8.55965 27.9803 8.60249 27.9404C8.6176 27.9263 10.1312 26.5243 11.5211 25.9143C12.5228 25.4748 14.3176 24.9515 15.2983 24.6788C15.794 24.5409 16.1401 24.0868 16.1401 23.5745V22.385C16.7725 22.6002 17.432 22.7093 18.1144 22.7093C18.7964 22.7093 19.456 22.5997 20.0887 22.3843V23.5745C20.0887 24.0868 20.4349 24.5409 20.9305 24.6787C21.9112 24.9515 23.7059 25.4747 24.7077 25.9143C26.0977 26.5242 27.6112 27.9262 27.6263 27.9403C27.6691 27.9802 27.7235 27.9999 27.7777 27.9999C27.8372 27.9999 27.8966 27.9762 27.9403 27.9292C28.024 27.8394 28.0191 27.6989 27.9293 27.6152C27.8655 27.5558 26.3464 26.1482 24.8864 25.5075ZM27.2259 14.8578C26.9964 16.3248 25.6474 17.0854 24.913 17.3955C25.5801 15.8395 25.9701 14.0723 26.0167 12.3494C26.1804 12.4409 26.3921 12.5813 26.5953 12.7817C27.1445 13.3234 27.3567 14.0218 27.2259 14.8578ZM10.8586 13.0334C10.7836 12.9182 10.7238 12.8007 10.6702 12.6783C10.6582 12.4529 10.6517 12.2255 10.6517 12.0016C10.6517 7.13596 13.9995 3.1775 18.1145 3.1775C22.2295 3.1775 25.5774 7.13596 25.5774 12.0016C25.5774 12.5173 25.5446 13.0387 25.4816 13.5584C25.1342 11.7386 24.4279 10.0019 23.4652 8.64514C22.0451 6.64391 20.1949 5.58607 18.1145 5.58607C16.2602 5.58607 14.5651 6.44224 13.2125 8.06202C12.1282 9.36047 11.3013 11.1123 10.8586 13.0334ZM9.58766 10.2045C9.58766 5.3519 13.4128 1.40405 18.1145 1.40405C22.8162 1.40405 26.6414 5.3519 26.6414 10.2045C26.6414 10.8428 26.5744 11.4771 26.4434 12.0951C26.2747 11.982 26.1242 11.9033 26.0202 11.8546C25.9529 6.81146 22.4327 2.73305 18.1145 2.73305C13.875 2.73305 10.4045 6.66424 10.2158 11.58C10.1306 11.415 10.0274 11.2422 9.89594 11.0613L9.59921 10.6529C9.59199 10.5041 9.58766 10.3538 9.58766 10.2045ZM5.25292 8.18475C5.49536 8.01075 5.6552 7.8153 5.75886 7.64952L6.24903 8.32402C6.19464 8.45125 6.06198 8.68969 5.77348 8.8968C5.48309 9.10525 5.21186 9.15492 5.0742 9.16592L4.58519 8.49297C4.77558 8.44725 5.01131 8.35819 5.25292 8.18475ZM6.90387 13.209L4.37469 9.72859C4.1233 9.38264 4.02325 8.96586 4.08303 8.55797L4.78236 9.52031C4.82042 9.57264 4.87936 9.60581 4.94381 9.61114C4.94764 9.61147 4.96697 9.61292 4.9992 9.61286C5.14975 9.61286 5.58181 9.58153 6.0327 9.25781C6.58053 8.86458 6.70798 8.3613 6.71315 8.34008C6.72854 8.27669 6.71531 8.20975 6.67704 8.15697L5.98192 7.20041C6.38898 7.27507 6.76031 7.50241 7.0072 7.84208L9.53644 11.3225C9.77766 11.6545 9.91227 11.954 10.0236 12.2409C9.90977 12.4404 9.57588 12.9667 9.02077 13.3653C8.46404 13.7648 7.85449 13.9142 7.62921 13.9585C7.38976 13.763 7.14559 13.5416 6.90387 13.209ZM9.00266 15.7896C8.89738 15.4752 8.78854 15.15 8.54743 14.8182C8.39865 14.6135 8.23543 14.4557 8.06321 14.3096C8.39065 14.2138 8.84549 14.0382 9.27994 13.7263C9.71583 13.4134 10.0272 13.038 10.2217 12.7587C10.3074 12.9684 10.4071 13.1732 10.5567 13.3791C10.7978 13.7108 11.0741 13.9156 11.3412 14.1137C11.5572 14.2739 11.7627 14.4266 11.9424 14.6414C11.8159 14.8801 11.4719 15.4455 10.8544 15.8887C10.2388 16.3307 9.58577 16.4786 9.31805 16.5233C9.16905 16.2861 9.08777 16.0439 9.00266 15.7896ZM13.0161 16.111C13.1302 16.2681 13.1566 16.4738 13.0849 16.648C12.9727 16.9206 12.7251 17.3272 12.1828 17.7165C11.6401 18.106 11.1734 18.2118 10.8774 18.2321C10.6881 18.2446 10.4983 18.1551 10.3836 17.9974L9.60149 16.9211C9.96683 16.8391 10.5493 16.6548 11.1137 16.2497C11.6792 15.8437 12.0388 15.3508 12.2318 15.0317L13.0161 16.111ZM10.0596 19.6864C9.82305 19.3609 9.83488 18.8675 10.0802 18.3285C10.2722 18.5484 10.5527 18.6778 10.8417 18.6778C10.8637 18.6778 10.8857 18.677 10.9077 18.6755C11.2613 18.6513 11.8144 18.5281 12.4419 18.0776C13.0697 17.627 13.3616 17.1435 13.496 16.8172C13.6142 16.5298 13.5862 16.1972 13.4265 15.9278C14.019 15.8662 14.4942 16.0103 14.7311 16.3362C14.8827 16.5449 14.9355 16.825 14.8837 17.1462C14.7686 17.8602 14.1713 18.681 13.325 19.2885C12.0588 20.1975 10.5634 20.3796 10.0596 19.6864ZM14.6702 21.1202C14.1848 20.7684 13.727 20.337 13.3063 19.8363C13.3994 19.7774 13.4922 19.7155 13.5842 19.6495C14.5372 18.9653 15.1871 18.056 15.3224 17.217C15.3934 16.7763 15.3133 16.3814 15.0905 16.0749C14.7174 15.5615 14.0101 15.3628 13.1361 15.5201L12.383 14.4838C12.1453 14.1567 11.871 13.9533 11.6058 13.7567C11.4727 13.6579 11.3437 13.5617 11.2216 13.4522C11.9859 9.73797 14.3983 6.03051 18.1145 6.03051C22.2399 6.03051 24.8552 10.636 25.2314 14.9846C24.9496 16.2072 24.503 17.3807 23.9175 18.4025C23.2384 19.5876 22.4129 20.5247 21.4639 21.1877C20.4407 21.9026 19.3139 22.2651 18.1145 22.2651C16.8771 22.2651 15.7183 21.8799 14.6702 21.1202ZM20.5333 23.5747V22.2137C20.941 22.0388 21.3367 21.8188 21.7185 21.552C22.7217 20.8511 23.5913 19.8657 24.3032 18.6233C24.4007 18.4532 24.4943 18.2789 24.5842 18.1011C24.8165 18.2583 25.0273 18.444 25.2126 18.6561C25.7933 19.3209 26.0774 20.1922 26.0127 21.1096C25.9398 22.1429 25.4246 23.144 24.5991 23.8563C24.0803 24.3039 23.4638 24.6184 22.8131 24.769C22.155 24.5635 21.5126 24.3794 21.0498 24.2507C20.7457 24.1661 20.5333 23.8881 20.5333 23.5747ZM21.7175 14.3082C20.6239 14.3082 20.0311 13.8546 20.0064 13.8353C19.9096 13.7597 19.8925 13.62 19.9681 13.5234C20.0434 13.427 20.1823 13.4095 20.2792 13.4844C20.2889 13.4918 20.7917 13.8637 21.7176 13.8637C22.6479 13.8637 23.1511 13.4881 23.156 13.4843C23.2534 13.4103 23.3927 13.4281 23.4673 13.5248C23.542 13.6215 23.525 13.76 23.4288 13.8353C23.4161 13.8452 23.2541 13.969 22.9525 14.0874L23.2512 14.4363C23.331 14.5295 23.32 14.6698 23.2268 14.7496C23.1849 14.7855 23.1335 14.803 23.0824 14.803C23.0198 14.803 22.9574 14.7766 22.9135 14.7253L22.4874 14.2274C22.2674 14.2754 22.0107 14.3082 21.7175 14.3082ZM20.3209 10.6423C20.2876 10.5241 20.3565 10.4014 20.4746 10.3681C21.4676 10.0887 22.2316 10.2976 22.746 10.989C22.8193 11.0875 22.7989 11.2267 22.7004 11.3C22.6606 11.3296 22.614 11.3439 22.5679 11.3439C22.5 11.3439 22.4331 11.313 22.3895 11.2544C21.9907 10.7184 21.4037 10.5683 20.595 10.796C20.4767 10.8291 20.3542 10.7604 20.3209 10.6423ZM16.2612 13.5248C16.3359 13.6215 16.319 13.76 16.2227 13.8353C16.198 13.8547 15.6051 14.3082 14.5116 14.3082C14.2185 14.3082 13.9617 14.2755 13.7418 14.2274L13.3157 14.7253C13.2718 14.7767 13.2095 14.803 13.1468 14.803C13.0957 14.803 13.0443 14.7855 13.0024 14.7496C12.9091 14.6698 12.8982 14.5295 12.9781 14.4363L13.2767 14.0874C12.9751 13.9689 12.8131 13.8452 12.8004 13.8353C12.7037 13.7598 12.6866 13.6201 12.7622 13.5234C12.8376 13.4268 12.9773 13.4095 13.0741 13.4852C13.078 13.4882 13.5812 13.8638 14.5116 13.8638C15.4419 13.8638 15.9451 13.4882 15.95 13.4844C16.0473 13.4103 16.1866 13.4281 16.2612 13.5248ZM13.4831 10.989C13.9975 10.2976 14.7616 10.0888 15.7545 10.3681C15.8726 10.4014 15.9415 10.5241 15.9082 10.6423C15.875 10.7604 15.7524 10.8291 15.6341 10.796C14.8253 10.5683 14.2385 10.7184 13.8396 11.2544C13.796 11.313 13.729 11.3439 13.6612 11.3439C13.6151 11.3439 13.5686 11.3296 13.5287 11.3C13.4302 11.2267 13.4098 11.0875 13.4831 10.989ZM19.5354 15.139C19.5154 15.1663 19.0325 15.8069 18.1146 15.8069C17.1966 15.8069 16.7138 15.1663 16.6937 15.139C16.6209 15.0402 16.642 14.9011 16.7408 14.8283C16.8395 14.7555 16.9787 14.7765 17.0515 14.8753C17.0659 14.8943 17.4273 15.3626 18.1146 15.3626C18.8019 15.3626 19.1634 14.8943 19.1785 14.8743C19.2522 14.7768 19.3913 14.7566 19.4891 14.8296C19.587 14.9027 19.6079 15.0407 19.5354 15.139Z" fill="#E63D00"/>
</svg>
