<svg width="18" height="19" viewBox="0 0 18 19" fill="none" xmlns="http://www.w3.org/2000/svg">
<path d="M11.2445 11.6238C10.8264 10.7481 10.1405 10.1688 9.18692 9.88601C8.23333 9.60316 7.24771 9.46206 6.23008 9.46271C5.2181 9.46271 4.22778 9.60381 3.25912 9.88601C2.28982 10.1688 1.60868 10.7481 1.21569 11.6238H11.2445ZM0.000941825 12.5924C0.000941825 11.1801 0.648496 10.144 1.9436 9.48402C3.23871 8.82405 4.66754 8.49406 6.23008 8.49406C7.79262 8.49406 9.22145 8.82405 10.5166 9.48402C11.8117 10.144 12.4592 11.1801 12.4592 12.5924H0.000941825ZM0.000941825 15.7957V14.8271H12.4592V15.7957H0.000941825ZM14.3416 19V18.0314H15.66L16.9783 4.84323H8.49291L8.36579 3.87459H12.7116V0H13.6533V3.87459H18L16.5913 18.1176C16.5561 18.3843 16.4437 18.598 16.2541 18.7588C16.0646 18.9196 15.8401 19 15.5809 19H14.3416ZM0.580068 19C0.41559 19 0.277792 18.9429 0.166675 18.8286C0.0555585 18.7142 0 18.5728 0 18.4043V18.0314H12.4592V18.4043C12.4592 18.5728 12.4037 18.7142 12.2925 18.8286C12.1814 18.9429 12.0439 19 11.8801 19H0.580068Z" fill="black"/>
</svg>
