<svg width="14" height="14" viewBox="0 0 14 14" fill="none" xmlns="http://www.w3.org/2000/svg">
<path d="M12 9.05V4.5C12 3.83696 11.7366 3.20107 11.2678 2.73223C10.7989 2.26339 10.163 2 9.5 2H7.71L8.85 0.85C9.05 0.66 9.05 0.34 8.85 0.15C8.66 -0.05 8.34 -0.05 8.15 0.15L6.15 2.15C5.95 2.34 5.95 2.66 6.15 2.85L8.15 4.85C8.34 5.05 8.66 5.05 8.85 4.85C9.05 4.66 9.05 4.34 8.85 4.15L7.71 3H9.5C10.33 3 11 3.67 11 4.5V9.05C10.393 9.17391 9.85359 9.51879 9.4864 10.0178C9.11922 10.5168 8.95039 11.1344 9.01266 11.7508C9.07493 12.3672 9.36386 12.9385 9.82342 13.354C10.283 13.7695 10.8805 13.9995 11.5 13.9995C12.1195 13.9995 12.717 13.7695 13.1766 13.354C13.6361 12.9385 13.9251 12.3672 13.9873 11.7508C14.0496 11.1344 13.8808 10.5168 13.5136 10.0178C13.1464 9.51879 12.607 9.17391 12 9.05ZM11.5 13C10.67 13 10 12.33 10 11.5C10 10.67 10.67 10 11.5 10C12.33 10 13 10.67 13 11.5C13 12.33 12.33 13 11.5 13ZM5 2.5C4.9999 2.02698 4.86562 1.5637 4.61273 1.16396C4.35985 0.76422 3.99875 0.444423 3.57137 0.241713C3.14399 0.0390034 2.66788 -0.0383006 2.19832 0.0187795C1.72876 0.0758597 1.28503 0.264982 0.918664 0.56418C0.552298 0.863378 0.278333 1.26037 0.128586 1.70906C-0.0211615 2.15775 -0.0405444 2.63971 0.0726879 3.09897C0.18592 3.55823 0.427121 3.97595 0.768277 4.3036C1.10943 4.63125 1.53654 4.8554 2 4.95V9.051C0.86 9.283 1.99236e-07 10.293 1.99236e-07 11.5C1.99236e-07 12.879 1.122 14 2.5 14C3.878 14 5 12.879 5 11.5C5 10.292 4.14 9.283 3 9.051V4.95C3.56468 4.83473 4.0722 4.52791 4.43665 4.08145C4.80111 3.63499 5.00012 3.07633 5 2.5ZM1 2.5C1 1.67 1.67 1 2.5 1C3.33 1 4 1.67 4 2.5C4 3.33 3.33 4 2.5 4C1.67 4 1 3.33 1 2.5ZM4 11.5C4 12.327 3.327 13 2.5 13C1.673 13 1 12.327 1 11.5C1 10.673 1.673 10 2.5 10C3.327 10 4 10.673 4 11.5Z" fill="black"/>
</svg>
