<svg width="22" height="15" viewBox="0 0 22 15" fill="none" xmlns="http://www.w3.org/2000/svg">
<path d="M10.3333 3.33333C8.22042 3.84208 6.41042 5.51292 5.32083 6.39292C5.0065 6.10166 4.67523 5.82924 4.32875 5.57708C2.81375 4.47042 1 4.33333 1 4.33333C1 4.33333 1.47375 6.48042 2.72333 7.65958C1.47375 8.83917 1 10.9862 1 10.9862C1 10.9862 2.81375 10.8492 4.32875 9.7425C4.6723 9.49252 5.00079 9.22246 5.3125 8.93375C6.4 9.81458 8.21833 11.4896 10.3333 12L9.66667 14.3333C11.3096 14.0554 12.9525 12.8537 13.6133 12.3229C19 12.0833 21 8.625 21 7.66667C21 6.75 19 3.25 13.6296 3.01125C12.98 2.49083 11.3233 1.28 9.66667 1L10.3333 3.33333Z" stroke="black" stroke-linejoin="round"/>
<path d="M17.6667 7.66634C18.0349 7.66634 18.3333 7.36786 18.3333 6.99967C18.3333 6.63148 18.0349 6.33301 17.6667 6.33301C17.2985 6.33301 17 6.63148 17 6.99967C17 7.36786 17.2985 7.66634 17.6667 7.66634Z" fill="black"/>
<path d="M16.0981 11.8333C15.3635 10.5676 14.9766 9.13013 14.9766 7.66667C14.9766 6.2032 15.3635 4.76574 16.0981 3.5" stroke="black" stroke-miterlimit="20" stroke-linecap="round"/>
</svg>
