<svg width="27" height="19" viewBox="0 0 27 19" fill="none" xmlns="http://www.w3.org/2000/svg">
<path d="M6.96143 3.75898C6.94149 3.81388 6.88964 3.84917 6.83248 3.84917C6.81785 3.84917 6.80323 3.84655 6.78861 3.84133C6.65832 3.79689 6.53202 3.75245 6.4044 3.70932C6.08268 3.76813 5.80218 3.89622 5.53229 4.02169C5.18399 4.18377 4.85428 4.33669 4.45946 4.33669C4.4209 4.33669 4.38102 4.33538 4.34114 4.33146C4.26669 4.32623 4.21085 4.26088 4.21617 4.18769C4.22148 4.11449 4.28796 4.0596 4.36241 4.06483C4.73865 4.09489 5.05237 3.9485 5.41533 3.77859C5.58683 3.69886 5.76363 3.61913 5.95374 3.55247C5.53894 3.41001 5.13347 3.2793 4.72268 3.17475C4.4661 3.25578 4.24274 3.34989 4.046 3.43354C3.70301 3.57992 3.39991 3.70932 3.05423 3.70932C2.99307 3.70932 2.93192 3.7054 2.86811 3.69625C2.79366 3.68579 2.74181 3.61913 2.75245 3.54594C2.76308 3.47275 2.83089 3.42178 2.90533 3.43223C3.25629 3.47928 3.5581 3.35119 3.93832 3.18782C4.03138 3.14861 4.13109 3.10678 4.23611 3.06496C3.57273 2.93817 2.86946 2.89504 2.04919 3.00353C1.97474 3.01398 1.90694 2.9617 1.8963 2.88851C1.88567 2.81532 1.93884 2.74866 2.01329 2.7382C2.64213 2.65455 3.20048 2.65717 3.72558 2.71598C3.6312 2.62972 3.54877 2.54607 3.47299 2.46634C3.26959 2.25461 3.12337 2.103 2.84283 2.04288C2.76971 2.02719 2.72318 1.95661 2.73913 1.88472C2.75508 1.81284 2.8282 1.76709 2.89999 1.78278C3.26293 1.85989 3.45171 2.05594 3.67106 2.28337C3.82394 2.44152 3.9981 2.62188 4.26797 2.79704C4.42484 2.8271 4.57906 2.86109 4.73328 2.9003C4.74125 2.9003 4.7479 2.90422 4.75588 2.90552C5.01113 2.96957 5.26372 3.04276 5.51632 3.1238C5.35546 2.88461 5.22916 2.63629 5.12415 2.42321C5.03109 2.235 4.94468 2.05723 4.87688 1.99453C4.82237 1.94355 4.81971 1.85991 4.87156 1.80632C4.92341 1.75273 5.00849 1.75011 5.063 1.80109C5.1667 1.89781 5.25577 2.07818 5.36877 2.3082C5.51634 2.60751 5.6998 2.9774 5.97232 3.27539C6.11058 3.32244 6.24884 3.3695 6.38977 3.41917C6.54931 3.47406 6.7115 3.53157 6.87768 3.58777C6.94814 3.6113 6.98669 3.68841 6.96143 3.75769L6.96143 3.75898ZM9.80908 8.85491C10.1042 8.58174 10.4871 8.46805 10.858 8.54122C11.1664 8.60265 11.4203 8.79217 11.5347 9.04703C11.5573 9.0967 11.6065 9.12676 11.6583 9.12676C11.6769 9.12676 11.6955 9.12284 11.7128 9.115C11.782 9.08494 11.8125 9.00652 11.782 8.93855C11.6317 8.60395 11.3047 8.35822 10.9098 8.2798C10.4512 8.1883 9.98189 8.32685 9.62161 8.66013C9.56711 8.71111 9.56445 8.79475 9.61629 8.84834C9.66814 8.90193 9.75323 8.90455 9.80773 8.85357L9.80908 8.85491ZM10.8035 4.80326C11.0295 4.6425 11.4017 4.58761 11.7062 4.66864C11.8976 4.71961 12.1542 4.8464 12.2965 5.1614C12.3191 5.21107 12.3682 5.24113 12.4201 5.24113C12.4387 5.24113 12.4573 5.23721 12.4746 5.22937C12.5437 5.19931 12.5743 5.12089 12.5437 5.05292C12.3576 4.6425 12.0239 4.47782 11.7766 4.41116C11.3911 4.30922 10.9364 4.37979 10.644 4.5863C10.5828 4.62944 10.5695 4.71309 10.6134 4.77321C10.6573 4.83333 10.7424 4.8464 10.8035 4.80326ZM26.9881 8.84453C26.8858 11.5265 25.212 14.6649 22.883 15.058C21.8328 15.2358 21.4991 15.0358 21.2558 14.8894C21.1455 14.8228 21.0856 14.7862 20.9686 14.7901C20.7666 14.7966 20.6031 14.8829 20.4129 14.9822C20.1564 15.1168 19.8652 15.2711 19.4198 15.2711C19.0702 15.2711 18.6249 15.177 18.0266 14.9051C17.3592 14.6018 16.7384 14.1365 16.2026 13.5406C16.4366 14.0124 16.5017 14.5535 16.3674 15.0802C16.2186 15.6697 15.8436 16.1677 15.3145 16.4801C15.0766 16.6212 14.8187 16.7114 14.5541 16.7611C14.5514 16.9336 14.5341 17.1061 14.4916 17.2747C14.2297 18.3086 13.2831 19 12.2462 19C12.0614 19 11.8739 18.9778 11.6878 18.932C10.8569 18.7281 10.2454 18.1047 10.0247 17.3479C9.77211 17.4368 9.50491 17.4838 9.23635 17.4838C9.04757 17.4838 8.85878 17.4616 8.67401 17.4159C8.07046 17.2682 7.55996 16.897 7.23957 16.3729C6.91917 15.8488 6.82477 15.2318 6.97501 14.6385C7.01224 14.4908 7.06409 14.3496 7.12923 14.2137C7.03883 14.2228 6.94842 14.2359 6.85669 14.2359C6.64797 14.2359 6.43791 14.2111 6.23054 14.1601C4.85324 13.8229 4.01173 12.4466 4.35472 11.0925C4.52489 10.422 4.95429 9.86259 5.5512 9.52016C5.33583 9.34241 5.14838 9.13066 4.99949 8.88757C4.64452 8.30855 4.54214 7.62761 4.70701 6.97146C5.05 5.61738 6.4499 4.79005 7.8272 5.12726C7.85778 5.1351 7.88569 5.14687 7.91627 5.15601C7.77668 4.85017 7.66235 4.51426 7.56797 4.16005C7.33931 4.19534 7.13592 4.3744 6.86869 4.61099C6.36482 5.05928 5.67486 5.6723 4.27363 5.6723C4.17393 5.6723 4.0915 5.5978 4.08353 5.49977C4.07954 5.45795 4.12208 5.27627 4.16595 5.09722C3.6807 5.23184 3.0213 5.25014 2.70755 5.25014C2.60252 5.25014 2.51744 5.16649 2.51744 5.06324V5.01749C2.51744 4.86326 2.51744 4.73648 2.54403 4.59663C2.50282 4.59794 2.46293 4.59924 2.42172 4.60055C2.21566 4.60709 2.00161 4.61362 1.85939 4.64368C1.80355 4.65545 1.74506 4.64107 1.69986 4.60578C1.65466 4.57049 1.6294 4.5169 1.6294 4.4607V4.37575C1.62807 4.23197 1.62807 4.10781 1.64934 3.97058C1.39409 3.94313 1.15347 3.87909 0.918163 3.81505C0.657595 3.74447 0.412969 3.67912 0.189642 3.67912C0.124498 3.67912 0.0646742 3.64644 0.0301098 3.59416C-0.00445461 3.54057 -0.00977388 3.47391 0.0168155 3.4164C0.22022 2.97333 0.631018 2.08062 1.84877 1.86236C1.72247 1.5526 1.70386 1.43234 1.70386 1.36308C1.70386 1.26766 1.77831 1.18663 1.87536 1.17748C2.67967 1.09644 2.95487 1.1252 3.29388 1.21146C3.24601 1.00887 3.22342 0.773607 3.38162 0.61939C3.41618 0.586715 3.46138 0.56711 3.50924 0.565801C3.96124 0.550117 4.22847 0.734409 4.46378 0.896478C4.50898 0.927847 4.55418 0.957907 4.59938 0.986662C4.61401 0.934381 4.63129 0.883409 4.64724 0.832433C4.66186 0.786686 4.67782 0.74094 4.69111 0.692581C4.71371 0.612853 4.78949 0.55665 4.87457 0.55665C5.23751 0.55665 5.49541 0.968373 5.74668 1.36701C5.76928 1.4023 5.79188 1.43759 5.81315 1.47288C5.83309 1.38401 5.85436 1.29644 5.87697 1.22586C5.89292 1.17488 5.93147 1.13306 5.98066 1.11084C6.03118 1.08862 6.08702 1.08862 6.13754 1.11084C6.79694 1.40622 7.08407 2.15776 7.33534 2.82435C7.27552 2.16037 7.28748 1.47552 7.38586 0.81937C7.38719 0.814142 7.38852 0.807607 7.38985 0.802379C7.56534 0.104441 8.20346 0.141013 8.50925 0.15801C8.56242 0.160624 8.61294 0.164545 8.64751 0.163238C8.86687 0.155396 8.98519 0.249501 9.04767 0.330537C9.279 0.632458 9.07692 1.23238 8.89878 1.76171C8.84294 1.92509 8.79109 2.08062 8.77115 2.17735C8.64087 2.80733 8.52122 3.94968 9.03704 4.9247C9.57678 3.9196 10.7626 3.3628 11.9339 3.64904C12.6012 3.81242 13.1636 4.22151 13.5185 4.80053C13.6967 5.09199 13.811 5.40829 13.8602 5.73506C14.2909 5.61481 14.7416 5.60044 15.1816 5.70761C15.2401 5.72199 15.2973 5.74029 15.3531 5.75858C15.9966 4.9077 16.9192 4.3078 18.1051 3.97973C18.238 3.94313 18.3749 3.91699 18.5132 3.89608C18.0572 3.88432 17.6105 3.77845 17.1878 3.56802C16.0365 2.99425 15.3119 1.76955 15.3425 0.448161C15.3438 0.394572 15.3678 0.343599 15.4103 0.309617C15.4515 0.275635 15.506 0.25995 15.5605 0.267792C16.4353 0.394575 16.9538 0.38804 17.455 0.382811C17.8126 0.378889 18.1503 0.374968 18.5863 0.419409C20.1152 0.576252 20.6177 1.30556 20.7958 1.93162C21.0298 1.03109 21.3369 0.249501 21.7065 0.0612893C21.7171 0.0560612 21.7264 0.0521399 21.7384 0.0482191C22.0349 -0.041965 22.4456 -0.049808 22.7169 0.424642C22.7182 0.427255 22.7195 0.428562 22.7208 0.431177C22.7341 0.446861 22.7448 0.465158 22.7528 0.484766C22.7754 0.542277 22.7674 0.607627 22.7315 0.658599C22.2157 1.39445 21.6001 2.87922 21.3289 4.08823C21.5563 4.06339 21.7836 4.0268 22.0069 3.98497C22.54 3.88564 23.0918 3.78369 23.6249 3.91439C24.8134 4.20717 25.7094 4.83976 26.2917 5.7952C26.7956 6.62386 27.0388 7.67862 26.995 8.84579L26.9881 8.84453ZM7.36034 3.82691C7.21277 3.5838 7.09844 3.28058 6.97879 2.96559C6.77406 2.42317 6.56266 1.86506 6.17713 1.57229C6.17447 1.58666 6.17049 1.60104 6.16783 1.61542C6.13991 1.74089 6.11199 1.86898 6.07743 1.96571C6.05616 2.02453 6.00697 2.07027 5.94448 2.08596C5.88333 2.10164 5.81686 2.08465 5.769 2.04283C5.65467 1.93957 5.54566 1.76574 5.41805 1.56445C5.30505 1.38408 5.13222 1.1109 4.9913 0.990683C4.95807 1.09263 4.93148 1.18412 4.93148 1.273C4.93148 1.33443 4.9009 1.39194 4.84905 1.42723C4.79721 1.46252 4.73206 1.47036 4.67357 1.44814C4.50473 1.3854 4.37046 1.29391 4.24151 1.20504C4.05406 1.07564 3.8892 0.963236 3.63129 0.943632C3.63129 0.998526 3.64858 1.09786 3.70042 1.27823C3.71904 1.34358 3.73632 1.40109 3.7443 1.45076C3.75493 1.51349 3.73233 1.57754 3.68314 1.62067C3.63528 1.6638 3.56748 1.67818 3.505 1.66118L3.38934 1.62981C2.99315 1.52003 2.82298 1.47297 2.12237 1.5331C2.15162 1.61675 2.19948 1.73961 2.27791 1.91735C2.29653 1.95786 2.30849 1.98793 2.3045 2.03629C2.29653 2.12647 2.22474 2.19705 2.13301 2.2049C1.13195 2.29769 0.705199 2.88717 0.473874 3.33547C0.652019 3.36291 0.83017 3.41127 1.01494 3.46094C1.29811 3.53675 1.58925 3.61517 1.88306 3.61517C1.94289 3.61517 2.00005 3.64393 2.03595 3.69098C2.07184 3.73934 2.08248 3.80077 2.06387 3.85697C2.01734 4.00336 2.0067 4.11576 2.00537 4.25169C2.133 4.24124 2.27126 4.23601 2.40554 4.23209C2.54247 4.22817 2.67009 4.22425 2.77912 4.21379C2.84426 4.20725 2.9094 4.23601 2.94929 4.28698C2.98917 4.33926 2.99848 4.40723 2.97455 4.46735C2.91074 4.62681 2.89744 4.73137 2.89345 4.87907C3.43853 4.866 4.08197 4.79673 4.33191 4.63205C4.40104 4.5863 4.49144 4.59022 4.55659 4.6412C4.61907 4.69086 4.64433 4.77451 4.61774 4.84901C4.60445 4.89214 4.54728 5.11956 4.50607 5.2973C5.60287 5.23457 6.15857 4.7405 6.61057 4.33925C6.86183 4.11575 7.08782 3.91448 7.3577 3.82822L7.36034 3.82691ZM21.0455 2.47808C20.8328 3.4113 20.6892 4.41379 20.6547 4.96143C20.7065 4.96535 20.7571 4.96666 20.8063 4.96666C20.8727 3.66878 21.6664 1.5735 22.3404 0.548962C22.2513 0.419566 22.1237 0.326769 21.8618 0.399962C21.6664 0.518901 21.354 1.12138 21.0455 2.47808ZM20.4912 3.32765C20.0378 3.60474 19.5686 3.78251 19.1006 3.85699C19.4994 3.86091 19.9235 3.92495 20.3782 4.04781C20.4101 3.82431 20.4473 3.58121 20.4912 3.32765ZM17.3537 3.23486C18.3149 3.71454 19.4303 3.59037 20.4446 2.90941C19.869 2.49116 19.0447 2.26112 18.3082 2.05722C17.8788 1.93828 17.472 1.82588 17.1623 1.68732C17.0945 1.65726 17.0639 1.57753 17.0945 1.51088C17.125 1.44422 17.2061 1.41416 17.2739 1.44422C17.5651 1.57361 17.9612 1.6834 18.3813 1.79973C19.1046 1.9997 19.9075 2.2245 20.5151 2.6297C20.4739 2.04415 20.3835 0.978925 18.5395 0.789409C18.1247 0.747584 17.7977 0.750198 17.4521 0.755427C17.0014 0.760656 16.4962 0.765883 15.7185 0.666551C15.7676 1.76313 16.3938 2.75518 17.3537 3.23355L17.3537 3.23486ZM13.8785 6.11685C13.8772 6.31682 13.8546 6.51679 13.8041 6.71548C13.6286 7.40819 13.1779 7.97805 12.5518 8.3179C12.6541 8.43292 12.7485 8.55578 12.8309 8.69041C13.0503 9.04983 13.1739 9.44847 13.1965 9.85628C13.4411 10.0458 13.7176 10.183 14.0234 10.2575C14.5924 10.3974 15.1814 10.3098 15.6839 10.0131C16.1864 9.71642 16.5414 9.24458 16.6823 8.68516C16.8246 8.12575 16.7355 7.54676 16.4337 7.05269C16.1319 6.55863 15.652 6.20967 15.083 6.07112C14.6815 5.97309 14.268 5.99269 13.8785 6.11817L13.8785 6.11685ZM15.5496 10.4967C15.2332 10.6274 14.8982 10.6954 14.5579 10.6954C14.3492 10.6954 14.1391 10.6706 13.9317 10.6196C13.6605 10.5529 13.4092 10.4445 13.1793 10.3007C13.166 10.4026 13.15 10.5046 13.1234 10.6052C12.9812 11.1659 12.6555 11.6508 12.1968 11.9972C12.4494 12.2991 12.6169 12.6586 12.6874 13.0376C12.936 13.2846 13.2471 13.4611 13.5914 13.5447C14.627 13.7983 15.6773 13.1761 15.9352 12.1593C16.0841 11.5711 15.9378 10.9608 15.551 10.4954L15.5496 10.4967ZM12.2925 13.9043C12.3537 13.6612 12.3657 13.4142 12.3324 13.1763C12.3324 13.1736 12.3311 13.1723 12.3311 13.1697C12.2792 12.8155 12.121 12.4822 11.8751 12.2038C11.4883 12.4156 11.0628 12.528 10.6308 12.528C10.4221 12.528 10.212 12.5031 10.0046 12.4522C9.68025 12.3724 9.38114 12.2339 9.11789 12.047C8.83605 12.2993 8.63397 12.6182 8.54092 12.9868C8.28301 14.0036 8.91584 15.0375 9.95011 15.291C10.4513 15.4139 10.9711 15.3368 11.4138 15.0754C11.8565 14.814 12.169 14.3984 12.2939 13.9056L12.2925 13.9043ZM8.74421 11.1059C9.04599 11.6 9.52592 11.949 10.0949 12.0875C11.2688 12.3751 12.4626 11.6693 12.7538 10.5152C12.896 9.95576 12.807 9.37677 12.5052 8.8827C12.2034 8.38863 11.7235 8.03968 11.1545 7.90112C10.9777 7.85799 10.7995 7.83708 10.624 7.83708C9.64025 7.83708 8.74289 8.49319 8.49428 9.47346C8.35203 10.0329 8.4411 10.6119 8.74288 11.1059L8.74421 11.1059ZM9.17759 5.58239C8.9928 6.31433 9.21216 7.08156 9.74792 7.61481C10.2132 7.44751 10.7317 7.41091 11.2475 7.53769C11.6264 7.63049 11.9694 7.80433 12.2619 8.0422C12.8508 7.7625 13.2776 7.25275 13.4358 6.62538C13.578 6.06597 13.4889 5.48698 13.1872 4.99291C12.8854 4.49884 12.4054 4.14989 11.8364 4.01133C10.6626 3.72379 9.46872 4.42958 9.17757 5.58368L9.17759 5.58239ZM8.4504 5.37588C8.56872 5.43993 8.68305 5.51181 8.7894 5.59416C8.79605 5.56017 8.79871 5.52619 8.80801 5.49221C8.81998 5.44646 8.83593 5.40202 8.84923 5.35759C8.10342 4.22701 8.24033 2.83897 8.39325 2.10178C8.4185 1.98284 8.47035 1.826 8.53284 1.64301C8.63653 1.33717 8.85057 0.700654 8.7389 0.554267C8.72561 0.537276 8.68705 0.534662 8.6578 0.535969C8.60463 0.538583 8.54613 0.534662 8.48232 0.530741C8.11673 0.509828 7.85083 0.522898 7.75645 0.883641C7.51982 2.47559 7.79232 4.22955 8.4504 5.37588ZM5.32357 8.69965C5.62535 9.19371 6.10529 9.54266 6.67429 9.68122C7.14889 9.79755 7.64745 9.74788 8.09281 9.55444C8.10345 9.49693 8.11275 9.43942 8.12737 9.38322C8.30685 8.6735 8.77881 8.11017 9.38501 7.7821C8.95163 7.30242 8.72561 6.68422 8.73892 6.05029C8.46107 5.78104 8.11675 5.58761 7.7352 5.49479C6.56132 5.20724 5.3675 5.91304 5.07634 7.06713C4.93409 7.62655 5.02316 8.20684 5.32494 8.6996L5.32357 8.69965ZM8.10343 13.4754C8.10077 13.2832 8.11938 13.0898 8.1699 12.895C8.27758 12.469 8.50624 12.0991 8.82532 11.8024C8.6711 11.6534 8.53284 11.4861 8.41851 11.2992C8.16991 10.894 8.04894 10.4392 8.05293 9.97647C7.77906 10.0706 7.49192 10.1189 7.20474 10.1189C6.99602 10.1189 6.78729 10.0941 6.58258 10.0444C6.33796 9.98431 6.10931 9.89151 5.89792 9.76996C5.30898 10.0497 4.8809 10.5607 4.72271 11.1881C4.43024 12.3422 5.14813 13.5159 6.32202 13.8021C6.94153 13.9537 7.58496 13.8322 8.10612 13.4754L8.10343 13.4754ZM9.94736 16.9742C9.91811 16.7142 9.93141 16.4462 9.99921 16.1783C10.0417 16.0123 10.1069 15.8567 10.184 15.7051C10.075 15.6947 9.96464 15.6777 9.85563 15.6515C8.9596 15.4319 8.31749 14.7223 8.14732 13.8858C7.97981 13.9825 7.80566 14.0622 7.62351 14.1184C7.49455 14.3053 7.39618 14.5092 7.34034 14.7314C7.21405 15.2281 7.29248 15.7443 7.56103 16.1835C7.82957 16.6226 8.25633 16.9324 8.76149 17.0566C9.15499 17.1533 9.56979 17.1193 9.9447 16.9742L9.94736 16.9742ZM14.1723 16.8056C14.1563 16.8056 14.1404 16.8083 14.1244 16.8083C13.937 16.8083 13.7482 16.786 13.5608 16.7403C12.7538 16.5429 12.133 15.9495 11.9016 15.1836C11.8099 15.2594 11.7128 15.3313 11.6065 15.3928C11.3007 15.5731 10.9631 15.6764 10.6187 15.7051C10.5057 15.8777 10.418 16.0646 10.3675 16.2672C10.1096 17.284 10.7424 18.3179 11.7767 18.5714C12.811 18.825 13.8625 18.2028 14.1204 17.186C14.1524 17.0605 14.1656 16.9324 14.171 16.8044L14.1723 16.8056ZM15.6347 13.3553C15.2119 13.7435 14.6522 13.9761 14.058 13.9761C13.8732 13.9761 13.6857 13.9539 13.4996 13.9082C13.2178 13.8389 12.9559 13.7147 12.7219 13.5513C12.7152 13.699 12.6979 13.848 12.6607 13.9931C12.5783 14.3172 12.4267 14.6126 12.2193 14.8649C12.3536 15.6047 12.9053 16.1942 13.6525 16.3771C14.1537 16.5 14.6735 16.4229 15.1162 16.1615C15.5589 15.9001 15.8713 15.4844 15.9962 14.9917C16.1425 14.4126 16.0055 13.8154 15.6346 13.354L15.6347 13.3553ZM23.5263 4.27663C23.0743 4.16553 22.5864 4.25571 22.0706 4.35113C21.8021 4.4008 21.5256 4.44654 21.2464 4.47007C21.2198 4.62952 21.2012 4.78114 21.1905 4.92361C21.3993 4.87395 21.5694 4.78376 21.6638 4.6596C21.7263 4.57726 21.8459 4.56026 21.9297 4.623C22.0134 4.68443 22.0307 4.80206 21.9669 4.8844C21.7183 5.20985 21.249 5.34187 20.797 5.34187C20.6561 5.34187 20.5178 5.3288 20.3876 5.30658C19.8624 5.21378 19.4902 4.9602 19.3905 4.63086C19.3612 4.53152 19.4184 4.42827 19.5194 4.39821C19.6205 4.36945 19.7255 4.42565 19.7561 4.52499C19.8026 4.67922 20.002 4.81645 20.2799 4.89619C20.2905 4.7668 20.3065 4.60734 20.3291 4.42304C19.5208 4.19823 18.8228 4.16948 18.2033 4.3407C17.1371 4.63478 16.3022 5.1628 15.7133 5.90521C16.144 6.11825 16.5069 6.44371 16.7609 6.85935C17.1158 7.43837 17.2182 8.11931 17.0533 8.77545C16.8885 9.42504 16.4777 9.97398 15.8981 10.323C16.3235 10.8706 16.4764 11.5738 16.3049 12.2508C16.2557 12.4456 16.1746 12.6246 16.0802 12.7932C16.6652 13.5944 17.391 14.2074 18.186 14.5695C19.3759 15.1093 19.8119 14.8792 20.2333 14.6571C20.4461 14.5447 20.6654 14.4283 20.9566 14.4205C21.1866 14.4153 21.3288 14.4989 21.4538 14.5747C21.6558 14.6963 21.9084 14.8479 22.8177 14.6937C23.7696 14.5329 24.6949 13.8075 25.4234 12.6534C26.1267 11.5385 26.5574 10.1465 26.608 8.83428C26.6505 7.7037 26.4365 4.99677 23.5263 4.2794L23.5263 4.27663ZM24.9355 6.2267C25.0539 6.42536 25.1469 6.58221 25.2347 6.84363C25.2533 6.89983 25.3064 6.93512 25.3636 6.93512C25.3782 6.93512 25.3915 6.93251 25.4062 6.92858C25.4779 6.90506 25.5165 6.83056 25.4926 6.75998C25.3955 6.47113 25.2905 6.29599 25.1695 6.09209L25.1363 6.03719C25.0991 5.97315 25.0153 5.95224 24.9502 5.98883C24.885 6.02543 24.8637 6.10777 24.901 6.17182L24.9342 6.22802L24.9355 6.2267ZM25.4274 7.33114C25.9033 8.6813 25.6494 10.2497 24.7454 11.524C24.7029 11.5841 24.7175 11.6678 24.7787 11.7096C24.8026 11.7253 24.8292 11.7331 24.8558 11.7331C24.8983 11.7331 24.9408 11.7135 24.9674 11.6756C25.9206 10.3307 26.1878 8.67335 25.6827 7.24217C25.6588 7.1729 25.5803 7.1363 25.5099 7.15983C25.4394 7.18336 25.4008 7.26047 25.4261 7.32975L25.4274 7.33114Z" fill="black"/>
</svg>
