<svg width="23" height="26" viewBox="0 0 23 26" fill="none" xmlns="http://www.w3.org/2000/svg">
<path d="M23 0.350364C23 0.340895 22.9986 0.331426 22.9972 0.321957C22.9959 0.312487 22.9945 0.304371 22.9931 0.294902C22.9917 0.286785 22.989 0.277316 22.9876 0.269199C22.9848 0.25973 22.9821 0.25026 22.9779 0.242144C22.9765 0.236733 22.9752 0.231322 22.9724 0.227264C22.971 0.224558 22.9696 0.221852 22.9683 0.219147C22.9641 0.21103 22.96 0.201561 22.9545 0.193444C22.9503 0.185328 22.9462 0.178564 22.942 0.1718C22.9365 0.163684 22.931 0.15692 22.9255 0.150156L22.9089 0.129865C22.9034 0.123101 22.8965 0.116337 22.8896 0.110926C22.8827 0.104163 22.8772 0.0987514 22.8703 0.0919873C22.8634 0.0865766 22.8565 0.0811652 22.8496 0.0757545C22.8427 0.0703432 22.8344 0.0649325 22.8261 0.0595211C22.8192 0.0554631 22.8109 0.0514046 22.804 0.0473463C22.7957 0.0432882 22.7861 0.037877 22.7778 0.033819C22.775 0.0324663 22.7723 0.0311134 22.7695 0.0297607C22.764 0.027055 22.7585 0.027055 22.7529 0.0243497C22.7433 0.0216443 22.735 0.0175857 22.7253 0.01488C22.7157 0.0121747 22.706 0.0108223 22.6964 0.00811656C22.6881 0.00676389 22.6798 0.00541062 22.6729 0.00405795C22.6618 0.00270528 22.6508 0.00270543 22.6398 0.00135276C22.6356 0.00135276 22.6301 0 22.626 0H20.3527C20.1457 0 19.9787 0.163685 19.9787 0.3666C19.9787 0.569515 20.1457 0.7332 20.3527 0.7332H21.7219L18.6067 3.78638C17.1893 2.53777 15.3757 1.85464 13.4558 1.85464C11.3938 1.85464 9.45601 2.64194 7.9985 4.07045C7.57478 4.48574 7.21313 4.93757 6.90951 5.41509C3.03234 5.81279 0 9.03365 0 12.9379C0 16.9855 3.26148 20.3011 7.3427 20.4929V23.2255H5.67262C5.46559 23.2255 5.29858 23.3892 5.29858 23.5921C5.29858 23.795 5.46559 23.9587 5.67262 23.9587H7.3427V25.6334C7.3427 25.8363 7.50971 26 7.71675 26C7.92378 26 8.09079 25.8363 8.09079 25.6334V23.9587H9.76087C9.96791 23.9587 10.1349 23.795 10.1349 23.5921C10.1349 23.3892 9.96791 23.2255 9.76087 23.2255H8.09079V20.4929C10.6911 20.3712 12.9562 18.9805 14.2604 16.9419C16.0175 16.7647 17.6461 16.0085 18.9117 14.768C21.8433 11.8948 21.9179 7.26703 19.1381 4.303L22.2505 1.25252V2.59446C22.2505 2.79737 22.4175 2.96106 22.6246 2.96106C22.8316 2.96106 22.9986 2.79737 22.9986 2.59446V0.366462C22.9986 0.36105 22.9972 0.355639 22.9972 0.350228L23 0.350364ZM7.71957 6.10771C11.5621 6.10771 14.6884 9.17173 14.6884 12.9379C14.6884 14.1351 14.371 15.2606 13.8175 16.24C13.6975 16.2454 13.5774 16.2495 13.4573 16.2495C11.5954 16.2495 9.84514 15.5393 8.53002 14.2488C6.28714 12.0492 5.89794 8.71202 7.35959 6.11611C7.47967 6.11069 7.59975 6.10664 7.7212 6.10664L7.71957 6.10771ZM7.71957 19.7678C3.87703 19.7678 0.750698 16.7038 0.750698 12.9376C0.750698 9.59218 3.21855 6.80275 6.46346 6.22095C5.13431 9.02115 5.64636 12.46 7.99966 14.7678C9.4282 16.1679 11.3177 16.9498 13.3329 16.9809C12.0631 18.6705 10.0204 19.7689 7.71946 19.7689L7.71957 19.7678ZM18.3847 14.2483C17.3689 15.244 16.0949 15.8919 14.7107 16.1381C15.1758 15.1655 15.4381 14.0819 15.4381 12.9375C15.4381 8.80606 12.04 5.43927 7.83992 5.37693C8.04695 5.10232 8.27608 4.83853 8.53002 4.58964C9.84677 3.29909 11.5969 2.58892 13.4573 2.58892C15.3192 2.58892 17.0695 3.29913 18.3846 4.58964C21.1023 7.25322 21.1023 11.5861 18.3846 14.2499L18.3847 14.2483Z" fill="black"/>
</svg>
