<svg width="35" height="27" viewBox="0 0 35 27" fill="none" xmlns="http://www.w3.org/2000/svg">
<path d="M26.3482 8.96346L27.9391 11.7186C28.0095 11.8403 28.1253 11.9292 28.2612 11.9656C28.3971 12.002 28.5418 11.983 28.6637 11.9128L30.5006 10.8522C30.6223 10.7817 30.7111 10.6659 30.7476 10.53L31.3297 8.35703C31.366 8.2212 31.3469 8.0765 31.2766 7.95472C31.2063 7.83295 31.0906 7.74407 30.9547 7.70762L28.7817 7.12553C28.6459 7.0891 28.5012 7.1081 28.3794 7.17835L26.5425 8.23896C26.4207 8.30935 26.3319 8.42518 26.2954 8.56103C26.259 8.69687 26.278 8.84161 26.3482 8.96346ZM28.7196 8.20685L30.1681 8.59474L29.7802 10.0432L28.5927 10.7289L27.5321 8.89253L28.7196 8.20685Z" fill="url(#paint0_linear_1686_104)"/>
<path d="M21.691 5.46949L24.4461 7.0604C24.568 7.13063 24.7127 7.14962 24.8486 7.11321C24.9844 7.07679 25.1003 6.98795 25.1706 6.86619L26.2313 5.02929C26.3015 4.90747 26.3205 4.76273 26.2841 4.6269L25.702 2.45393C25.6842 2.38655 25.6532 2.32336 25.6109 2.268C25.5685 2.21264 25.5156 2.1662 25.4553 2.13135C25.3949 2.0965 25.3283 2.07394 25.2592 2.06496C25.19 2.05597 25.1198 2.06075 25.0526 2.07901L22.8796 2.6611C22.7437 2.69754 22.6279 2.78638 22.5575 2.90812L21.4968 4.74502C21.462 4.80534 21.4394 4.87193 21.4303 4.94098C21.4212 5.01004 21.4258 5.08021 21.4439 5.14749C21.4619 5.21476 21.493 5.27783 21.5354 5.33308C21.5778 5.38833 21.6307 5.43468 21.691 5.46949ZM23.3664 3.62845L24.8149 3.24055L25.2028 4.68905L24.5171 5.87653L22.6807 4.81593L23.3664 3.62845Z" fill="url(#paint1_linear_1686_104)"/>
<path d="M15.9092 4.77271H19.091C19.1607 4.77275 19.2297 4.75906 19.294 4.73243C19.3584 4.70579 19.4168 4.66673 19.4661 4.61748C19.5153 4.56823 19.5544 4.50975 19.581 4.4454C19.6077 4.38104 19.6214 4.31206 19.6213 4.24241V2.1212C19.6213 2.05156 19.6076 1.9826 19.581 1.91827C19.5543 1.85394 19.5152 1.79549 19.466 1.74627L17.875 0.155365C17.8258 0.10611 17.7674 0.0670376 17.703 0.0403795C17.6387 0.0137214 17.5697 0 17.5001 0C17.4305 0 17.3615 0.0137214 17.2972 0.0403795C17.2328 0.0670376 17.1744 0.10611 17.1252 0.155365L15.5343 1.74627C15.485 1.7955 15.4459 1.85394 15.4193 1.91828C15.3926 1.98261 15.3789 2.05156 15.3789 2.1212V4.24241C15.3789 4.31206 15.3926 4.38104 15.4192 4.4454C15.4458 4.50975 15.4849 4.56823 15.5341 4.61748C15.5834 4.66673 15.6419 4.70579 15.7062 4.73243C15.7706 4.75906 15.8396 4.77275 15.9092 4.77271ZM16.4395 2.34078L17.5001 1.28017L18.5607 2.34078V3.71211H16.4395V2.34078Z" fill="url(#paint2_linear_1686_104)"/>
<path d="M9.83076 6.86579C9.90118 6.98754 10.017 7.07638 10.1529 7.11281C10.2201 7.13087 10.2903 7.13549 10.3593 7.12643C10.4284 7.11737 10.4949 7.09479 10.5553 7.05999L13.3104 5.46908C13.3707 5.43428 13.4236 5.38792 13.466 5.33267C13.5084 5.27742 13.5395 5.21435 13.5576 5.14707C13.5756 5.07978 13.5802 5.00961 13.5711 4.94055C13.562 4.87149 13.5394 4.8049 13.5046 4.74458L12.4439 2.90768C12.3735 2.78593 12.2577 2.69709 12.1218 2.66065L9.94883 2.07856C9.813 2.04223 9.6683 2.06132 9.54653 2.13162C9.42476 2.20192 9.33588 2.31769 9.29942 2.45348L8.71733 4.62648C8.6809 4.76231 8.6999 4.90705 8.77015 5.02887L9.83076 6.86579ZM10.1865 3.24015L11.635 3.62804L12.3207 4.81552L10.4843 5.87613L9.79865 4.68865L10.1865 3.24015Z" fill="url(#paint3_linear_1686_104)"/>
<path d="M4.25047 10.53C4.2869 10.6658 4.37574 10.7817 4.49749 10.8521L6.33439 11.9127C6.45624 11.983 6.60099 12.002 6.73684 11.9655C6.87269 11.9291 6.98853 11.8403 7.0589 11.7185L8.64981 8.9634C8.72004 8.84155 8.73903 8.6968 8.70262 8.56096C8.66621 8.42512 8.57736 8.30928 8.4556 8.23889L6.6187 7.17829C6.49685 7.10813 6.35215 7.08914 6.21632 7.12546L4.04334 7.70755C3.90753 7.744 3.79176 7.83288 3.72145 7.95465C3.65115 8.07643 3.63207 8.22113 3.66842 8.35697L4.25047 10.53ZM6.27846 8.20679L7.46594 8.89247L6.40534 10.7289L5.21786 10.0432L4.82997 8.59466L6.27846 8.20679Z" fill="url(#paint4_linear_1686_104)"/>
<path d="M34.4697 15.3789H33.0984L31.6628 13.9434C31.6136 13.8941 31.5552 13.855 31.4908 13.8284C31.4265 13.8017 31.3575 13.788 31.2879 13.788H29.1667C29.097 13.7879 29.028 13.8016 28.9637 13.8283C28.8993 13.8549 28.8408 13.894 28.7916 13.9432C28.7423 13.9925 28.7033 14.0509 28.6766 14.1153C28.65 14.1797 28.6363 14.2486 28.6364 14.3183V15.3789H27.0186C26.8862 12.9439 25.8256 10.6522 24.0551 8.97526C22.2845 7.29836 19.9386 6.36377 17.5 6.36377C15.0614 6.36377 12.7155 7.29836 10.9449 8.97526C9.17437 10.6522 8.1138 12.9439 7.98141 15.3789H6.36364V14.3183C6.36368 14.2486 6.34999 14.1797 6.32335 14.1153C6.29671 14.0509 6.25765 13.9925 6.2084 13.9432C6.15915 13.894 6.10068 13.8549 6.03632 13.8283C5.97196 13.8016 5.90298 13.7879 5.83333 13.788H3.71212C3.64248 13.788 3.57353 13.8017 3.50919 13.8284C3.44486 13.855 3.38642 13.8941 3.3372 13.9434L1.90163 15.3789H0.530303C0.389658 15.3789 0.254773 15.4348 0.155322 15.5342C0.055871 15.6337 0 15.7686 0 15.9092C0 16.0498 0.055871 16.1847 0.155322 16.2842C0.254773 16.3836 0.389658 16.4395 0.530303 16.4395H34.4697C34.6103 16.4395 34.7452 16.3836 34.8447 16.2842C34.9441 16.1847 35 16.0498 35 15.9092C35 15.7686 34.9441 15.6337 34.8447 15.5342C34.7452 15.4348 34.6103 15.3789 34.4697 15.3789ZM29.697 14.8486H31.0683L31.5986 15.3789H29.697V14.8486ZM17.5 7.42435C19.6565 7.4279 21.7308 8.25204 23.3016 9.72943C24.8725 11.2068 25.8223 13.2267 25.958 15.3789H9.04202C9.17773 13.2267 10.1275 11.2068 11.6983 9.72943C13.2692 8.25204 15.3435 7.4279 17.5 7.42435ZM3.9317 14.8486H5.30303V15.3789H3.4014L3.9317 14.8486Z" fill="url(#paint5_linear_1686_104)"/>
<path d="M29.6977 17.5H4.24319C4.10255 17.5 3.96766 17.5559 3.86821 17.6553C3.76876 17.7548 3.71289 17.8897 3.71289 18.0303C3.71289 18.1709 3.76876 18.3058 3.86821 18.4053C3.96766 18.5047 4.10255 18.5606 4.24319 18.5606H29.6977C29.8384 18.5606 29.9733 18.5047 30.0727 18.4053C30.1722 18.3058 30.228 18.1709 30.228 18.0303C30.228 17.8897 30.1722 17.7548 30.0727 17.6553C29.9733 17.5559 29.8384 17.5 29.6977 17.5Z" fill="url(#paint6_linear_1686_104)"/>
<path d="M17.4996 20.1514C17.4997 20.0817 17.486 20.0128 17.4594 19.9484C17.4327 19.8841 17.3937 19.8256 17.3444 19.7763C17.2952 19.7271 17.2367 19.688 17.1723 19.6614C17.108 19.6347 17.039 19.6211 16.9693 19.6211H6.89358C6.75294 19.6211 6.61805 19.677 6.5186 19.7764C6.41915 19.8759 6.36328 20.0108 6.36328 20.1514C6.36328 20.292 6.41915 20.4269 6.5186 20.5264C6.61805 20.6258 6.75294 20.6817 6.89358 20.6817H16.9693C17.039 20.6817 17.108 20.668 17.1723 20.6414C17.2367 20.6148 17.2952 20.5757 17.3444 20.5265C17.3937 20.4772 17.4327 20.4187 17.4594 20.3544C17.486 20.29 17.4997 20.221 17.4996 20.1514Z" fill="url(#paint7_linear_1686_104)"/>
<path d="M24.3939 19.6213H19.0908C18.9502 19.6213 18.8153 19.6772 18.7159 19.7767C18.6164 19.8761 18.5605 20.011 18.5605 20.1516C18.5605 20.2923 18.6164 20.4272 18.7159 20.5266C18.8153 20.6261 18.9502 20.6819 19.0908 20.6819H24.3939C24.5345 20.6819 24.6694 20.6261 24.7689 20.5266C24.8683 20.4272 24.9242 20.2923 24.9242 20.1516C24.9242 20.011 24.8683 19.8761 24.7689 19.7767C24.6694 19.6772 24.5345 19.6213 24.3939 19.6213Z" fill="url(#paint8_linear_1686_104)"/>
<path d="M26.5157 19.6211H25.9854C25.8447 19.6211 25.7099 19.677 25.6104 19.7764C25.5109 19.8759 25.4551 20.0108 25.4551 20.1514C25.4551 20.292 25.5109 20.4269 25.6104 20.5264C25.7099 20.6258 25.8447 20.6817 25.9854 20.6817H26.5157C26.6563 20.6817 26.7912 20.6258 26.8907 20.5264C26.9901 20.4269 27.046 20.292 27.046 20.1514C27.046 20.0108 26.9901 19.8759 26.8907 19.7764C26.7912 19.677 26.6563 19.6211 26.5157 19.6211Z" fill="url(#paint9_linear_1686_104)"/>
<path d="M16.4399 22.2727C16.4399 22.2031 16.4262 22.1341 16.3996 22.0698C16.3729 22.0054 16.3339 21.9469 16.2846 21.8977C16.2354 21.8484 16.1769 21.8094 16.1125 21.7827C16.0482 21.7561 15.9792 21.7424 15.9096 21.7424H9.54593C9.40528 21.7424 9.2704 21.7983 9.17095 21.8978C9.0715 21.9972 9.01562 22.1321 9.01562 22.2727C9.01562 22.4134 9.0715 22.5483 9.17095 22.6477C9.2704 22.7472 9.40528 22.803 9.54593 22.803H15.9096C15.9792 22.8031 16.0482 22.7894 16.1125 22.7628C16.1769 22.7361 16.2354 22.6971 16.2846 22.6478C16.3339 22.5986 16.3729 22.5401 16.3996 22.4757C16.4262 22.4114 16.4399 22.3424 16.4399 22.2727Z" fill="url(#paint10_linear_1686_104)"/>
<path d="M19.6212 21.7424H18.0303C17.8897 21.7424 17.7548 21.7983 17.6553 21.8978C17.5559 21.9972 17.5 22.1321 17.5 22.2727C17.5 22.4134 17.5559 22.5483 17.6553 22.6477C17.7548 22.7472 17.8897 22.803 18.0303 22.803H19.6212C19.7619 22.803 19.8967 22.7472 19.9962 22.6477C20.0956 22.5483 20.1515 22.4134 20.1515 22.2727C20.1515 22.1321 20.0956 21.9972 19.9962 21.8978C19.8967 21.7983 19.7619 21.7424 19.6212 21.7424Z" fill="url(#paint11_linear_1686_104)"/>
<path d="M19.6205 24.3941C19.6205 24.3244 19.6069 24.2554 19.5802 24.1911C19.5536 24.1267 19.5145 24.0683 19.4653 24.019C19.416 23.9698 19.3575 23.9307 19.2932 23.9041C19.2288 23.8774 19.1599 23.8637 19.0902 23.8638H13.2569C13.1162 23.8638 12.9813 23.9196 12.8819 24.0191C12.7824 24.1185 12.7266 24.2534 12.7266 24.3941C12.7266 24.5347 12.7824 24.6696 12.8819 24.7691C12.9813 24.8685 13.1162 24.9244 13.2569 24.9244H19.0902C19.1599 24.9244 19.2288 24.9107 19.2932 24.8841C19.3575 24.8575 19.416 24.8184 19.4653 24.7691C19.5145 24.7199 19.5536 24.6614 19.5802 24.5971C19.6069 24.5327 19.6205 24.4637 19.6205 24.3941Z" fill="url(#paint12_linear_1686_104)"/>
<path d="M17.5001 25.4546H15.9092C15.7686 25.4546 15.6337 25.5105 15.5342 25.6099C15.4348 25.7094 15.3789 25.8442 15.3789 25.9849C15.3789 26.1255 15.4348 26.2604 15.5342 26.3599C15.6337 26.4593 15.7686 26.5152 15.9092 26.5152H17.5001C17.6408 26.5152 17.7756 26.4593 17.8751 26.3599C17.9746 26.2604 18.0304 26.1255 18.0304 25.9849C18.0304 25.8442 17.9746 25.7094 17.8751 25.6099C17.7756 25.5105 17.6408 25.4546 17.5001 25.4546Z" fill="url(#paint13_linear_1686_104)"/>
<path d="M19.6212 25.4546H19.0908C18.9502 25.4546 18.8153 25.5105 18.7159 25.6099C18.6164 25.7094 18.5605 25.8442 18.5605 25.9849C18.5605 26.1255 18.6164 26.2604 18.7159 26.3599C18.8153 26.4593 18.9502 26.5152 19.0908 26.5152H19.6212C19.7618 26.5152 19.8967 26.4593 19.9961 26.3599C20.0956 26.2604 20.1515 26.1255 20.1515 25.9849C20.1515 25.8442 20.0956 25.7094 19.9961 25.6099C19.8967 25.5105 19.7618 25.4546 19.6212 25.4546Z" fill="url(#paint14_linear_1686_104)"/>
<defs>
<linearGradient id="paint0_linear_1686_104" x1="28.8125" y1="7.10742" x2="28.8125" y2="11.9837" gradientUnits="userSpaceOnUse">
<stop stop-color="#FEC002"/>
<stop offset="1" stop-color="#F77062"/>
</linearGradient>
<linearGradient id="paint1_linear_1686_104" x1="23.864" y1="2.06055" x2="23.864" y2="7.13131" gradientUnits="userSpaceOnUse">
<stop stop-color="#FEC002"/>
<stop offset="1" stop-color="#F77062"/>
</linearGradient>
<linearGradient id="paint2_linear_1686_104" x1="17.5001" y1="0" x2="17.5001" y2="4.77271" gradientUnits="userSpaceOnUse">
<stop stop-color="#FEC002"/>
<stop offset="1" stop-color="#F77062"/>
</linearGradient>
<linearGradient id="paint3_linear_1686_104" x1="11.1374" y1="2.06055" x2="11.1374" y2="7.13094" gradientUnits="userSpaceOnUse">
<stop stop-color="#FEC002"/>
<stop offset="1" stop-color="#F77062"/>
</linearGradient>
<linearGradient id="paint4_linear_1686_104" x1="6.18555" y1="7.10742" x2="6.18555" y2="11.9836" gradientUnits="userSpaceOnUse">
<stop stop-color="#FEC002"/>
<stop offset="1" stop-color="#F77062"/>
</linearGradient>
<linearGradient id="paint5_linear_1686_104" x1="17.5" y1="6.36377" x2="17.5" y2="16.4395" gradientUnits="userSpaceOnUse">
<stop stop-color="#FEC002"/>
<stop offset="1" stop-color="#F77062"/>
</linearGradient>
<linearGradient id="paint6_linear_1686_104" x1="16.9705" y1="17.5" x2="16.9705" y2="18.5606" gradientUnits="userSpaceOnUse">
<stop stop-color="#FEC002"/>
<stop offset="1" stop-color="#F77062"/>
</linearGradient>
<linearGradient id="paint7_linear_1686_104" x1="11.9315" y1="19.6211" x2="11.9315" y2="20.6817" gradientUnits="userSpaceOnUse">
<stop stop-color="#FEC002"/>
<stop offset="1" stop-color="#F77062"/>
</linearGradient>
<linearGradient id="paint8_linear_1686_104" x1="21.7424" y1="19.6213" x2="21.7424" y2="20.6819" gradientUnits="userSpaceOnUse">
<stop stop-color="#FEC002"/>
<stop offset="1" stop-color="#F77062"/>
</linearGradient>
<linearGradient id="paint9_linear_1686_104" x1="26.2505" y1="19.6211" x2="26.2505" y2="20.6817" gradientUnits="userSpaceOnUse">
<stop stop-color="#FEC002"/>
<stop offset="1" stop-color="#F77062"/>
</linearGradient>
<linearGradient id="paint10_linear_1686_104" x1="12.7277" y1="21.7424" x2="12.7277" y2="22.803" gradientUnits="userSpaceOnUse">
<stop stop-color="#FEC002"/>
<stop offset="1" stop-color="#F77062"/>
</linearGradient>
<linearGradient id="paint11_linear_1686_104" x1="18.8258" y1="21.7424" x2="18.8258" y2="22.803" gradientUnits="userSpaceOnUse">
<stop stop-color="#FEC002"/>
<stop offset="1" stop-color="#F77062"/>
</linearGradient>
<linearGradient id="paint12_linear_1686_104" x1="16.1735" y1="23.8638" x2="16.1735" y2="24.9244" gradientUnits="userSpaceOnUse">
<stop stop-color="#FEC002"/>
<stop offset="1" stop-color="#F77062"/>
</linearGradient>
<linearGradient id="paint13_linear_1686_104" x1="16.7047" y1="25.4546" x2="16.7047" y2="26.5152" gradientUnits="userSpaceOnUse">
<stop stop-color="#FEC002"/>
<stop offset="1" stop-color="#F77062"/>
</linearGradient>
<linearGradient id="paint14_linear_1686_104" x1="19.356" y1="25.4546" x2="19.356" y2="26.5152" gradientUnits="userSpaceOnUse">
<stop stop-color="#FEC002"/>
<stop offset="1" stop-color="#F77062"/>
</linearGradient>
</defs>
</svg>
