<svg width="15" height="18" viewBox="0 0 15 18" fill="none" xmlns="http://www.w3.org/2000/svg">
<path d="M14.6429 3.46174C13.6009 3.46113 12.5704 3.67221 11.6179 4.08135C10.4571 1.41773 7.77857 0.0937082 7.65982 0.0365936C7.6102 0.0125291 7.55548 0 7.5 0C7.44452 0 7.3898 0.0125291 7.34018 0.0365936C7.22232 0.0937082 4.54554 1.42119 3.38214 4.08135C2.42956 3.67221 1.39907 3.46113 0.357143 3.46174C0.262423 3.46174 0.171582 3.49821 0.104605 3.56312C0.0376275 3.62804 0 3.71608 0 3.80789V10.7309C0 12.6588 0.790176 14.5077 2.1967 15.8709C3.60322 17.2341 5.51088 18 7.5 18C9.48912 18 11.3968 17.2341 12.8033 15.8709C14.2098 14.5077 15 12.6588 15 10.7309V3.80789C15 3.71608 14.9624 3.62804 14.8954 3.56312C14.8284 3.49821 14.7376 3.46174 14.6429 3.46174ZM7.14286 17.299C5.40816 17.2081 3.77525 16.4767 2.57965 15.2552C1.38405 14.0336 0.716544 12.4146 0.714286 10.7309V9.00878C2.44899 9.0997 4.08189 9.83108 5.27749 11.0527C6.47309 12.2742 7.1406 13.8932 7.14286 15.577V17.299ZM7.14286 12.485C6.56219 11.2904 5.65719 10.2713 4.52476 9.53703C3.39234 8.80273 2.07516 8.38082 0.714286 8.31648V4.16269C2.44899 4.25361 4.08189 4.98499 5.27749 6.20656C6.47309 7.42813 7.1406 9.04711 7.14286 10.7309V12.485ZM4.02232 4.39201C4.92143 2.29608 6.92054 1.06293 7.50446 0.741007C8.08393 1.06293 10.083 2.29868 10.9821 4.39201C9.32707 5.29286 8.08356 6.76571 7.5 8.51638C6.91754 6.76644 5.67571 5.29369 4.02232 4.39201ZM14.2857 10.7309C14.2835 12.4146 13.616 14.0336 12.4203 15.2552C11.2247 16.4767 9.59184 17.2081 7.85714 17.299V15.577C7.8594 13.8932 8.52691 12.2742 9.72251 11.0527C10.9181 9.83108 12.551 9.0997 14.2857 9.00878V10.7309ZM14.2857 8.31648C12.9248 8.38082 11.6077 8.80273 10.4752 9.53703C9.34281 10.2713 8.43781 11.2904 7.85714 12.485V10.7309C7.8594 9.04711 8.52691 7.42813 9.72251 6.20656C10.9181 4.98499 12.551 4.25361 14.2857 4.16269V8.31648Z" fill="black"/>
</svg>
