<svg width="24" height="24" viewBox="0 0 24 24" fill="none" xmlns="http://www.w3.org/2000/svg">
<path d="M8.09694 23.2529H3.83929C2.27082 23.2529 1 21.9547 1 20.3524V11.8202C1.00096 11.1986 1.13192 10.5844 1.38412 10.0188C1.63633 9.45311 2.00395 8.94903 2.46235 8.5403L10.1365 1.71216C10.6532 1.25293 11.3151 1 12 1C12.6849 1 13.3468 1.25293 13.8635 1.71216L21.5376 8.54162C21.9959 8.95021 22.3634 9.45407 22.6156 10.0195C22.8678 10.5849 22.9989 11.1988 23 11.8202V20.3524C23 21.1214 22.701 21.859 22.1688 22.4029C21.6367 22.9468 20.9148 23.2525 20.162 23.2529H16.2576V14.5528C16.2576 13.3524 15.3052 12.3781 14.1288 12.3781H10.2271C9.05071 12.3781 8.09824 13.3524 8.09824 14.5528L8.09694 23.2529ZM8.09694 23.2529H16.2589" stroke="black" stroke-width="1.5" stroke-linejoin="round"/>
</svg>
