<svg width="16" height="24" viewBox="0 0 16 24" fill="none" xmlns="http://www.w3.org/2000/svg">
<path d="M5.88599 3.12847C4.96419 3.12847 4.2168 2.42832 4.2168 1.5643C4.2168 0.700557 4.96419 0 5.88599 0C6.8078 0 7.55518 0.700557 7.55518 1.5643C7.55518 2.42832 6.8078 3.12847 5.88599 3.12847ZM14.3977 3.10924C14.3977 2.24536 13.6503 1.5448 12.7285 1.5448C11.8067 1.5448 11.0596 2.24536 11.0596 3.10924C11.0596 3.97312 11.8067 4.67341 12.7285 4.67341C13.6503 4.67341 14.3977 3.97312 14.3977 3.10924ZM7.32785 14.5737C7.32785 15.2098 7.87838 15.7257 8.55761 15.7257C9.23639 15.7257 9.78693 15.2098 9.78693 14.5737C9.78693 13.9371 9.23639 13.4214 8.55761 13.4214C7.87838 13.4214 7.32785 13.9371 7.32785 14.5737ZM14.6491 8.91384C13.903 8.91384 13.2983 9.4806 13.2983 10.1799C13.2983 10.879 13.903 11.4457 14.6491 11.4457C15.3952 11.4457 16 10.879 16 10.1799C16 9.4806 15.3952 8.91384 14.6491 8.91384ZM3.22654 17.2851C2.45696 17.2851 1.83299 17.8703 1.83299 18.591C1.83299 19.3124 2.45696 19.8971 3.22654 19.8971C3.99628 19.8971 4.6201 19.3124 4.6201 18.591C4.6201 17.8703 3.99628 17.2851 3.22654 17.2851ZM8.57981 8.65216C8.57981 8.00408 8.01931 7.4788 7.32785 7.4788C6.6366 7.4788 6.0761 8.00408 6.0761 8.65216C6.0761 9.29969 6.6366 9.82498 7.32785 9.82498C8.01931 9.82498 8.57981 9.29969 8.57981 8.65216ZM3.33838 11.5286C3.33838 10.6647 2.59085 9.9644 1.66904 9.9644C0.747237 9.9644 0 10.6647 0 11.5286C0 12.3925 0.747237 13.0927 1.66904 13.0927C2.59085 13.0927 3.33838 12.3925 3.33838 11.5286ZM8.776 21.2592C7.96838 21.2592 7.31363 21.8726 7.31363 22.6294C7.31363 23.3863 7.96838 24 8.776 24C9.58363 24 10.2382 23.3863 10.2382 22.6294C10.2382 21.8726 9.58363 21.2592 8.776 21.2592ZM13.7156 17.1277C13.0243 17.1277 12.4638 17.653 12.4638 18.301C12.4638 18.949 13.0243 19.4741 13.7156 19.4741C14.407 19.4741 14.9675 18.949 14.9675 18.301C14.9675 17.653 14.407 17.1277 13.7156 17.1277Z" fill="black"/>
</svg>
