<svg width="18" height="18" viewBox="0 0 18 18" fill="none" xmlns="http://www.w3.org/2000/svg">
<path d="M13.2689 8.9998C13.2667 8.32749 13.1947 7.65722 13.0539 6.9998H14.8539C14.7617 6.72541 14.6497 6.45804 14.5189 6.1998H12.8439C12.5292 5.14776 12.0408 4.15575 11.3989 3.2648C10.9889 3.09241 10.5614 2.96499 10.1239 2.8848C11.0035 3.82914 11.6671 4.95345 12.0689 6.1798H9.37391V2.7998H8.62391V6.1848H5.92891C6.3315 4.95623 6.99693 3.83011 7.87891 2.8848C7.44331 2.96373 7.01751 3.08946 6.60891 3.2598C5.96447 4.14702 5.47271 5.13561 5.15391 6.1848H3.46891C3.33571 6.44775 3.22207 6.72016 3.12891 6.9998H4.94391C4.80312 7.65722 4.73107 8.32749 4.72891 8.9998C4.73041 9.73519 4.81427 10.4681 4.97891 11.1848H3.20891C3.31178 11.4653 3.43545 11.7377 3.57891 11.9998H5.19391C5.49986 12.9578 5.95367 13.862 6.53891 14.6798C6.95792 14.8594 7.39561 14.9919 7.84391 15.0748C7.02776 14.1848 6.40016 13.1388 5.99891 11.9998H8.62891V15.1698H9.37891V11.9998H11.9989C11.5962 13.1392 10.9668 14.1852 10.1489 15.0748C10.5993 14.9891 11.0387 14.8532 11.4589 14.6698C12.0432 13.8551 12.497 12.9543 12.8039 11.9998H14.4039C14.5467 11.7426 14.6704 11.4752 14.7739 11.1998H12.9989C13.1714 10.479 13.262 9.74096 13.2689 8.9998ZM8.62391 11.1848H5.75391C5.40209 9.8087 5.38665 8.36813 5.70891 6.98481H8.62391V11.1848ZM12.2439 11.1848H9.37391V6.9998H12.2889C12.4326 7.65667 12.503 8.32743 12.4989 8.9998C12.5036 9.73583 12.4179 10.4696 12.2439 11.1848Z" fill="black"/>
<path d="M9 1C7.41775 1 5.87103 1.46919 4.55544 2.34824C3.23985 3.22729 2.21447 4.47672 1.60897 5.93853C1.00347 7.40034 0.84504 9.00887 1.15372 10.5607C1.4624 12.1126 2.22433 13.538 3.34315 14.6569C4.46197 15.7757 5.88743 16.5376 7.43928 16.8463C8.99113 17.155 10.5997 16.9965 12.0615 16.391C13.5233 15.7855 14.7727 14.7602 15.6518 13.4446C16.5308 12.129 17 10.5823 17 9C17 6.87827 16.1571 4.84344 14.6569 3.34315C13.1566 1.84285 11.1217 1 9 1ZM9 16C7.61553 16 6.26216 15.5895 5.11101 14.8203C3.95987 14.0511 3.06266 12.9579 2.53285 11.6788C2.00303 10.3997 1.86441 8.99224 2.13451 7.63437C2.4046 6.2765 3.07129 5.02922 4.05026 4.05025C5.02922 3.07128 6.2765 2.4046 7.63437 2.1345C8.99224 1.86441 10.3997 2.00303 11.6788 2.53284C12.9579 3.06266 14.0511 3.95986 14.8203 5.11101C15.5895 6.26215 16 7.61553 16 9C16 10.8565 15.2625 12.637 13.9498 13.9497C12.637 15.2625 10.8565 16 9 16Z" fill="black"/>
</svg>
