<svg width="43" height="43" viewBox="0 0 43 43" fill="none" xmlns="http://www.w3.org/2000/svg">
<path d="M23.4652 0C17.5273 0 12.7142 4.81315 12.7142 10.751C12.7142 11.9382 13.6776 12.8996 14.8648 12.8996C16.052 12.8996 17.0154 11.9382 17.0154 10.751C17.0154 7.18755 19.9017 4.30124 23.4652 4.30124H32.0636C35.6271 4.30124 38.5134 7.18755 38.5134 10.751V32.249C38.5134 35.8125 35.6271 38.6988 32.0636 38.6988H23.4652C19.9017 38.6988 17.0154 35.8125 17.0154 32.249C17.0154 31.0618 16.052 30.1004 14.8648 30.1004C13.6776 30.1004 12.7142 31.0618 12.7142 32.249C12.7142 38.1869 17.5273 43 23.4652 43H32.0636C38.0015 43 42.8146 38.1869 42.8146 32.249V10.751C42.8146 4.81309 38.0015 0 32.0636 0H23.4652Z" fill="white"/>
<path d="M25.6142 19.3496C26.8016 19.3496 27.7652 20.3132 27.7652 21.5006C27.7652 22.688 26.8016 23.6516 25.6142 23.6516V19.3496Z" fill="white"/>
<path d="M7.8083 19.3493C7.99977 19.1134 8.18319 18.8857 8.35653 18.666C8.88459 18.0008 9.33205 17.4163 9.64649 16.9971C9.80572 16.7875 9.93068 16.6182 10.0174 16.5013L10.1161 16.3642L10.1443 16.3279L10.1524 16.3158C10.1524 16.3158 10.1544 16.3138 8.41498 15.0501L10.1524 16.3158C10.8518 15.3544 10.6402 14.008 9.67874 13.3107C8.71731 12.6132 7.37291 12.8249 6.67556 13.7863L6.66951 13.7944L6.64734 13.8246L6.55866 13.9476C6.47803 14.0544 6.36113 14.2116 6.21198 14.4111C5.91368 14.8062 5.48841 15.3625 4.98652 15.9954C3.97472 17.2733 2.6908 18.8091 1.51973 19.9802L0 21.4999L1.51973 23.0196C2.69075 24.1906 3.97467 25.7265 4.98652 27.0044C5.48839 27.6373 5.91369 28.1916 6.21198 28.5886C6.36113 28.7882 6.47803 28.9454 6.55866 29.0522L6.64734 29.1751L6.66951 29.2054L6.67556 29.2114C7.37296 30.1729 8.71731 30.3865 9.67874 29.6891C10.6402 28.9917 10.8518 27.6474 10.1544 26.6859L10.1443 26.6718L10.1161 26.6355L10.0174 26.4985C9.93068 26.3816 9.80572 26.2123 9.64649 26.0027C9.33206 25.5834 8.88459 24.9989 8.35653 24.3338C8.18319 24.1141 7.99978 23.8863 7.8083 23.6505H25.6139V19.3493L7.8083 19.3493Z" fill="white"/>
</svg>
