<svg width="16" height="16" viewBox="0 0 16 16" fill="none" xmlns="http://www.w3.org/2000/svg">
<path d="M1.616 16C1.15533 16 0.771 15.846 0.463 15.538C0.155 15.23 0.000666667 14.8453 0 14.384V1.616C0 1.15533 0.154333 0.771 0.463 0.463C0.771667 0.155 1.156 0.000666667 1.616 0H8.019V1H1.616C1.462 1 1.32067 1.064 1.192 1.192C1.06333 1.32 0.999333 1.46133 1 1.616V14.385C1 14.5383 1.064 14.6793 1.192 14.808C1.32 14.9367 1.461 15.0007 1.615 15H8.019V16H1.616ZM12.462 11.539L11.76 10.819L14.079 8.5H5.192V7.5H14.079L11.759 5.18L12.461 4.462L16 8L12.462 11.539Z" fill="#FF0A0A"/>
</svg>
