<svg width="20" height="32" viewBox="0 0 20 32" fill="none" xmlns="http://www.w3.org/2000/svg">
<path d="M13.1544 22.3989C13.0704 22.6187 13.081 23.159 12.5351 23.529C12.213 23.7475 11.6954 23.9072 10.8503 23.9072C8.57217 23.9072 7.26796 22.579 7.55035 22.2992C8.29474 21.5594 8.28754 20.8488 8.17724 19.9852C8.1124 19.47 8.01027 18.9007 8.01027 18.2391C8.01027 18.1238 8.02932 18.0169 8.06534 17.9173C8.31043 17.245 9.32281 16.911 10.3325 16.8882C10.3975 16.8859 10.4626 16.8859 10.5258 16.8882C11.6067 16.9048 12.6274 17.2808 12.6274 17.9796C12.6273 19.4687 12.4028 21.4479 13.1544 22.3989Z" fill="#F8B894"/>
<path d="M8.17735 19.9852C7.94171 19.4711 7.95372 18.9705 7.95372 18.9705C7.95372 18.9705 8.01039 18.4735 8.01039 18.2391C8.01039 18.1238 8.02944 18.0169 8.06545 17.9173C8.30926 17.2402 9.32292 16.9062 10.3326 16.8882C10.3976 16.8859 10.4627 16.8859 10.526 16.8882C11.595 16.911 12.6023 17.2855 12.6276 17.9796C12.6276 18.8529 12.5504 19.8944 12.6381 20.7984C11.7532 21.5282 9.50158 21.7083 8.17735 19.9852Z" fill="#EFE5E4"/>
<path d="M9.38007 17.0307C9.38007 19.5392 9.65926 18.9705 7.95356 18.9705C6.24865 18.9705 2.58447 15.1278 2.58447 12.6189C2.58447 10.1104 4.58697 12.4878 6.29236 12.4878C7.99758 12.4878 9.38007 14.5215 9.38007 17.0307Z" fill="#432918"/>
<path d="M10.2837 17.0307C10.2837 19.5392 10.2997 19.6784 12.1138 19.6784C13.9285 19.6784 17.5141 15.1278 17.5141 12.6189C17.5141 10.1104 15.3835 12.4878 13.5691 12.4878C11.7544 12.4878 10.2837 14.5215 10.2837 17.0307Z" fill="#432918"/>
<path d="M16.6867 9.12971C16.6398 8.58894 16.7161 7.70079 16.6633 7.2247C15.9517 6.3255 13.0111 4.63213 10.3961 4.59242C7.43569 4.54712 4.75523 6.27844 3.67002 7.3779C3.61767 7.85383 3.58741 10.2591 3.58741 10.2591C3.58741 10.2591 3.56596 15.6442 5.46489 17.8322C6.65528 19.2035 9.00548 20.9342 10.1671 20.9342C11.3288 20.9342 13.5932 19.728 14.8687 17.8322C16.2263 15.7643 16.5264 13.7829 16.6867 9.12971Z" fill="#F8B894"/>
<path d="M4.32422 15.5793C4.5938 16.4484 4.96216 17.2525 5.4653 17.8322C6.15175 18.6233 7.22416 19.5334 8.23237 20.1622C7.6106 16.7548 5.11856 15.464 4.32422 15.5793Z" fill="#EFB28F"/>
<path d="M11.9442 20.3945C12.9731 19.8659 14.1006 18.9742 14.869 17.832C15.3188 17.1469 15.6521 16.4703 15.9031 15.7039C13.2542 16.0042 11.6908 20.5247 11.9442 20.3945Z" fill="#EFB28F"/>
<path d="M17.7285 7.83739C17.5144 3.18516 14.3616 0.693604 10.2634 0.693604C5.58203 0.693604 2.867 4.62625 2.61278 7.7551C2.5742 8.25921 2.56812 10.2833 2.60333 10.8204C3.04693 10.811 3.50717 11.0152 3.6639 11.881C3.8877 12.6918 3.92756 13.3696 3.92756 13.3696C3.92756 13.3696 5.0299 12.0521 4.533 10.9006C4.68732 7.92255 6.02387 5.42651 10.1566 5.42651C14.2889 5.42651 15.7087 9.29672 15.8161 11.3801C15.5992 11.8838 16.008 13.4705 16.008 13.4705L16.5824 11.3801C16.5824 11.3801 16.9079 10.6906 17.5945 10.8579C17.6286 10.3496 17.7611 8.31572 17.7285 7.83739Z" fill="#432918"/>
<path d="M1.12714 24.8529C-0.675577 26.8698 0.224899 31.6606 0.224899 31.6606C0.224899 31.6606 8.43485 31.6606 10.9349 31.6606C13.5462 31.6606 19.979 31.6606 19.979 31.6606C19.979 31.6606 20.232 26.5967 18.9804 24.8529C17.9328 23.3929 14.6303 22.0786 10.2633 22.0786C5.89734 22.0786 1.98487 23.8935 1.12714 24.8529Z" fill="#F8B894"/>
<path d="M14.854 8.73321C12.6181 5.40905 6.72696 6.03242 5.45301 8.38182C4.89415 9.41309 4.77281 10.5726 4.73055 11.6154C4.66747 13.17 4.13375 15.5535 5.77798 17.5227C6.80829 18.7568 8.38192 20.4 10.1632 20.3971C11.9443 20.3944 13.5346 19.1741 14.639 17.4681C15.8142 15.6068 16.2198 10.7642 14.854 8.73321ZM6.17819 9.58742C6.99543 9.27862 7.80369 9.25108 8.67728 9.24532C9.44488 9.2402 8.98368 10.6454 8.22184 10.5567C5.83289 10.2791 5.47622 10.8111 5.07761 10.9872C4.37516 11.2978 5.2465 9.93961 6.17819 9.58742ZM6.72632 13.0076C6.19132 12.8943 5.43812 12.6439 5.12916 12.1635C4.97884 11.9295 5.0179 11.7023 5.14789 11.5379C5.1663 11.4284 5.22649 11.32 5.34111 11.2244C5.93422 10.7307 6.62355 10.665 7.34809 10.9129C7.8903 11.0983 8.45636 11.4779 8.47877 12.1062C8.50871 12.9433 7.32888 13.1352 6.72632 13.0076ZM11.9176 17.8672C11.2116 18.2033 10.7553 18.5826 9.9762 18.5272C9.2595 18.4763 8.50391 18.1851 8.03982 17.5833C7.57397 16.979 7.95353 16.4299 8.64062 16.5558C8.87498 16.5988 9.82605 16.4535 10.0878 16.4595C10.5828 16.4711 10.9535 16.6403 11.3728 16.555C12.1205 16.4022 12.6101 17.5372 11.9176 17.8672ZM14.9284 12.3574C14.5823 12.7038 13.8448 12.8431 13.3751 12.921C12.7907 13.0177 12.1164 12.9758 11.7932 12.4017C11.7448 12.3162 11.7198 12.2317 11.7133 12.1512C11.6188 11.9551 11.6334 11.7159 11.8466 11.522C12.4814 10.944 13.2083 10.6389 14.0713 10.774C14.744 10.8793 15.587 11.6991 14.9284 12.3574ZM15.1233 10.8916C14.639 10.4245 13.4116 10.348 12.9018 10.3955C12.4438 10.4384 12.0347 10.5166 11.5734 10.4535C10.816 10.3501 11.1399 9.2037 11.8897 9.30615C12.3437 9.36795 13.6852 8.97734 14.6721 9.82979C15.1662 10.2569 15.6754 11.4246 15.1233 10.8916Z" fill="#B2DFF0"/>
<path d="M7.57897 12.4215C7.3763 12.5262 6.70571 12.5363 6.41531 12.4644C6.12492 12.3927 5.43848 12.1257 5.43848 12.1257C5.43848 12.1257 5.78202 11.2817 6.64856 11.1488C7.51526 11.0163 8.07715 11.7552 8.15303 11.9832C8.19113 12.0957 8.00512 12.2049 7.57897 12.4215Z" fill="#E3D2CE"/>
<path d="M5.5202 12.033C5.62473 12.076 5.58807 12.2676 5.41838 12.1517C5.24501 12.033 5.29192 11.6975 5.29192 11.6975C5.29192 11.6975 5.29944 11.9428 5.5202 12.033Z" fill="black"/>
<path d="M5.81461 12.1885C5.88009 12.2111 5.67038 12.3073 5.54391 12.1885C5.35773 12.0137 5.40143 11.7874 5.40143 11.7874C5.40143 11.7874 5.51926 12.087 5.81461 12.1885Z" fill="black"/>
<path d="M6.00898 12.2612C6.07446 12.2836 5.86459 12.3798 5.73828 12.2612C5.55194 12.0865 5.5958 11.8599 5.5958 11.8599C5.5958 11.8599 5.71379 12.1597 6.00898 12.2612Z" fill="black"/>
<path d="M7.36766 12.597C6.54706 12.857 5.41895 12.1518 5.41895 12.1518C5.41895 12.1518 5.45256 12.1043 5.52076 12.0332C6.50464 12.5985 7.38879 12.6627 8.16792 12.0417C8.09316 12.1517 7.82358 12.4525 7.36766 12.597Z" fill="black"/>
<path d="M4.94977 10.8916C4.94977 10.8916 5.37464 10.4406 5.83344 10.2785C6.65419 9.98823 8.13658 10.406 8.44362 10.2396C8.75098 10.0729 8.78748 9.68422 8.74442 9.66325C8.57697 9.56864 6.72479 9.49837 5.97799 9.8608C5.23136 10.2226 4.92432 10.866 4.92432 10.866L4.94977 10.8916Z" fill="#432918"/>
<path d="M6.26913 12.3698C6.30483 12.3818 6.12153 12.4787 5.98546 12.3711C5.78568 12.2133 5.77783 11.9927 5.77783 11.9927C5.77783 11.9927 5.93776 12.2597 6.26913 12.3698Z" fill="black"/>
<path d="M12.6718 12.4215C12.8748 12.5262 13.5454 12.5363 13.8358 12.4644C14.1262 12.3927 14.8126 12.1257 14.8126 12.1257C14.8126 12.1257 14.4691 11.2817 13.6026 11.1488C12.736 11.0163 12.1738 11.7552 12.0981 11.9832C12.0601 12.0957 12.246 12.2049 12.6718 12.4215Z" fill="#E3D2CE"/>
<path d="M14.7305 12.033C14.6258 12.076 14.6624 12.2676 14.8321 12.1517C15.0055 12.033 14.9587 11.6975 14.9587 11.6975C14.9587 11.6975 14.9511 11.9428 14.7305 12.033Z" fill="black"/>
<path d="M14.4361 12.1885C14.3708 12.2111 14.5805 12.3073 14.7072 12.1885C14.8932 12.0137 14.8493 11.7874 14.8493 11.7874C14.8493 11.7874 14.7315 12.087 14.4361 12.1885Z" fill="black"/>
<path d="M14.2418 12.2612C14.1764 12.2836 14.3864 12.3798 14.5129 12.2612C14.699 12.0865 14.655 11.8599 14.655 11.8599C14.655 11.8599 14.5375 12.1597 14.2418 12.2612Z" fill="black"/>
<path d="M12.8834 12.597C13.7042 12.857 14.8323 12.1518 14.8323 12.1518C14.8323 12.1518 14.7988 12.1043 14.7307 12.0332C13.7468 12.5985 12.8625 12.6627 12.083 12.0417C12.1581 12.1517 12.4278 12.4525 12.8834 12.597Z" fill="black"/>
<path d="M15.301 10.8916C15.301 10.8916 14.8765 10.4406 14.4177 10.2785C13.5967 9.98823 12.1147 10.406 11.8073 10.2396C11.5001 10.0729 11.4633 9.68422 11.5067 9.66325C11.674 9.56864 13.5265 9.49837 14.2731 9.8608C15.0196 10.2226 15.3268 10.866 15.3268 10.866L15.301 10.8916Z" fill="#432918"/>
<path d="M13.9815 12.3698C13.946 12.3818 14.129 12.4787 14.2652 12.3711C14.4652 12.2133 14.4727 11.9927 14.4727 11.9927C14.4727 11.9927 14.3129 12.2597 13.9815 12.3698Z" fill="black"/>
<path d="M11.1198 13.6748L10.4213 14.5785C10.4213 14.5785 10.1192 12.483 10.3501 11.4397C10.5824 10.3904 11.3729 9.83008 11.3729 9.83008C11.3729 9.83008 10.5824 10.5255 10.6731 11.5864C10.7474 12.4588 11.1198 13.6748 11.1198 13.6748Z" fill="#A07D6D"/>
<path opacity="0.5" d="M12.8858 14.7655C11.5776 14.7016 11.417 12.3453 11.417 12.3453C11.417 12.3453 11.8708 11.8486 11.996 12.2404C12.2054 12.8946 13.0226 13.0522 13.6049 13.0916C14.5113 13.1524 15.2781 12.9525 15.5398 13.2488C15.9227 13.6831 14.2273 14.8316 12.8858 14.7655Z" fill="#957566"/>
<path opacity="0.5" d="M7.34705 14.7655C8.65543 14.7016 8.81615 12.3453 8.81615 12.3453C8.81615 12.3453 8.36215 11.8486 8.23696 12.2404C8.02757 12.8946 7.21034 13.0522 6.62811 13.0916C5.72155 13.1524 4.95474 12.9525 4.69317 13.2488C4.31024 13.6831 6.00586 14.8316 7.34705 14.7655Z" fill="#957566"/>
<path d="M10.375 16.5547H9.89941C9.89941 16.5547 9.98618 15.6541 10.1256 15.6541C10.2647 15.6541 10.375 16.5547 10.375 16.5547Z" fill="#EBEBEB"/>
<path d="M15.8491 9.53547C15.8754 9.2947 15.9343 9.06578 16.0079 8.84534C15.7781 8.50132 15.629 8.07726 15.6034 7.57171C15.5802 7.1105 15.3639 6.69028 15.053 6.30448L10.0529 4.46606C10.1051 4.53298 5.53615 6.30448 5.53615 6.30448C5.11161 6.75736 4.7948 7.25938 4.7663 7.82192C4.74101 8.32795 4.59197 8.75185 4.36209 9.09603C4.43573 9.31647 4.24219 12.9056 4.24219 12.9056C4.24219 12.9056 4.8297 12.7628 4.92399 10.2398C4.98946 8.49108 6.71214 6.32033 10.8177 6.42902C13.9906 6.51275 14.7138 8.63179 15.1424 10.247C15.3542 11.0457 14.9949 12.7703 15.9029 13.001C15.9833 12.8913 15.7095 10.8101 15.8491 9.53547Z" fill="#EBEBEB"/>
<path d="M12.0824 16.9772C12.0824 16.9772 11.2259 18.2951 10.0879 18.2951C8.89047 18.2951 8.02393 16.9772 8.02393 16.9772L8.10957 16.9629C8.10957 16.9629 8.6846 17.3809 10.0877 17.3809C11.3343 17.3809 12.0019 16.9541 12.0019 16.9541L12.0824 16.9772Z" fill="#952473"/>
<path d="M12.0824 16.977C12.0824 16.977 11.3105 17.4679 10.0532 17.4679C8.80098 17.4679 8.02393 16.977 8.02393 16.977C8.02393 16.977 9.58123 16.75 9.79622 16.717C9.90044 16.701 10.0091 16.8556 10.1206 16.8556C10.2494 16.8556 10.3738 16.7042 10.4928 16.7245C10.6757 16.7564 12.0824 16.977 12.0824 16.977Z" fill="#AE2A87"/>
<path opacity="0.5" d="M11.0121 17.5428C11.0121 17.6312 10.4556 17.9296 10.0011 17.9118C9.63951 17.8976 9.16406 17.6312 9.16406 17.5428C9.16406 17.4543 9.56748 17.6829 10.0011 17.6829C10.454 17.6829 11.0121 17.4543 11.0121 17.5428Z" fill="white"/>
<path opacity="0.5" d="M10.5021 16.8022C10.5021 16.8666 10.2783 17.0841 10.0948 17.0708C9.9496 17.0607 9.7583 16.8667 9.7583 16.8022C9.7583 16.7383 9.92047 16.9045 10.0948 16.9045C10.2773 16.9045 10.5021 16.7383 10.5021 16.8022Z" fill="white"/>
<path d="M10.9528 15.2C10.9528 15.2674 10.8113 15.322 10.6371 15.322C10.4632 15.322 10.3965 15.322 10.3965 15.322C10.3965 15.322 10.4632 15.0774 10.6371 15.0774C10.8114 15.0774 10.9528 15.1323 10.9528 15.2Z" fill="#E3D2CE"/>
<path d="M9.1543 15.2C9.1543 15.2674 9.29565 15.322 9.46966 15.322C9.644 15.322 9.71043 15.322 9.71043 15.322C9.71043 15.322 9.644 15.0774 9.46966 15.0774C9.29565 15.0774 9.1543 15.1323 9.1543 15.2Z" fill="#E3D2CE"/>
<path d="M4.2426 13.3965C4.2426 13.3965 4.17744 14.7776 3.5299 14.87C2.94239 14.9537 2.46694 13.8672 2.08658 13.3698C1.70637 12.8723 1.54629 10.8722 2.70194 10.8121C3.76827 10.7566 4.2426 13.3965 4.2426 13.3965Z" fill="#F8B894"/>
<path d="M2.20036 11.528C1.73931 12.398 2.44112 13.4706 2.44112 13.4706C2.44112 13.4706 2.17666 12.2919 2.43168 11.7389C2.68685 11.1862 3.15062 11.5047 3.15062 11.5047C3.15062 11.5047 2.66124 10.6576 2.20036 11.528Z" fill="#E3D2CE"/>
<path d="M3.19046 13.2831C3.19046 13.4438 3.02557 13.7347 3.02557 13.7347C3.02557 13.7347 2.82162 13.4387 2.86036 13.2831C2.94217 12.9543 3.44579 13.0076 3.44579 13.0076C3.44579 13.0076 3.19046 13.1222 3.19046 13.2831Z" fill="#E3D2CE"/>
<path d="M15.8164 13.3965C15.8164 13.3965 15.8819 14.7776 16.5293 14.87C17.1168 14.9537 17.5922 13.8672 17.9724 13.3698C18.3531 12.8723 18.5129 10.8722 17.3571 10.8121C16.2907 10.7566 15.8164 13.3965 15.8164 13.3965Z" fill="#F8B894"/>
<path d="M17.8588 11.528C18.3201 12.398 17.6179 13.4706 17.6179 13.4706C17.6179 13.4706 17.8823 12.2919 17.6273 11.7389C17.3721 11.1862 16.9082 11.5047 16.9082 11.5047C16.9082 11.5047 17.3974 10.6576 17.8588 11.528Z" fill="#E3D2CE"/>
<path d="M16.868 13.2831C16.868 13.4438 17.033 13.7347 17.033 13.7347C17.033 13.7347 17.2368 13.4387 17.1984 13.2831C17.1164 12.9543 16.6128 13.0076 16.6128 13.0076C16.6128 13.0076 16.868 13.1222 16.868 13.2831Z" fill="#E3D2CE"/>
<path d="M16.613 28.8891C16.6821 29.5299 16.5142 30.0561 16.3922 30.0561C16.2701 30.0561 16.1889 29.5331 16.1711 28.8891C16.1157 26.8697 17.1297 26.1995 17.1297 26.1995C17.1297 26.1995 16.4486 27.3594 16.613 28.8891Z" fill="#DCA585"/>
<path d="M11.9845 23.1289C11.582 23.4797 11.2197 23.3891 11.2197 23.3891L12.4649 22.2144C12.4649 22.2144 12.3866 22.7779 11.9845 23.1289Z" fill="#DCA585"/>
<path d="M8.68272 23.1289C9.08486 23.4797 9.44697 23.3891 9.44697 23.3891L8.20215 22.2144C8.20215 22.2144 8.27979 22.7779 8.68272 23.1289Z" fill="#DCA585"/>
<path d="M3.64354 28.7631C3.73623 29.4009 3.82876 30.0404 3.95043 30.031C4.07209 30.0219 4.20176 29.3833 4.09226 28.7481C3.76793 26.8698 2.92236 26.2415 2.92236 26.2415C2.92236 26.2415 3.42375 27.2517 3.64354 28.7631Z" fill="#DCA585"/>
<path d="M3.54736 28.1029L3.98119 31.661H16.6128V28.1029C16.6128 28.1029 14.1307 27.3225 10.1302 27.3225C6.12937 27.3225 3.54736 28.1029 3.54736 28.1029Z" fill="white"/>
<path d="M3.26073 5.41321C3.50422 5.57122 12.4006 4.07282 12.6379 3.82373C13.1234 3.31386 14.0684 0.404158 13.4708 0.144501C12.873 -0.114997 8.40426 -0.165904 6.02588 1.22892C3.70465 2.58996 2.78512 5.10377 3.26073 5.41321Z" fill="#94CED8"/>
<path d="M10.6743 4.5912C10.7297 4.87615 17.1708 5.33575 17.4077 5.08682C17.8936 4.57695 14.2602 0.742438 13.6626 0.48294C13.0651 0.223443 10.053 1.39126 10.6743 4.5912Z" fill="#94CED8"/>
<path d="M17.471 10.4201C17.2111 10.5493 16.0814 7.96664 12.9769 6.34098C9.56997 4.55667 7.39634 5.54984 7.18919 5.27545C6.76481 4.71356 11.7446 3.71287 12.3839 3.58688C13.9773 3.27263 17.0064 4.47487 17.4082 5.08688C17.8102 5.69888 17.9791 10.1668 17.471 10.4201Z" fill="#91C6CF"/>
<path d="M17.4802 9.95269C17.0203 9.49933 16.8237 9.01059 16.512 8.46102C16.152 7.82677 14.7114 7.02362 14.2249 6.48157C13.7232 5.92288 13.9771 4.23542 12.5933 3.55218C12.5414 3.52641 9.45035 4.25287 9.1542 4.34284C8.53083 4.5327 6.76461 4.71344 7.18916 5.27533C7.39631 5.54972 9.56994 4.55655 12.9769 6.34086C16.0814 7.96652 17.2111 10.5492 17.4709 10.42C17.5412 10.3849 17.5982 10.2673 17.6438 10.0924C17.5881 10.0515 17.5334 10.005 17.4802 9.95269Z" fill="#D1DBE1"/>
<path d="M2.35306 10.2396C2.59639 10.3975 4.0133 7.96099 7.28319 6.7C10.8717 5.31591 12.9174 6.55048 13.1548 6.30155C13.6406 5.79168 13.2358 3.75908 12.6382 3.49958C12.0404 3.24009 3.49286 4.38629 3.02398 4.94851C2.55493 5.51057 1.87713 9.93019 2.35306 10.2396Z" fill="#A1D2D9"/>
<path d="M2.35317 10.2396C2.5965 10.3974 4.01341 7.96092 7.2833 6.69993C10.8718 5.31583 12.9175 6.55041 13.1549 6.30148C13.6408 5.79161 13.2359 3.75901 12.6383 3.49951C12.9922 5.186 12.4651 5.66194 12.4651 5.66194C12.4651 5.66194 6.63448 5.22923 2.22398 8.6789C2.15995 9.4838 2.18172 10.128 2.35317 10.2396Z" fill="#D1DBE1"/>
</svg>
