<svg width="43" height="48" viewBox="0 0 43 48" fill="none" xmlns="http://www.w3.org/2000/svg">
<path d="M34.3595 21.164C34.3203 21.0213 34.3027 20.8702 34.2988 20.7178C33.0577 21.516 31.6644 22.4117 31.1518 22.7416C30.1476 23.3871 30.7939 24.7384 31.3674 24.3639C31.9288 23.9972 33.5605 23.051 35.0499 22.1981C34.7316 21.9568 34.4841 21.6155 34.3595 21.164Z" fill="#A37C64"/>
<path d="M36.4826 21.3696C36.4826 21.3696 35.3249 23.3615 34.1698 24.0208C32.5229 24.9598 30.3907 26.1882 29.7317 26.6184C29.1587 26.9929 28.5123 25.6414 29.5166 24.9961C30.5208 24.3502 34.9038 21.5316 34.9038 21.5316L36.4826 21.3696Z" fill="#BB8D72"/>
<path d="M36.2805 22.5359C36.2805 22.5359 35.8262 23.6788 34.9098 24.3718C33.5536 25.3965 31.7459 26.7678 31.1203 27.2646C30.5838 27.6904 29.8162 26.4039 30.7564 25.6684C31.6972 24.9332 35.1174 22.2576 35.1174 22.2576L36.2805 22.5359Z" fill="#CB997B"/>
<path d="M7.89301 21.164C7.93215 21.0213 7.94977 20.8702 7.95366 20.7178C9.19478 21.516 10.5878 22.4117 11.1007 22.7416C12.1046 23.3871 11.4586 24.7384 10.8853 24.3639C10.3239 23.9972 8.69227 23.051 7.20312 22.1981C7.52112 21.9568 7.76862 21.6155 7.89301 21.164Z" fill="#A37C64"/>
<path d="M5.76953 21.3696C5.76953 21.3696 6.92721 23.3615 8.08229 24.0208C9.72926 24.9598 11.8616 26.1882 12.5204 26.6184C13.094 26.9929 13.7398 25.6414 12.7358 24.9961C11.7313 24.3502 7.34835 21.5316 7.34835 21.5316L5.76953 21.3696Z" fill="#BB8D72"/>
<path d="M5.97168 22.5359C5.97168 22.5359 6.42599 23.6788 7.34238 24.3718C8.69857 25.3965 10.5062 26.7678 11.1318 27.2646C11.6683 27.6904 12.4359 26.4039 11.4957 25.6684C10.5549 24.9332 7.13505 22.2576 7.13505 22.2576L5.97168 22.5359Z" fill="#CB997B"/>
<path d="M20.2424 27.0867C20.2424 31.0176 20.6796 30.1264 18.0069 30.1264C15.3352 30.1264 9.59424 24.1055 9.59424 20.1746C9.59424 16.2436 12.7314 19.9691 15.4041 19.9691C18.0763 19.9688 20.2424 23.1552 20.2424 27.0867Z" fill="#432918"/>
<path d="M21.6587 27.0864C21.6587 31.0174 21.683 31.2353 24.5263 31.2353C27.3693 31.2353 32.9872 24.105 32.9872 20.1741C32.9872 16.2431 29.6489 19.9686 26.8062 19.9686C23.9632 19.9686 21.6587 23.155 21.6587 27.0864Z" fill="#432918"/>
<path d="M7.31026 39.343C4.48566 42.5035 5.89705 50.0106 5.89705 50.0106C5.89705 50.0106 18.761 50.0106 22.6783 50.0106C26.7697 50.0106 36.8492 50.0106 36.8492 50.0106C36.8492 50.0106 37.246 42.0759 35.2844 39.343C33.6437 37.0559 28.4685 34.9963 21.6258 34.9963C14.785 34.9963 8.65376 37.8401 7.31026 39.343Z" fill="#F8B894"/>
<path d="M26.1567 35.4981C26.025 35.8425 26.0419 36.6894 25.1859 37.2689C24.6815 37.6113 23.8704 37.8616 22.546 37.8616C18.9761 37.8616 16.9334 35.7803 17.375 35.3418C18.5417 34.1826 18.5301 33.0689 18.3575 31.7161C18.2556 30.9091 18.096 30.0168 18.096 28.9801C18.096 28.7995 18.1258 28.6324 18.1823 28.4761C18.5664 27.4223 20.1524 26.8993 21.7346 26.8633C21.8365 26.8597 21.9375 26.8597 22.0378 26.8633C23.7309 26.8898 25.3305 27.4788 25.3305 28.5738C25.3305 30.9073 24.9788 34.0081 26.1567 35.4981Z" fill="#F8B894"/>
<path d="M18.3569 31.7161C17.9878 30.9106 18.0065 30.1262 18.0065 30.1262C18.0065 30.1262 18.0954 29.3471 18.0954 28.9801C18.0954 28.7995 18.1252 28.6324 18.1817 28.4761C18.564 27.4146 20.1518 26.8916 21.734 26.8633C21.8359 26.8597 21.9369 26.8597 22.0372 26.8633C23.7117 26.8993 25.2905 27.4861 25.3299 28.5738C25.3299 29.9422 25.2086 31.5738 25.3462 32.9904C23.9602 34.1338 20.4323 34.4158 18.3569 31.7161Z" fill="#EFE5E4"/>
<path d="M31.6914 14.7069C31.6175 13.8599 31.737 12.468 31.6543 11.7219C30.5394 10.3128 25.9323 7.65977 21.8347 7.59705C17.1959 7.52656 12.9955 10.2395 11.2951 11.9621C11.2137 12.7075 11.166 16.4767 11.166 16.4767C11.166 16.4767 11.1323 24.9145 14.108 28.3427C15.9727 30.4914 19.6556 33.203 21.4755 33.203C23.2956 33.203 26.844 31.3132 28.8429 28.3427C30.9693 25.1026 31.4394 21.9979 31.6914 14.7069Z" fill="#F8B894"/>
<path d="M12.3203 24.8125C12.7425 26.1741 13.3199 27.4342 14.108 28.3425C15.1833 29.5821 16.8639 31.008 18.4435 31.9936C17.4691 26.6543 13.5648 24.6324 12.3203 24.8125Z" fill="#EFB28F"/>
<path d="M24.2591 32.3574C25.8716 31.5293 27.638 30.1322 28.8421 28.3424C29.5472 27.2687 30.0692 26.2093 30.4623 25.0078C26.3124 25.4784 23.8628 32.5616 24.2591 32.3574Z" fill="#EFB28F"/>
<path d="M17.4195 19.8641C17.1017 20.0284 16.0511 20.044 15.596 19.9318C15.1404 19.8193 14.0659 19.4013 14.0659 19.4013C14.0659 19.4013 14.6037 18.0788 15.9614 17.8707C17.3194 17.6631 18.2003 18.821 18.3193 19.1781C18.3781 19.3538 18.0873 19.5249 17.4195 19.8641Z" fill="#E3D2CE"/>
<path d="M14.1946 19.2561C14.3587 19.3232 14.3009 19.6236 14.0352 19.4419C13.7636 19.2561 13.8372 18.7302 13.8372 18.7302C13.8372 18.7302 13.8489 19.1146 14.1946 19.2561Z" fill="black"/>
<path d="M14.6551 19.4993C14.7577 19.5346 14.4288 19.6854 14.2306 19.4993C13.9387 19.2256 14.0082 18.8708 14.0082 18.8708C14.0082 18.8708 14.1925 19.3407 14.6551 19.4993Z" fill="black"/>
<path d="M14.9605 19.6133C15.0631 19.6483 14.7345 19.7997 14.536 19.6133C14.2444 19.3399 14.3139 18.9846 14.3139 18.9846C14.3139 18.9846 14.4979 19.4547 14.9605 19.6133Z" fill="black"/>
<path d="M17.0884 20.1398C15.8024 20.5475 14.0347 19.4422 14.0347 19.4422C14.0347 19.4422 14.0873 19.3675 14.194 19.2563C15.7361 20.1422 17.1208 20.2427 18.3422 19.2696C18.2248 19.4422 17.8021 19.9131 17.0884 20.1398Z" fill="black"/>
<path d="M13.3005 17.4677C13.3005 17.4677 13.9657 16.7609 14.6846 16.5072C15.9711 16.0524 18.2935 16.707 18.7747 16.4461C19.2557 16.1851 19.3138 15.5763 19.2456 15.5434C18.9836 15.3952 16.0813 15.2848 14.9109 15.8528C13.7413 16.4199 13.2598 17.428 13.2598 17.428L13.3005 17.4677Z" fill="#432918"/>
<path d="M15.3679 19.7835C15.4233 19.8027 15.1364 19.954 14.9237 19.7856C14.6098 19.5381 14.5981 19.1926 14.5981 19.1926C14.5981 19.1926 14.8485 19.6114 15.3679 19.7835Z" fill="black"/>
<path d="M25.4006 19.8641C25.7186 20.0284 26.769 20.044 27.2238 19.9318C27.6792 19.8193 28.7539 19.4013 28.7539 19.4013C28.7539 19.4013 28.2156 18.0788 26.8587 17.8707C25.5004 17.6631 24.6198 18.821 24.5006 19.1781C24.4417 19.3538 24.7328 19.5249 25.4006 19.8641Z" fill="#E3D2CE"/>
<path d="M28.6255 19.2561C28.462 19.3232 28.5198 19.6236 28.7849 19.4419C29.0568 19.2561 28.9834 18.7302 28.9834 18.7302C28.9834 18.7302 28.9718 19.1146 28.6255 19.2561Z" fill="black"/>
<path d="M28.1649 19.4993C28.0623 19.5346 28.3911 19.6854 28.5897 19.4993C28.8812 19.2256 28.8123 18.8708 28.8123 18.8708C28.8123 18.8708 28.6275 19.3407 28.1649 19.4993Z" fill="black"/>
<path d="M27.8596 19.6133C27.7572 19.6483 28.0864 19.7997 28.2844 19.6133C28.5762 19.3399 28.507 18.9846 28.507 18.9846C28.507 18.9846 28.3227 19.4547 27.8596 19.6133Z" fill="black"/>
<path d="M25.7314 20.1398C27.0171 20.5475 28.7845 19.4422 28.7845 19.4422C28.7845 19.4422 28.7319 19.3675 28.6252 19.2563C27.0839 20.1422 25.6984 20.2427 24.4775 19.2696C24.5944 19.4422 25.0171 19.9131 25.7314 20.1398Z" fill="black"/>
<path d="M29.5191 17.4677C29.5191 17.4677 28.8541 16.7609 28.1354 16.5072C26.8487 16.0524 24.5263 16.707 24.0453 16.4461C23.5641 16.1851 23.506 15.5763 23.5744 15.5434C23.8364 15.3952 26.7388 15.2848 27.9092 15.8528C29.0785 16.4199 29.5598 17.428 29.5598 17.428L29.5191 17.4677Z" fill="#432918"/>
<path d="M27.4519 19.7835C27.3961 19.8027 27.6833 19.954 27.8963 19.7856C28.2099 19.5381 28.2216 19.1926 28.2216 19.1926C28.2216 19.1926 27.9707 19.6114 27.4519 19.7835Z" fill="black"/>
<path d="M22.9679 21.8284L21.874 23.2442C21.874 23.2442 21.4005 19.9609 21.762 18.3261C22.1259 16.6822 23.3647 15.8042 23.3647 15.8042C23.3647 15.8042 22.1261 16.894 22.2682 18.556C22.3848 19.9233 22.9679 21.8284 22.9679 21.8284Z" fill="#A07D6D"/>
<path opacity="0.5" d="M25.7352 23.5372C23.6855 23.437 23.4336 19.7449 23.4336 19.7449C23.4336 19.7449 24.1453 18.9664 24.3412 19.5804C24.6693 20.6054 25.9498 20.8526 26.8623 20.9143C28.2822 21.0094 29.4837 20.6966 29.894 21.161C30.4942 21.8413 27.8373 23.6404 25.7352 23.5372Z" fill="#957566"/>
<path opacity="0.5" d="M17.0565 23.5372C19.1064 23.437 19.3581 19.7449 19.3581 19.7449C19.3581 19.7449 18.6469 18.9664 18.4505 19.5804C18.1229 20.6054 16.8421 20.8526 15.9302 20.9143C14.5094 21.0094 13.3077 20.6966 12.8982 21.161C12.298 21.8413 14.9549 23.6404 17.0565 23.5372Z" fill="#957566"/>
<path d="M21.801 26.3411H21.0557C21.0557 26.3411 21.1912 24.9299 21.4099 24.9299C21.6282 24.9299 21.801 26.3411 21.801 26.3411Z" fill="#EFB28F"/>
<path d="M30.3783 15.3425C30.4198 14.9654 30.5126 14.6069 30.6274 14.2612C30.2669 13.7219 30.0337 13.0579 29.994 12.2657C29.9572 11.5431 29.6185 10.8846 29.1315 10.28L21.2968 7.39941C21.3787 7.50412 14.2196 10.28 14.2196 10.28C13.5544 10.9896 13.0581 11.7759 13.014 12.6575C12.9738 13.4503 12.7403 14.1143 12.3804 14.6539C12.496 14.9993 12.4296 19.8938 12.5553 20.0659C12.8577 18.5514 14.1502 19.0902 13.2605 16.4457C12.6227 14.5486 15.3009 9.81532 21.7361 9.81532C28.1718 9.81532 28.1612 15.352 29.2056 16.1171C30.2511 16.8811 29.0406 20.4109 30.4631 20.7721C30.5885 20.6011 30.1599 17.3398 30.3783 15.3425Z" fill="#EBEBEB"/>
<path d="M24.4765 27.0026C24.4765 27.0026 23.134 29.0676 21.3513 29.0676C19.4749 29.0676 18.1172 27.0026 18.1172 27.0026L18.2514 26.9806C18.2514 26.9806 19.1525 27.6355 21.3513 27.6355C23.3046 27.6355 24.35 26.9663 24.35 26.9663L24.4765 27.0026Z" fill="#952473"/>
<path d="M24.4765 27.0028C24.4765 27.0028 23.2672 27.7722 21.2966 27.7722C19.335 27.7722 18.1172 27.0028 18.1172 27.0028C18.1172 27.0028 20.5575 26.6472 20.8944 26.5954C21.0576 26.57 21.2279 26.8128 21.4026 26.8128C21.6045 26.8128 21.7994 26.5752 21.9854 26.6075C22.2721 26.6573 24.4765 27.0028 24.4765 27.0028Z" fill="#AE2A87"/>
<path opacity="0.5" d="M22.7994 27.8892C22.7994 28.0274 21.9276 28.4952 21.2155 28.4669C20.6484 28.4449 19.9033 28.0274 19.9033 27.8892C19.9033 27.7508 20.5359 28.1087 21.2155 28.1087C21.9256 28.1087 22.7994 27.7508 22.7994 27.8892Z" fill="white"/>
<path opacity="0.5" d="M21.9999 26.7285C21.9999 26.8296 21.6493 27.1702 21.3624 27.1494C21.1346 27.1336 20.8345 26.8296 20.8345 26.7285C20.8345 26.6283 21.0884 26.8887 21.3624 26.8887C21.6482 26.8887 21.9999 26.6285 21.9999 26.7285Z" fill="white"/>
<path d="M22.706 24.2187C22.706 24.3244 22.4839 24.4097 22.211 24.4097C21.9381 24.4097 21.8345 24.4097 21.8345 24.4097C21.8345 24.4097 21.9381 24.0264 22.211 24.0264C22.4839 24.0264 22.706 24.1124 22.706 24.2187Z" fill="#E3D2CE"/>
<path d="M19.8877 24.2187C19.8877 24.3244 20.1093 24.4097 20.3819 24.4097C20.6546 24.4097 20.7585 24.4097 20.7585 24.4097C20.7585 24.4097 20.6546 24.0264 20.3819 24.0264C20.1095 24.0264 19.8877 24.1124 19.8877 24.2187Z" fill="#E3D2CE"/>
<path d="M12.1917 21.3926C12.1917 21.3926 12.0899 23.5566 11.0753 23.7012C10.1539 23.8323 9.40937 22.1296 8.81356 21.3506C8.21775 20.571 7.96688 17.437 9.77764 17.3429C11.449 17.2561 12.1917 21.3926 12.1917 21.3926Z" fill="#F8B894"/>
<path d="M8.99206 18.4647C8.26952 19.8282 9.36888 21.5086 9.36888 21.5086C9.36888 21.5086 8.95422 19.6615 9.35463 18.7951C9.75451 17.9288 10.4809 18.4282 10.4809 18.4282C10.4809 18.4282 9.71434 17.1007 8.99206 18.4647Z" fill="#E3D2CE"/>
<path d="M10.5444 21.2145C10.5444 21.4665 10.2858 21.9226 10.2858 21.9226C10.2858 21.9226 9.96625 21.4587 10.0266 21.2145C10.1549 20.6999 10.9443 20.783 10.9443 20.783C10.9443 20.783 10.5444 20.9626 10.5444 21.2145Z" fill="#E3D2CE"/>
<path d="M30.3271 21.3926C30.3271 21.3926 30.4295 23.5566 31.4441 23.7012C32.3652 23.8323 33.1095 22.1296 33.7058 21.3506C34.3016 20.571 34.5523 17.437 32.7412 17.3429C31.0704 17.2561 30.3271 21.3926 30.3271 21.3926Z" fill="#F8B894"/>
<path d="M33.527 18.4647C34.2495 19.8282 33.1497 21.5086 33.1497 21.5086C33.1497 21.5086 33.5643 19.6615 33.1644 18.7951C32.7645 17.9288 32.0376 18.4282 32.0376 18.4282C32.0376 18.4282 32.8042 17.1007 33.527 18.4647Z" fill="#E3D2CE"/>
<path d="M31.9748 21.2145C31.9748 21.4665 32.2335 21.9226 32.2335 21.9226C32.2335 21.9226 32.5533 21.4587 32.4924 21.2145C32.3649 20.6999 31.5752 20.783 31.5752 20.783C31.5752 20.783 31.9748 20.9626 31.9748 21.2145Z" fill="#E3D2CE"/>
<path d="M33.3223 12.6817C32.9872 5.39253 28.0468 1.48853 21.6258 1.48853C14.291 1.48853 10.0369 7.65061 9.63832 12.5532C9.57767 13.3428 9.56808 16.5144 9.62355 17.3562C10.3186 17.3412 11.0399 17.6612 11.2855 19.0179C11.6362 20.2886 11.6989 21.3504 11.6989 21.3504C11.6989 21.3504 13.4254 19.2859 12.6474 17.4819C12.889 12.8154 14.9833 8.90443 21.4584 8.90443C27.9336 8.90443 30.1579 14.9685 30.3269 18.2332C29.9864 19.0226 30.6273 21.5087 30.6273 21.5087L31.5273 18.2332C31.5273 18.2332 32.0376 17.1528 33.1134 17.415C33.1665 16.6181 33.3739 13.4312 33.3223 12.6817Z" fill="#432918"/>
<path d="M31.5751 45.6676C31.6831 46.6719 31.4201 47.496 31.2291 47.496C31.0373 47.496 30.9106 46.677 30.8823 45.6676C30.7958 42.5035 32.3847 41.4531 32.3847 41.4531C32.3847 41.4531 31.3172 43.2709 31.5751 45.6676Z" fill="#DCA585"/>
<path d="M24.3231 36.6421C23.6918 37.1918 23.1245 37.0495 23.1245 37.0495L25.0757 35.2092C25.0757 35.2092 24.9526 36.0924 24.3231 36.6421Z" fill="#DCA585"/>
<path d="M19.1491 36.6421C19.7799 37.1918 20.3472 37.0495 20.3472 37.0495L18.3965 35.2092C18.3965 35.2092 18.5183 36.0924 19.1491 36.6421Z" fill="#DCA585"/>
<path d="M11.2537 45.4705C11.3989 46.4695 11.5432 47.4714 11.7342 47.4572C11.925 47.4424 12.1281 46.4421 11.9563 45.4469C11.4481 42.5038 10.1235 41.5193 10.1235 41.5193C10.1235 41.5193 10.9091 43.102 11.2537 45.4705Z" fill="#DCA585"/>
<path d="M11.103 44.4354L11.7828 50.0107H31.5755V44.4354C31.5755 44.4354 27.6862 43.2126 21.4179 43.2126C15.1488 43.2126 11.103 44.4354 11.103 44.4354Z" fill="white"/>
<path d="M10.6538 8.88343C11.0356 9.13093 24.9751 6.78318 25.3467 6.39315C26.1079 5.59415 27.5882 1.03473 26.6521 0.628363C25.7155 0.221738 18.7137 0.141658 14.9865 2.32717C11.3494 4.46006 9.90873 8.39906 10.6538 8.88343Z" fill="#94CED8"/>
<path d="M22.2702 7.59582C22.3575 8.0421 32.4495 8.76231 32.8214 8.37201C33.5828 7.57328 27.8893 1.56514 26.9527 1.15851C26.0163 0.751889 21.2968 2.58183 22.2702 7.59582Z" fill="#94CED8"/>
<path d="M32.9192 16.7286C32.5123 16.9312 30.7423 12.8844 25.8775 10.3371C20.5391 7.54105 17.1332 9.09757 16.8087 8.66736C16.1437 7.78673 23.9465 6.21906 24.9479 6.02158C27.4452 5.52918 32.1907 7.41302 32.821 8.37192C33.4507 9.33133 33.7154 16.3323 32.9192 16.7286Z" fill="#91C6CF"/>
<path d="M32.9338 15.9964C32.2136 15.286 31.9052 14.5202 31.4167 13.6593C30.8528 12.6651 28.5952 11.4069 27.8333 10.5576C27.0472 9.68192 27.4451 7.0377 25.2761 5.9671C25.195 5.92693 20.3521 7.06491 19.8876 7.20641C18.9106 7.50341 16.1435 7.78693 16.8086 8.66756C17.133 9.09777 20.5392 7.54125 25.8774 10.3373C30.7418 12.8846 32.5122 16.9314 32.9191 16.7288C33.0295 16.6738 33.1181 16.4896 33.1899 16.2156C33.1028 16.1511 33.0173 16.0785 32.9338 15.9964Z" fill="#D1DBE1"/>
<path d="M9.23104 16.4463C9.61252 16.6938 11.8333 12.8758 16.9564 10.9C22.5786 8.7313 25.7847 10.6659 26.1566 10.2756C26.9175 9.47691 26.2833 6.29182 25.347 5.88519C24.4104 5.47857 11.0172 7.27482 10.2825 8.15545C9.54747 9.03634 8.48543 15.9614 9.23104 16.4463Z" fill="#A1D2D9"/>
<path d="M9.23097 16.4461C9.61246 16.6936 11.8332 12.8756 16.9563 10.8998C22.5786 8.73112 25.7846 10.6658 26.1565 10.2755C26.9174 9.47673 26.2833 6.29163 25.3469 5.88501C25.901 8.52768 25.0758 9.27329 25.0758 9.27329C25.0758 9.27329 15.9399 8.59558 9.02883 14.0004C8.92853 15.262 8.96274 16.2712 9.23097 16.4461Z" fill="#D1DBE1"/>
<path d="M42.9165 12.4489V4.98975L32.1289 14.0866C32.1289 14.0866 31.4631 15.1929 31.3193 16.0896C31.1762 16.9866 30.0714 18.4314 29.9994 19.0941C29.9279 19.7573 29.7947 21.4084 29.5047 22.0509C29.2527 22.6094 31.1581 23.4884 32.1263 20.2961C32.351 19.5541 33.2643 18.9751 33.3309 18.9254C33.5211 18.7841 34.0356 20.5249 34.0356 20.5249L33.7733 24.2929C33.7733 24.2929 31.3452 26.3117 31.085 27.6376C30.8795 28.6851 31.6953 29.1718 32.2365 28.6851C32.8652 28.1189 35.3868 25.7991 35.7606 25.0079C36.1343 24.2167 37.2857 20.7784 37.2857 20.7784L36.3994 15.4238L42.9165 12.4489Z" fill="#DEA686"/>
<path d="M12.7474 22.0507C12.4577 21.4083 12.3244 19.7569 12.2529 19.094C12.1816 18.431 11.0763 16.9862 10.933 16.0895C10.7892 15.1928 10.1234 14.0865 10.1234 14.0865L0.92627 3.64795V12.0012L5.85293 15.424L4.96711 20.7785C4.96711 20.7785 6.11779 24.2171 6.49176 25.008C6.86521 25.7992 9.38711 28.119 10.0158 28.6853C10.5567 29.172 11.3731 28.6853 11.1673 27.6377C10.9073 26.3119 8.47952 24.293 8.47952 24.293L8.21674 20.5251C8.21674 20.5251 8.73091 18.7843 8.92088 18.9255C8.98826 18.9753 9.90077 19.5542 10.126 20.2962C11.0947 23.488 12.9996 22.6092 12.7474 22.0507Z" fill="#DEA686"/>
</svg>
