<svg width="22" height="20" viewBox="0 0 22 20" fill="none" xmlns="http://www.w3.org/2000/svg">
<path fill-rule="evenodd" clip-rule="evenodd" d="M0.504303 14.1206V15.9475H0.503348C0.533903 16.7082 0.964532 17.4317 1.57849 18.0183C2.29558 18.7035 3.25425 19.1982 4.12604 19.359C4.55667 19.4385 5.04459 19.4806 5.54398 19.494C6.11116 19.5093 6.69075 19.4863 7.21688 19.4394C8.17459 19.3533 8.79811 19.2356 9.33089 18.9753C9.86178 18.716 10.3211 18.3045 10.9522 17.6298C11.1775 17.3886 11.4134 17.1485 11.6693 16.9303C11.9309 16.7063 12.2136 16.5063 12.5267 16.3513C13.2744 15.9809 13.8339 15.9207 14.6942 15.8278C14.9511 15.8001 15.2356 15.7695 15.5393 15.7293C16.3757 15.6192 16.9553 15.091 17.3487 14.4019C17.7239 13.7426 17.933 12.9397 18.0333 12.199C17.4356 12.7627 16.1952 12.8593 14.9512 12.9569C13.9753 13.0335 12.9976 13.1101 12.42 13.4029C12.1555 13.5378 11.9139 13.7139 11.6886 13.912C11.4594 14.1129 11.2417 14.3417 11.0307 14.5732C10.3757 15.2929 9.89156 15.735 9.30816 16.0278C8.72666 16.3197 8.07163 16.4489 7.07478 16.5417C6.54579 16.5905 5.96144 16.6135 5.3914 16.5982C4.87864 16.5848 4.37642 16.5398 3.93239 16.4556C2.99379 16.2776 1.96446 15.7331 1.19956 14.9809C0.932193 14.7178 0.695404 14.4288 0.505402 14.1206L0.504303 14.1206ZM10.2569 14.6584C9.83395 15.0891 9.4778 15.379 9.08249 15.5771C8.56687 15.8364 7.96151 15.9532 7.02864 16.0393C6.51781 16.0862 5.95349 16.1092 5.40255 16.0939C4.91844 16.0805 4.44388 16.0384 4.02472 15.9589C3.17874 15.7982 2.24777 15.3044 1.55173 14.6211C0.951138 14.0316 0.530996 13.3043 0.504254 12.5397C0.495661 12.289 0.507119 12.0603 0.536718 11.8517C4.4937 10.8239 5.66335 11.9225 6.8149 13.0067C7.66183 13.8038 8.50019 14.5924 10.2581 14.6584L10.2569 14.6584ZM5.56395 9.0008C5.34243 9.17688 5.2794 9.36159 5.31856 9.52617C5.35866 9.69363 5.49234 9.85633 5.67376 9.98646C5.86759 10.1252 6.11013 10.2219 6.34978 10.2448C6.6897 10.2774 7.02675 10.1539 7.19481 9.77497C7.19672 9.77019 7.19863 9.76636 7.20149 9.76157C7.3705 9.38261 7.68465 9.03525 8.08472 8.76538V8.76442C8.10668 8.74911 8.12865 8.73476 8.15156 8.7204C7.88994 8.73188 7.62927 8.74815 7.36955 8.7692C6.76608 8.81896 6.16549 8.89744 5.56586 9.00079L5.56395 9.0008ZM4.17466 15.0698C4.30834 15.108 4.38568 15.2477 4.34749 15.3817C4.30929 15.5157 4.16989 15.5932 4.03622 15.5549C3.48337 15.397 2.97826 15.1559 2.5543 14.863C2.11602 14.5587 1.76464 14.197 1.54027 13.8104C1.47057 13.6898 1.51067 13.5357 1.63098 13.4649C1.75129 13.395 1.90502 13.4352 1.97569 13.5558C2.16475 13.8802 2.46361 14.1864 2.84078 14.4487C3.21891 14.7109 3.67434 14.9271 4.17466 15.0698ZM5.06266 15.2363C5.20111 15.2487 5.30232 15.3712 5.28991 15.509C5.2775 15.6478 5.15528 15.7492 5.01778 15.7368L4.97385 15.7329L4.92993 15.7281C4.79148 15.7138 4.69217 15.5894 4.7065 15.4506C4.72082 15.3119 4.84495 15.2123 4.9834 15.2267L5.02255 15.2315L5.0617 15.2353L5.06266 15.2363ZM10.6713 8.78147L10.6704 8.78051L10.6665 8.77955C10.5577 8.76998 10.6503 8.77764 10.6713 8.78051V8.78147ZM11.7417 9.86091C11.5746 9.7011 11.3989 9.52119 11.2098 9.31832C11.037 9.13363 10.8585 8.94989 10.6713 8.78147C10.6627 8.78051 10.6379 8.77859 10.5873 8.77477C10.2531 8.7451 9.91985 8.72501 9.58759 8.71448C9.56944 8.72214 9.55035 8.72788 9.52934 8.73075C9.09871 8.79678 8.6948 8.96042 8.36444 9.1834V9.18245L8.36349 9.1834C8.0398 9.40159 7.78962 9.67528 7.65882 9.9662L7.65404 9.97864C7.38095 10.5959 6.84243 10.7978 6.302 10.7461C5.97257 10.7145 5.64411 10.5853 5.38154 10.3968C5.10654 10.1997 4.89933 9.93461 4.82964 9.64274C4.78954 9.47623 4.7924 9.30493 4.84969 9.13746C4.62721 9.1834 4.40569 9.23316 4.18416 9.28579L4.02852 9.32311C2.51224 9.6839 1.13827 10.0121 0.669433 11.2983C3.69437 10.5586 5.14658 11.0399 6.20379 11.8151C6.58286 11.4447 7.01158 11.2591 7.489 11.2591C8.01511 11.2591 8.58707 11.4897 9.20675 11.9519C9.42159 12.1117 9.67175 12.1797 9.91619 12.1739C10.0947 12.1691 10.2695 12.1251 10.4261 12.0486C10.5798 11.973 10.7125 11.8667 10.8099 11.7356C10.9207 11.5873 10.9856 11.4045 10.9818 11.1988V11.1777C10.9923 10.882 11.0906 10.5959 11.2768 10.3327C11.3952 10.1653 11.5509 10.0064 11.7418 9.8619L11.7417 9.86091ZM18.1057 11.1164C18.1038 11.1758 18.0914 11.238 18.0675 11.3031C18.0102 11.4609 17.8899 11.6323 17.698 11.8208C17.2377 12.2705 16.0766 12.3614 14.9118 12.4524C13.8863 12.5327 12.858 12.6131 12.1915 12.9519C11.8859 13.1069 11.6109 13.3079 11.355 13.5318C11.1306 13.729 10.9244 13.9405 10.7267 14.1548C8.83616 14.2189 8.00076 13.4333 7.15671 12.639C6.97529 12.4677 6.79291 12.2964 6.601 12.1318C6.87123 11.8859 7.16722 11.7634 7.489 11.7634C7.90531 11.7634 8.37795 11.9605 8.9079 12.3557C9.21726 12.5864 9.57725 12.6849 9.92768 12.6763C10.1807 12.6696 10.428 12.6074 10.6476 12.4993C10.8701 12.3892 11.0658 12.2313 11.2129 12.0342C11.3867 11.8007 11.4888 11.5136 11.4831 11.1902C11.4908 10.995 11.5585 10.8036 11.6855 10.6237C11.7915 10.4744 11.9376 10.3327 12.1257 10.2036C12.3788 10.4103 12.6251 10.5729 12.8925 10.7041C13.4587 10.9806 14.1003 11.1041 15.0752 11.1921C15.5928 11.239 16.1628 11.261 16.7195 11.2467C17.2045 11.2342 17.6801 11.194 18.105 11.1184L18.1057 11.1164ZM21.9918 4.16801C21.9927 4.17662 21.9937 4.18619 21.9937 4.1948V7.38153H21.9927V7.39015C21.9612 8.25812 21.4905 9.06387 20.8183 9.70695C20.1928 10.305 19.3879 10.7644 18.6049 10.9979C18.6097 11.0467 18.6116 11.0964 18.6088 11.1462C18.6011 12.1549 18.3987 13.5721 17.7838 14.6507C17.3188 15.466 16.6217 16.0928 15.6029 16.2268C15.2697 16.2708 14.9947 16.3005 14.7464 16.3273C13.9405 16.4144 13.4163 16.4708 12.7489 16.801C12.4768 16.9359 12.2285 17.112 11.9955 17.311C11.7568 17.5149 11.5334 17.7426 11.3186 17.9732C10.6454 18.6929 10.1479 19.136 9.55209 19.4269C8.95818 19.7168 8.28501 19.846 7.26142 19.9388C6.71715 19.9876 6.11847 20.0106 5.53412 19.9953C5.00896 19.9819 4.49334 19.9369 4.03692 19.8527C3.07444 19.6747 2.01935 19.1321 1.23443 18.3809C0.529757 17.7072 0.0361116 16.8632 0.00362559 15.9541V15.9455H0.00267087V12.5951C0.00267087 12.5855 0.00362565 12.5769 0.00458044 12.5673L0.00362559 12.5549C-0.0937688 9.78437 1.78537 9.33753 3.91563 8.83041L4.07127 8.79309C5.15025 8.53566 6.23591 8.35575 7.32916 8.26581C8.1761 8.19596 9.02782 8.17873 9.88331 8.21988C9.87376 8.2151 9.86517 8.21031 9.85562 8.20553C9.43357 7.99691 9.05452 7.8591 8.62482 7.75481C8.19228 7.64954 7.69671 7.5749 7.05029 7.49356C4.19719 7.13566 4.23826 4.89552 4.26979 3.21886C4.27074 3.15283 4.27265 3.08776 4.27361 3.01407C3.97473 2.03223 5.25518 1.35471 6.90426 0.894409C8.77002 0.372865 11.1179 0.136482 11.8752 0.0695038C12.9303 -0.0233225 13.9787 -0.0214068 15.0194 0.0647187C16.0602 0.150845 17.0924 0.322146 18.1189 0.567129L18.2669 0.602536C20.2978 1.08581 22.0892 1.5126 21.9966 4.15772L21.9956 4.1692L21.9918 4.16801ZM4.76173 3.76322C4.77701 3.77853 4.79228 3.7948 4.80852 3.81011C5.37378 4.36228 6.56638 4.45606 7.76379 4.54984C8.69095 4.62257 9.62002 4.6953 10.1662 4.97283C10.4163 5.1001 10.6455 5.26756 10.8594 5.45515C11.0771 5.64654 11.2833 5.86282 11.4838 6.08291C12.1074 6.76811 12.5695 7.19011 13.1252 7.46956C13.679 7.74804 14.3044 7.87148 15.2526 7.95953C15.7567 8.00642 16.3124 8.02843 16.8548 8.01408C17.3427 8.00068 17.8211 7.95857 18.2441 7.87819C19.1388 7.7088 20.1194 7.19013 20.8498 6.47336C21.0943 6.23316 21.312 5.97 21.4896 5.68961V7.38344H21.4905C21.4619 8.10404 21.0532 8.78827 20.4717 9.34426C19.8453 9.94332 19.0242 10.3893 18.2527 10.5749C18.2498 10.5759 18.2469 10.5759 18.2441 10.5768C18.181 10.5921 18.118 10.6055 18.056 10.617C17.6473 10.6926 17.1832 10.7328 16.7087 10.7452C16.1702 10.7596 15.6183 10.7385 15.1189 10.6926C14.2099 10.6103 13.6179 10.4993 13.1128 10.2524C12.6096 10.0065 12.1732 9.61601 11.5745 8.97582C11.3597 8.74615 11.1353 8.51744 10.8918 8.30977C10.6416 8.09636 10.3724 7.90594 10.0735 7.7576C9.61802 7.53176 9.20648 7.38344 8.73767 7.26955C8.27267 7.15662 7.76372 7.07911 7.10584 6.99681C4.98227 6.72983 4.76362 5.15275 4.75978 3.76598L4.76173 3.76322ZM6.51578 3.92112C6.52246 3.87614 6.54156 3.83308 6.57307 3.79576C6.9464 3.36131 7.40091 2.95363 7.91939 2.76032C8.46652 2.55553 9.06806 2.58519 9.69444 3.05219C9.94939 3.24167 10.2616 3.32875 10.5547 3.32111C10.7132 3.31728 10.8651 3.28474 10.9978 3.22637C11.121 3.17182 11.225 3.09431 11.2986 2.99574C11.3769 2.89047 11.4217 2.7565 11.4189 2.59573V2.57468C11.4418 1.94691 11.7502 1.20238 12.537 0.687552C12.6296 0.627264 12.7289 0.568887 12.8359 0.5153C12.5294 0.525827 12.2219 0.544965 11.9135 0.571761C11.1668 0.637791 8.85141 0.871301 7.03327 1.37944C5.411 1.83305 4.1946 2.50484 5.15891 3.44839C5.41863 3.70296 5.91897 3.83596 6.51575 3.92018L6.51578 3.92112ZM11.8142 3.10771C11.7827 3.17469 11.7455 3.2369 11.7016 3.29527C11.5746 3.46657 11.4008 3.59863 11.2003 3.68763C11.0093 3.77185 10.7916 3.81874 10.5663 3.82448C10.1681 3.83405 9.74318 3.71634 9.39465 3.457C8.9287 3.10962 8.48947 3.08475 8.09321 3.23212C7.72083 3.37183 7.37517 3.66084 7.07534 3.9862C7.31214 4.00916 7.55561 4.02831 7.80005 4.04649C8.77686 4.12304 9.75557 4.1996 10.3916 4.52305C10.6828 4.67138 10.9454 4.86277 11.1889 5.07617C11.4286 5.2867 11.6463 5.51447 11.8544 5.74318C12.4378 6.3834 12.8618 6.77478 13.3488 7.01881C13.8376 7.26379 14.4125 7.37479 15.2976 7.45711C15.7836 7.50208 16.3193 7.52314 16.8425 7.50974C17.3028 7.4973 17.7535 7.45711 18.1516 7.3815C18.439 7.32696 18.7369 7.23222 19.031 7.10303C15.8629 6.86666 15.1696 5.65994 14.5605 4.59858C14.0869 3.77463 13.6715 3.05022 11.8135 3.10764L11.8142 3.10771ZM17.6436 0.976555C17.6732 1.01579 17.7009 1.05503 17.7277 1.09617C18.0227 1.54307 18.164 2.08473 18.1669 2.5144C18.1679 2.52876 18.1669 2.54215 18.165 2.55747C18.0896 3.13739 18.3932 3.52782 18.8362 3.74027C19.0358 3.83596 19.265 3.89816 19.5046 3.92687C19.7472 3.95654 19.9964 3.95175 20.2322 3.91348C20.7918 3.82257 21.2749 3.54696 21.378 3.10484C20.9846 1.76988 19.6383 1.4493 18.1468 1.09427L17.9988 1.05886C17.8804 1.03015 17.762 1.00335 17.6436 0.976555ZM21.4916 3.86955C21.1975 4.15378 20.7726 4.33558 20.3105 4.41023C20.0278 4.45616 19.7309 4.46286 19.4454 4.42745C19.1561 4.39205 18.8725 4.31453 18.6194 4.19396C17.9931 3.89346 17.5634 3.33843 17.6646 2.50875C17.6617 2.16616 17.5462 1.73455 17.3085 1.37475C17.1251 1.09723 16.8692 0.866605 16.537 0.763247C16.0576 0.683818 15.5773 0.622573 15.0961 0.57951C14.0458 0.567069 13.3096 0.785256 12.8112 1.11159C12.1867 1.52022 11.9404 2.1011 11.9213 2.58913V2.60252C13.9732 2.56807 14.4524 3.40254 14.9958 4.34898C15.585 5.37484 16.261 6.55286 19.7959 6.63706C19.815 6.63802 19.8341 6.63994 19.8522 6.64472C20.0823 6.48586 20.301 6.30787 20.4986 6.11264C21.0677 5.55379 21.4659 4.86573 21.4917 4.14129C21.4945 4.04751 21.4955 3.9566 21.4926 3.86951L21.4916 3.86955Z" fill="black"/>
</svg>
