<svg width="14" height="15" viewBox="0 0 14 15" fill="none" xmlns="http://www.w3.org/2000/svg">
<path d="M6.54572 0.000203059C6.44653 -0.00262413 6.34875 0.0241252 6.26481 0.0770463C6.18087 0.129967 6.11458 0.206667 6.07437 0.297382C6.03416 0.388097 6.02185 0.488726 6.039 0.586459C6.05616 0.684192 6.10201 0.774609 6.17072 0.846203C7.05847 1.77176 7.6263 2.95741 7.79093 4.22928C7.95556 5.50115 7.70833 6.79231 7.08549 7.91339C6.46265 9.03448 5.49698 9.9265 4.33011 10.4586C3.16324 10.9908 1.85656 11.135 0.601718 10.8702C0.504774 10.8501 0.404031 10.8592 0.312261 10.8963C0.22049 10.9335 0.141824 10.9971 0.0862352 11.079C0.0306458 11.161 0.000636107 11.2576 1.00006e-05 11.3566C-0.000616106 11.4556 0.0281696 11.5526 0.0827182 11.6352C0.793545 12.7098 1.7692 13.5831 2.91564 14.171C4.06208 14.7589 5.34064 15.0415 6.62806 14.9917C7.91549 14.9419 9.16837 14.5612 10.2659 13.8865C11.3635 13.2117 12.2687 12.2656 12.8943 11.1393C13.52 10.013 13.8449 8.7445 13.8378 7.45613C13.8308 6.16776 13.4919 4.90294 12.8539 3.78358C12.216 2.66423 11.3004 1.7281 10.1955 1.06543C9.0906 0.402758 7.83361 0.0358941 6.54572 0.000203059Z" fill="white"/>
</svg>
