<svg width="50" height="50" viewBox="0 0 50 50" fill="none" xmlns="http://www.w3.org/2000/svg">
<circle cx="25" cy="25" r="25" fill="#FFC639" fill-opacity="0.22"/>
<path d="M25.3034 9.05844L29.6436 6.09391C29.9155 5.90818 30.289 6.00825 30.4316 6.30511L32.7081 11.0426C32.755 11.1402 32.8302 11.2214 32.9239 11.2755C33.0177 11.3296 33.1255 11.3542 33.2335 11.346L38.4745 10.9487C38.8029 10.9238 39.0763 11.1972 39.0514 11.5256L38.6541 16.7666C38.6459 16.8745 38.6705 16.9824 38.7246 17.0762C38.7787 17.1699 38.8599 17.2451 38.9574 17.292L43.695 19.5685C43.9918 19.7111 44.0919 20.0846 43.9062 20.3565L40.9416 24.6967C40.8806 24.7861 40.8479 24.8918 40.8479 25C40.8479 25.1083 40.8806 25.214 40.9416 25.3034L43.9062 29.6436C44.0919 29.9155 43.9918 30.289 43.695 30.4316L38.9574 32.7081C38.8599 32.755 38.7787 32.8302 38.7246 32.9239C38.6705 33.0177 38.6459 33.1255 38.6541 33.2335L39.0514 38.4745C39.0763 38.8029 38.8029 39.0763 38.4745 39.0514L33.2335 38.6541C33.1255 38.6459 33.0177 38.6705 32.9239 38.7246C32.8302 38.7787 32.755 38.8599 32.7081 38.9574L30.4316 43.695C30.289 43.9918 29.9155 44.0919 29.6436 43.9062L25.3034 40.9416C25.214 40.8806 25.1083 40.8479 25 40.8479C24.8918 40.8479 24.7861 40.8806 24.6967 40.9416L20.3565 43.9062C20.0846 44.0919 19.711 43.9918 19.5685 43.695L17.292 38.9574C17.2451 38.8599 17.1699 38.7787 17.0762 38.7246C16.9824 38.6705 16.8745 38.6459 16.7666 38.6541L11.5256 39.0514C11.1972 39.0763 10.9238 38.8029 10.9487 38.4745L11.346 33.2335C11.3542 33.1255 11.3296 33.0177 11.2755 32.9239C11.2214 32.8302 11.1402 32.755 11.0426 32.7081L6.30503 30.4316C6.00818 30.289 5.90811 29.9155 6.09384 29.6436L9.05836 25.3034C9.11942 25.214 9.15208 25.1083 9.15208 25C9.15208 24.8918 9.11942 24.7861 9.05836 24.6967L6.09391 20.3564C5.90818 20.0845 6.00825 19.711 6.30511 19.5684L11.0426 17.2919C11.1402 17.245 11.2214 17.1698 11.2755 17.0761C11.3296 16.9823 11.3542 16.8745 11.346 16.7665L10.9487 11.5255C10.9238 11.1971 11.1972 10.9237 11.5256 10.9486L16.7666 11.3459C16.8745 11.3541 16.9824 11.3295 17.0762 11.2754C17.1699 11.2213 17.2451 11.1401 17.292 11.0426L19.5685 6.30503C19.7111 6.00818 20.0846 5.90811 20.3565 6.09384L24.6967 9.05836C24.7861 9.11943 24.8918 9.1521 25 9.15212C25.1083 9.15213 25.214 9.11948 25.3034 9.05844Z" fill="#FFC639"/>
<path d="M24.5 40C32.5081 40 39 33.732 39 26C39 18.268 32.5081 12 24.5 12C16.4919 12 10 18.268 10 26C10 33.732 16.4919 40 24.5 40Z" fill="#FFE564"/>
</svg>
