<svg width="15" height="15" viewBox="0 0 15 15" fill="none" xmlns="http://www.w3.org/2000/svg">
<path fill-rule="evenodd" clip-rule="evenodd" d="M1 7.5C1 3.91 3.91 1 7.5 1C11.09 1 14 3.91 14 7.5C14 8.3925 13.82 9.243 13.495 10.017C13.1828 9.97282 12.8646 10.0138 12.5738 10.1356C12.283 10.2573 12.0305 10.4554 11.843 10.7088C11.6554 10.9623 11.5399 11.2617 11.5085 11.5754C11.477 11.8891 11.531 12.2054 11.6645 12.491C10.4969 13.4679 9.0224 14.0022 7.5 14C6.5595 14 5.6655 13.8 4.8585 13.441C5.00964 13.0905 5.04205 12.7002 4.9508 12.3296C4.85954 11.959 4.64963 11.6284 4.35304 11.3882C4.05645 11.1479 3.68946 11.0112 3.30798 10.9989C2.9265 10.9866 2.55146 11.0994 2.24 11.32C1.43192 10.2104 0.997656 8.87263 1 7.5ZM7.5 0C3.358 0 0 3.358 0 7.5C0 11.642 3.358 15 7.5 15C11.642 15 15 11.642 15 7.5C15 3.358 11.642 0 7.5 0ZM8 2.25C8 2.44891 7.92098 2.63968 7.78033 2.78033C7.63968 2.92098 7.44891 3 7.25 3C7.05109 3 6.86032 2.92098 6.71967 2.78033C6.57902 2.63968 6.5 2.44891 6.5 2.25C6.5 2.05109 6.57902 1.86032 6.71967 1.71967C6.86032 1.57902 7.05109 1.5 7.25 1.5C7.44891 1.5 7.63968 1.57902 7.78033 1.71967C7.92098 1.86032 8 2.05109 8 2.25ZM6 5.75C6 5.97981 5.95474 6.20738 5.86679 6.4197C5.77884 6.63202 5.64994 6.82493 5.48744 6.98744C5.32493 7.14994 5.13202 7.27884 4.9197 7.36679C4.70738 7.45474 4.47981 7.5 4.25 7.5C4.02019 7.5 3.79262 7.45474 3.5803 7.36679C3.36798 7.27884 3.17507 7.14994 3.01256 6.98744C2.85006 6.82493 2.72116 6.63202 2.63321 6.4197C2.54527 6.20738 2.5 5.97981 2.5 5.75C2.5 5.28587 2.68437 4.84075 3.01256 4.51256C3.34075 4.18437 3.78587 4 4.25 4C4.71413 4 5.15925 4.18437 5.48744 4.51256C5.81563 4.84075 6 5.28587 6 5.75ZM10.75 6.5C11.0815 6.5 11.3995 6.3683 11.6339 6.13388C11.8683 5.89946 12 5.58152 12 5.25C12 4.91848 11.8683 4.60054 11.6339 4.36612C11.3995 4.1317 11.0815 4 10.75 4C10.4185 4 10.1005 4.1317 9.86612 4.36612C9.6317 4.60054 9.5 4.91848 9.5 5.25C9.5 5.58152 9.6317 5.89946 9.86612 6.13388C10.1005 6.3683 10.4185 6.5 10.75 6.5ZM9 10.25C9 10.5815 8.8683 10.8995 8.63388 11.1339C8.39946 11.3683 8.08152 11.5 7.75 11.5C7.41848 11.5 7.10054 11.3683 6.86612 11.1339C6.6317 10.8995 6.5 10.5815 6.5 10.25C6.5 9.91848 6.6317 9.60054 6.86612 9.36612C7.10054 9.1317 7.41848 9 7.75 9C8.08152 9 8.39946 9.1317 8.63388 9.36612C8.8683 9.60054 9 9.91848 9 10.25Z" fill="white"/>
<path d="M8 2.25C8 2.44891 7.92098 2.63968 7.78033 2.78033C7.63968 2.92098 7.44891 3 7.25 3C7.05109 3 6.86032 2.92098 6.71967 2.78033C6.57902 2.63968 6.5 2.44891 6.5 2.25C6.5 2.05109 6.57902 1.86032 6.71967 1.71967C6.86032 1.57902 7.05109 1.5 7.25 1.5C7.44891 1.5 7.63968 1.57902 7.78033 1.71967C7.92098 1.86032 8 2.05109 8 2.25ZM6 5.75C6 5.97981 5.95474 6.20738 5.86679 6.4197C5.77884 6.63202 5.64994 6.82493 5.48744 6.98744C5.32493 7.14994 5.13202 7.27884 4.9197 7.36679C4.70738 7.45474 4.47981 7.5 4.25 7.5C4.02019 7.5 3.79262 7.45474 3.5803 7.36679C3.36798 7.27884 3.17507 7.14994 3.01256 6.98744C2.85006 6.82493 2.72116 6.63202 2.63321 6.4197C2.54527 6.20738 2.5 5.97981 2.5 5.75C2.5 5.28587 2.68437 4.84075 3.01256 4.51256C3.34075 4.18437 3.78587 4 4.25 4C4.71413 4 5.15925 4.18437 5.48744 4.51256C5.81563 4.84075 6 5.28587 6 5.75ZM10.75 6.5C11.0815 6.5 11.3995 6.3683 11.6339 6.13388C11.8683 5.89946 12 5.58152 12 5.25C12 4.91848 11.8683 4.60054 11.6339 4.36612C11.3995 4.1317 11.0815 4 10.75 4C10.4185 4 10.1005 4.1317 9.86612 4.36612C9.6317 4.60054 9.5 4.91848 9.5 5.25C9.5 5.58152 9.6317 5.89946 9.86612 6.13388C10.1005 6.3683 10.4185 6.5 10.75 6.5ZM9 10.25C9 10.5815 8.8683 10.8995 8.63388 11.1339C8.39946 11.3683 8.08152 11.5 7.75 11.5C7.41848 11.5 7.10054 11.3683 6.86612 11.1339C6.6317 10.8995 6.5 10.5815 6.5 10.25C6.5 9.91848 6.6317 9.60054 6.86612 9.36612C7.10054 9.1317 7.41848 9 7.75 9C8.08152 9 8.39946 9.1317 8.63388 9.36612C8.8683 9.60054 9 9.91848 9 10.25Z" fill="white"/>
<path d="M7.5 0C3.358 0 0 3.358 0 7.5C0 11.642 3.358 15 7.5 15C11.642 15 15 11.642 15 7.5C15 3.358 11.642 0 7.5 0ZM1 7.5C1 3.91 3.91 1 7.5 1C11.09 1 14 3.91 14 7.5C14 8.3925 13.82 9.243 13.495 10.017C13.1828 9.97282 12.8646 10.0138 12.5738 10.1356C12.283 10.2573 12.0305 10.4554 11.843 10.7088C11.6554 10.9623 11.5399 11.2617 11.5085 11.5754C11.477 11.8891 11.531 12.2054 11.6645 12.491C10.4969 13.4679 9.0224 14.0022 7.5 14C6.5595 14 5.6655 13.8 4.8585 13.441C5.00964 13.0905 5.04205 12.7002 4.9508 12.3296C4.85954 11.959 4.64963 11.6284 4.35304 11.3882C4.05645 11.1479 3.68946 11.0112 3.30798 10.9989C2.9265 10.9866 2.55146 11.0994 2.24 11.32C1.43192 10.2104 0.997656 8.87263 1 7.5Z" fill="white"/>
</svg>
