<svg width="22" height="22" viewBox="0 0 22 22" fill="none" xmlns="http://www.w3.org/2000/svg">
<path d="M0 11C0 4.92498 4.92498 0 11 0C17.075 0 22 4.92498 22 11C22 17.075 17.075 22 11 22C4.92498 22 0 17.075 0 11Z" fill="#FDE364"/>
<path d="M7.87303 16.6998C7.87303 15.6745 8.70437 14.8432 9.72966 14.8432C10.7553 14.8432 11.5866 15.6745 11.5866 16.6998C11.5866 17.7251 10.7553 18.5564 9.72966 18.5564C8.70437 18.5564 7.87303 17.7251 7.87303 16.6998ZM8.43997 9.67031C8.43997 11.0797 9.84327 12.2219 11.5745 12.2219C13.3056 12.2219 14.7089 11.0797 14.7089 9.67031C14.7089 8.2609 13.3056 7.1187 11.5745 7.1187C9.84327 7.1187 8.43997 8.2609 8.43997 9.67031ZM18.7839 18.7714C18.1466 18.2884 17.2338 17.9856 16.2196 17.9856C14.2938 17.9856 12.7324 19.0766 12.7324 20.4223C12.7324 20.9154 12.9426 21.3738 13.3029 21.7574C15.4191 21.3064 17.3102 20.2476 18.7839 18.7714ZM21.9981 10.9064C21.9775 8.42661 21.1364 6.14269 19.7327 4.31237C18.3111 4.75268 17.2783 6.07779 17.2783 7.64397C17.2783 9.56982 18.8397 11.1313 20.7656 11.1313C21.1996 11.1313 21.6148 11.0513 21.9981 10.9064ZM13.0869 0.198705C12.3989 0.0664058 11.6999 -0.000128954 10.9993 1.87631e-07C9.3326 1.87631e-07 7.75291 0.371362 6.33733 1.03471C6.94335 2.19433 8.15674 2.98625 9.55581 2.98625C11.2705 2.98625 12.7068 1.7971 13.0869 0.198705ZM4.72046 5.60861C3.69517 5.60861 2.86383 6.28556 2.86383 7.12028C2.86383 7.95501 3.69517 8.632 4.72046 8.632C5.7461 8.632 6.57744 7.95506 6.57744 7.12028C6.57744 6.28556 5.7461 5.60861 4.72046 5.60861ZM1.86304 11.9025C1.23974 11.9018 0.626858 12.0624 0.0839844 12.3686C0.39841 14.9013 1.57392 17.1664 3.30814 18.8629C4.59387 18.3043 5.49345 17.0238 5.49345 15.5325C5.49345 13.5277 3.86791 11.9025 1.86304 11.9025Z" fill="#FFC63A"/>
</svg>
