<svg width="23" height="23" viewBox="0 0 23 23" fill="none" xmlns="http://www.w3.org/2000/svg">
<path d="M15.5769 20.0596L15.6051 20.6112C15.613 20.7708 15.4902 20.9079 15.3315 20.9158C15.1738 20.9237 15.0398 20.8026 15.0297 20.644C15.0297 20.6429 15.0285 20.6417 15.0285 20.6406L14.9429 18.9338L14.8529 17.133L14.8033 16.1386L14.7999 16.0718C14.7921 15.9121 14.9148 15.7751 15.0736 15.7671C15.2324 15.7592 15.3686 15.8826 15.3765 16.0423L15.4249 16.996L15.4778 18.0459L15.524 18.9587L15.5769 20.0596ZM18.8696 9.97403H14.9958C14.837 9.97403 14.7075 10.1043 14.7075 10.264C14.7075 10.4237 14.837 10.5539 14.9958 10.5539H18.8696C19.0284 10.5539 19.1579 10.4237 19.1579 10.264C19.1579 10.1043 19.0284 9.97403 18.8696 9.97403ZM22.1906 14.3617C22.1906 14.3855 22.1917 14.4104 22.1872 14.4342L21.0499 22.086C21.0082 22.3646 20.7661 22.5741 20.4857 22.5741L12.0986 22.5753C11.8306 22.5753 11.5997 22.3827 11.5434 22.1222C10.8363 22.5073 10.1628 22.5526 9.89145 22.5526C9.85992 22.5526 9.83515 22.5515 9.81488 22.5515C9.36782 22.8199 8.77213 23 7.90955 23C7.51542 23 7.06386 22.9604 6.54923 22.8777C6.50081 22.8822 6.45239 22.8879 6.40396 22.8879C6.02335 22.8879 5.62135 22.752 5.20583 22.4926C4.9716 22.633 4.69685 22.7067 4.37816 22.7067C3.90296 22.7067 3.33091 22.547 2.67326 22.2366C2.61921 22.2446 2.56516 22.2559 2.50998 22.2559C1.78142 22.2559 0.950345 21.616 0.48867 20.6533C0.276966 20.2127 0.180128 19.7631 0.194772 19.344L0.158738 19.2976C0.141846 19.2557 -0.244388 18.2568 0.253327 17.3722C0.379448 17.148 0.550598 16.9532 0.762308 16.789C0.882799 16.2986 1.27129 15.1195 2.29378 14.8092C2.33094 14.7979 2.36923 14.7911 2.40638 14.782C2.50773 14.457 2.75886 13.8964 3.33654 13.5758C3.86691 13.2814 4.53467 13.2666 5.32069 13.5237C5.97605 13.0933 7.80707 12.1703 9.88929 13.5554C9.72939 13.2191 9.60214 12.8 9.62691 12.3255C9.6652 11.5916 10.0503 10.9131 10.7722 10.3083C10.8544 9.76697 11.3217 7.70228 13.584 6.82007C13.62 6.80648 13.6515 6.78949 13.6876 6.77704C13.6955 6.59469 13.7225 6.41687 13.7653 6.2436C13.8869 5.75998 14.1414 5.32168 14.5062 4.97738C14.1324 4.77351 13.8114 4.53907 13.5277 4.29103C13.3599 4.1438 13.2056 3.99317 13.066 3.83913C12.5998 3.32382 12.2856 2.78696 12.0784 2.33733C11.9849 2.13573 11.9129 1.95226 11.8588 1.79821C11.7608 1.51733 11.7192 1.32932 11.7135 1.30102L11.6482 0.979361L11.9737 0.953312C14.3137 0.76757 15.4388 1.72687 15.9588 2.49814C16.2696 1.17303 16.9306 0.32246 17.899 0.021183C18.0882 -0.0377096 18.2966 0.0291109 18.4215 0.185408L18.8607 0.738092C18.9654 0.869473 18.9958 1.04389 18.9418 1.20359C18.8877 1.36102 18.7605 1.47881 18.5995 1.51731C18.2763 1.59545 17.5646 1.96468 17.1525 3.6205C17.1029 3.81757 17.059 4.03503 17.0196 4.27061C17.0139 4.30119 17.0083 4.3295 17.0038 4.36121C18.0837 4.66475 18.8494 5.62631 18.9012 6.76569C19.3111 6.91179 19.6625 7.09753 19.9676 7.30593C20.7086 7.80994 21.1635 8.45097 21.4406 9.02293C21.7131 9.58582 21.8178 10.0807 21.8516 10.3084C22.5734 10.9132 22.9585 11.5916 22.9968 12.3255C23.0543 13.4151 22.3167 14.2303 22.1906 14.3617ZM16.3948 3.35179C16.3891 3.39596 16.3835 3.44127 16.379 3.4843V3.48544V3.48657C16.3621 3.64626 16.3531 3.81049 16.3464 3.97584C16.3441 4.03814 16.3407 4.10043 16.3385 4.16385V4.17291C16.3373 4.20123 16.3373 4.23068 16.3373 4.25899L16.4319 4.26239C16.4781 3.96679 16.5333 3.69837 16.5952 3.45259C17.0276 1.73785 17.7945 1.1727 18.3249 0.992617L18.0084 0.593949C16.9139 0.977888 16.5243 2.27246 16.3948 3.35179ZM15.0221 4.59082C15.0379 4.58176 15.0559 4.5761 15.0728 4.56704C15.0761 4.56477 15.0795 4.56364 15.0829 4.56138C14.6989 3.84673 14.3082 3.34725 13.9985 3.01994C13.8296 2.84099 13.6832 2.71075 13.5762 2.62806C13.476 2.54991 13.44 2.4174 13.485 2.29848C13.4873 2.29168 13.4918 2.28715 13.494 2.28149C13.5695 2.11614 13.7789 2.05498 13.9253 2.16824C13.994 2.22147 14.0728 2.28942 14.1539 2.36417C14.3881 2.57936 14.6651 2.87948 14.9545 3.27589C15.1764 3.57943 15.405 3.93617 15.6245 4.35183C15.664 4.34163 15.7022 4.32918 15.7417 4.32011C15.7473 4.31898 15.7518 4.31672 15.7574 4.31558C15.7586 4.23744 15.7619 4.15929 15.7653 4.08227C15.7664 4.0381 15.7676 3.99393 15.7698 3.94976C15.7743 3.86368 15.7811 3.77987 15.7878 3.69493C15.7923 3.62244 15.7957 3.54996 15.8025 3.47861C15.7777 3.39027 15.7079 3.18075 15.557 2.93045C15.1876 2.31772 14.3239 1.45923 12.3747 1.51246C12.3983 1.58268 12.4276 1.6631 12.4614 1.75031C12.556 1.99268 12.6923 2.29394 12.8859 2.61673C12.9963 2.80134 13.1258 2.99276 13.2756 3.18302C13.4073 3.35064 13.556 3.51824 13.7226 3.68137C14.0706 4.02228 14.4985 4.34165 15.0221 4.59082ZM14.2823 6.58303C14.2676 6.6793 14.2586 6.7767 14.2586 6.87636L14.262 6.9681C14.2845 7.53552 14.5345 8.035 14.9185 8.39061C15.0851 8.54464 15.2755 8.67036 15.4849 8.76208C15.6155 8.81871 15.7506 8.86741 15.8937 8.89573C16.0828 8.9331 16.2799 8.94443 16.4837 8.92631C17.0659 8.87421 17.5659 8.56388 17.8992 8.1165C18.1571 7.76994 18.3136 7.34181 18.3294 6.88765L18.3305 6.8684C18.3215 5.87286 17.611 5.03362 16.6313 4.8694C16.6031 4.86487 16.5784 4.86261 16.5513 4.85921C16.4601 4.84675 16.3745 4.83882 16.2946 4.83882C16.2146 4.83996 16.1448 4.84335 16.0772 4.85128H16.0761C15.9849 4.86147 15.8959 4.87846 15.8081 4.89998C15.5919 4.95321 15.387 5.04042 15.1966 5.16274C14.6944 5.48553 14.3678 6.00315 14.2823 6.58303ZM2.84921 19.8829C2.79629 19.773 2.73773 19.67 2.67692 19.5726C2.65665 19.5408 2.63526 19.5137 2.61499 19.4831C2.57219 19.4208 2.52828 19.3585 2.48323 19.3019C2.45733 19.2702 2.43143 19.2418 2.40441 19.2124C2.36162 19.1637 2.3177 19.1173 2.27379 19.0742C2.24563 19.047 2.21748 19.0221 2.1882 18.9961C2.14429 18.9576 2.09924 18.9213 2.05532 18.8885C2.02605 18.867 1.99789 18.8466 1.96862 18.8273C1.92357 18.7979 1.87853 18.7718 1.83349 18.748C1.80533 18.7333 1.77718 18.7175 1.75016 18.705C1.70286 18.6835 1.65782 18.6676 1.61165 18.6529C1.588 18.645 1.56323 18.6348 1.53958 18.6291C1.48215 18.6155 1.42585 18.6076 1.37292 18.6053C1.36391 18.6053 1.35265 18.6019 1.34364 18.6019C1.27833 18.6019 1.21752 18.6099 1.16122 18.6291C0.859422 18.7277 0.786229 19.0799 0.769336 19.2815C0.741184 19.6224 0.825639 20.0188 1.00806 20.3994C1.4461 21.3133 2.20283 21.7641 2.65326 21.6565H2.65438C2.67353 21.652 2.69267 21.6486 2.71294 21.6474C2.84807 21.5976 2.95054 21.4934 3.01698 21.3371C3.17013 20.977 3.10596 20.4197 2.84921 19.8829ZM5.36376 19.7764L5.36151 19.7674C5.33673 19.6292 4.73428 16.3878 2.31558 16.7853C1.53181 16.9144 1.00706 17.2078 0.753696 17.6574C0.629826 17.8771 0.582532 18.1127 0.575775 18.3256C0.584783 18.3166 0.594918 18.312 0.603927 18.303C0.644464 18.2656 0.688383 18.2316 0.73455 18.201C0.751442 18.1897 0.768334 18.1784 0.786351 18.1682C0.848284 18.1331 0.912472 18.1014 0.982289 18.0787C1.7773 17.8194 2.8268 18.5023 3.36732 19.6315C3.6995 20.3246 3.76595 21.0472 3.54524 21.566C3.51371 21.6384 3.47655 21.7053 3.43601 21.7676C3.42362 21.7868 3.40898 21.8038 3.39547 21.8219C3.37745 21.8468 3.36056 21.874 3.34029 21.8967C4.09477 22.1866 4.66117 22.2036 4.99338 21.9408C5.57556 21.4844 5.45722 20.2238 5.36376 19.7764ZM7.88955 20.8897C8.05509 20.482 8.1204 19.3642 7.92559 18.1443C7.87491 18.0345 7.85352 17.9122 7.8614 17.7898C7.56975 16.3311 6.89072 14.809 5.55631 14.2291C4.73539 13.8712 4.08114 13.8225 3.61382 14.0818C3.3064 14.2517 3.13185 14.527 3.03164 14.7512C3.8886 14.8531 4.89529 15.501 6.03721 16.6936C6.1487 16.8102 6.14194 16.9982 6.02483 17.1081C5.90884 17.2157 5.72868 17.2078 5.61945 17.0934C4.31206 15.7286 3.22428 15.1306 2.45965 15.3628C1.96644 15.5123 1.66914 15.9846 1.49572 16.3979C1.7153 16.3187 1.95629 16.2564 2.22315 16.2122C4.60593 15.8215 5.68824 18.2939 5.92895 19.661C5.95372 19.7788 6.23187 21.2206 5.64292 22.0825C5.95824 22.2547 6.24989 22.3272 6.51675 22.3L6.519 22.2864C6.53701 22.2898 6.55391 22.2909 6.57192 22.2943C6.61922 22.2864 6.66651 22.2762 6.71268 22.2626C7.32864 22.0735 7.71503 21.3212 7.88955 20.8897ZM10.5234 20.9917C10.6192 20.8569 10.7498 20.6315 10.8849 20.3427C10.9604 20.1819 11.0358 20.0018 11.109 19.8047C11.1304 19.7481 11.1484 19.6835 11.1687 19.6235L10.4491 14.7806C10.3455 14.6685 10.2352 14.5586 10.1124 14.4522C8.35912 12.9232 6.78138 13.3774 5.98314 13.7942C7.20719 14.4295 7.93013 15.7886 8.30288 17.1873C8.35693 17.3889 8.4031 17.5916 8.44251 17.7921C8.45152 17.8397 8.46165 17.8872 8.47066 17.9348C8.54273 18.3346 8.58778 18.7276 8.6103 19.098C8.6621 19.9689 8.5844 20.7108 8.42337 21.1083C8.24882 21.5398 7.97181 22.045 7.56981 22.4085C9.43573 22.5138 9.96048 21.7833 10.5068 21.0154L10.5234 20.9917ZM11.448 21.5047L11.3365 20.7538C11.2227 20.9758 11.1056 21.1695 10.9919 21.3292L10.9739 21.3541C10.85 21.5285 10.7216 21.7063 10.5786 21.8785C10.8432 21.8117 11.1473 21.6973 11.448 21.5047ZM21.6008 14.4624H20.1909V14.4635L19.8846 17.0084L19.4331 20.7573C19.4139 20.9159 19.2698 21.0291 19.1121 21.0099C18.9545 20.9906 18.8419 20.8456 18.861 20.6871L19.2416 17.5238L19.3407 16.7038L19.5581 14.8951L19.6099 14.4625H13.0233L13.1618 15.6086L13.5447 18.7855L13.7609 20.5761L13.7744 20.686C13.7935 20.8445 13.6809 20.9895 13.5233 21.0088C13.4951 21.0122 13.4692 21.0065 13.4433 21.002C13.3195 20.9816 13.2181 20.8864 13.2024 20.7551L13.1461 20.2896L12.9648 18.7866L12.6044 15.7968L12.4884 14.8307L12.4445 14.4615L11.8218 14.4626H10.9772L11.199 15.9463L11.5031 17.9781L11.7632 19.7144L12.1044 22.0022H12.8082L20.487 21.9977L21.6008 14.4624ZM22.4217 12.3501C22.3902 11.7725 22.058 11.2243 21.4398 10.7192C21.4341 10.718 21.4262 10.7158 21.4206 10.7135C21.3046 10.6795 21.1132 10.6342 20.8452 10.5957C20.6335 10.5651 20.3767 10.5402 20.0682 10.53C19.9139 10.5255 19.7912 10.3964 19.7912 10.2412C19.7912 10.077 19.9286 9.94563 20.093 9.95128C20.388 9.96034 20.6369 9.98412 20.8531 10.0136C20.9905 10.0317 21.1166 10.0521 21.2236 10.0725C21.1639 9.82329 21.0558 9.48467 20.8632 9.12337C20.6887 8.79606 20.4455 8.45062 20.1042 8.13462C19.9308 7.97379 19.7315 7.82316 19.5041 7.68385C19.3104 7.56606 19.0987 7.4562 18.8611 7.36332C18.8543 7.40183 18.8442 7.4392 18.8352 7.47771C18.834 7.47997 18.834 7.48224 18.8329 7.48564C18.8002 7.62947 18.7552 7.76765 18.7012 7.90017C18.5908 8.16859 18.4377 8.41321 18.2507 8.62615C18.1528 8.73827 18.0458 8.84134 17.9309 8.93534C17.923 8.941 17.9151 8.94666 17.9073 8.95346C17.8543 8.99536 17.8003 9.035 17.744 9.07238C17.7271 9.08371 17.7102 9.0939 17.6933 9.10523C17.6449 9.13581 17.5953 9.16525 17.5447 9.19357C17.5221 9.20603 17.4996 9.21735 17.4771 9.22981C17.4298 9.2536 17.3825 9.27625 17.3341 9.29663C17.3071 9.30796 17.2812 9.31928 17.2541 9.33061C17.208 9.34873 17.1595 9.36572 17.1122 9.38158C17.083 9.39177 17.0537 9.40083 17.0244 9.40989C16.976 9.42348 16.9264 9.43594 16.8769 9.44727C16.8465 9.45406 16.8172 9.46199 16.7868 9.46765C16.7328 9.47785 16.6776 9.48464 16.6224 9.49257C16.5954 9.49597 16.5695 9.5005 16.5425 9.50276C16.4602 9.51069 16.3769 9.51522 16.2925 9.51522C16.208 9.51522 16.1258 9.51069 16.0436 9.50276C16.0166 9.5005 15.9895 9.49483 15.9625 9.49144C15.9085 9.48464 15.8544 9.47785 15.8004 9.46765C15.7688 9.46199 15.7384 9.45406 15.7069 9.44613C15.6596 9.43481 15.6123 9.42461 15.565 9.41103C15.5324 9.40196 15.5008 9.39064 15.4693 9.38045C15.4648 9.37931 15.4603 9.37705 15.4558 9.37592C15.4164 9.36232 15.3781 9.34987 15.3398 9.33401C15.3083 9.32155 15.2767 9.30796 15.2452 9.29437C15.2035 9.27625 15.163 9.25699 15.1236 9.23661C15.0932 9.22075 15.0628 9.2049 15.0324 9.18904C14.993 9.16752 14.9547 9.14487 14.9164 9.12108C14.8871 9.10296 14.859 9.08484 14.8308 9.06559C14.7936 9.04067 14.7576 9.01349 14.7216 8.98631C14.6957 8.96592 14.6687 8.94667 14.6428 8.92628C14.6067 8.89683 14.5718 8.86512 14.5369 8.83341C14.5144 8.81189 14.4907 8.79263 14.4682 8.76998C14.4547 8.75639 14.4412 8.74167 14.4288 8.72808C14.4063 8.7043 14.3826 8.68051 14.3612 8.65559C14.3443 8.63634 14.3263 8.61822 14.3094 8.59897C14.2588 8.54007 14.2115 8.47891 14.1664 8.41436C14.1585 8.40303 14.1518 8.39057 14.1439 8.37925C14.1079 8.32602 14.0718 8.27165 14.0392 8.21502C14.0245 8.1901 14.0121 8.16406 13.9986 8.13914C13.975 8.09497 13.9513 8.0508 13.9299 8.00436C13.9164 7.97492 13.904 7.94434 13.8917 7.91489C13.8736 7.87185 13.8556 7.82768 13.8399 7.78238C13.8286 7.75066 13.8185 7.71782 13.8083 7.68498C13.7948 7.64081 13.7813 7.59663 13.77 7.55133C13.761 7.51735 13.7532 7.48224 13.7464 7.44713C13.7408 7.42335 13.734 7.39957 13.7295 7.37578C12.0956 8.03493 11.5708 9.37251 11.4053 10.0577C11.6845 9.9977 12.0854 9.93654 12.6215 9.91956C12.7847 9.91389 12.9221 10.0453 12.9221 10.2095C12.9221 10.3647 12.7994 10.4938 12.6451 10.4983C11.7927 10.5255 11.3163 10.6705 11.1913 10.7135C10.5686 11.2209 10.2353 11.7713 10.2038 12.3501C10.1666 13.0194 10.5371 13.5767 10.7353 13.8247C10.8062 13.793 10.8839 13.776 10.9627 13.776H21.6255C21.7156 13.776 21.8023 13.7986 21.88 13.8383C22.0737 13.5982 22.4588 13.033 22.4217 12.3501ZM16.2575 8.46981C16.3329 8.48114 16.4196 8.48793 16.5097 8.48906C16.5165 8.48906 16.5221 8.4902 16.53 8.4902C16.7203 8.4902 16.9365 8.45848 17.1471 8.36221C17.1944 8.34069 17.236 8.30898 17.2799 8.28293C17.5716 8.10625 17.7934 7.82764 17.9319 7.43915C18.2709 6.49006 17.8407 5.82409 17.4185 5.48205C17.2766 5.36653 17.0637 5.41976 16.9838 5.58398V5.58512C16.9241 5.7063 16.9545 5.85241 17.0592 5.9362C17.298 6.12761 17.6392 6.54212 17.3892 7.2432C17.2845 7.53653 17.1234 7.73473 16.9117 7.83328C16.7124 7.92615 16.4951 7.92049 16.3386 7.89671C16.2057 7.87632 16.0784 7.95221 16.0289 8.07792C15.9636 8.25121 16.0739 8.44261 16.2575 8.46981ZM17.5615 15.7659C17.4027 15.7579 17.2664 15.8814 17.2585 16.0411L17.1493 18.2168L17.12 18.8034L17.0288 20.6099C17.0209 20.7696 17.1437 20.9066 17.3025 20.9146C17.4612 20.9225 17.5975 20.799 17.6054 20.6394L17.7022 18.7162L17.7394 17.9835L17.8351 16.0705C17.843 15.9108 17.7214 15.7749 17.5615 15.7659Z" fill="black"/>
</svg>
