<svg width="13" height="14" viewBox="0 0 13 14" fill="none" xmlns="http://www.w3.org/2000/svg">
<path d="M12.1812 5.53059L2.57688 0.208511C2.30537 0.0579828 2.00362 -0.0131106 1.70032 0.00198829C1.39702 0.0170871 1.10224 0.117877 0.844006 0.294776C0.585773 0.471675 0.372667 0.718807 0.224942 1.01268C0.0772168 1.30655 -0.000216986 1.6374 4.56691e-07 1.97377V12.0262C-0.000216986 12.3626 0.0772168 12.6934 0.224942 12.9873C0.372667 13.2812 0.585773 13.5283 0.844006 13.7052C1.10224 13.8821 1.39702 13.9829 1.70032 13.998C2.00362 14.0131 2.30537 13.942 2.57688 13.7915L12.1812 8.46941C12.4273 8.33276 12.6342 8.12295 12.7788 7.86344C12.9234 7.60394 13 7.30498 13 7C13 6.69502 12.9234 6.39606 12.7788 6.13656C12.6342 5.87706 12.4273 5.66724 12.1812 5.53059Z" fill="black"/>
</svg>
