<svg width="17" height="20" viewBox="0 0 17 20" fill="none" xmlns="http://www.w3.org/2000/svg">
<path d="M14.0119 1.64402C11.2856 -0.364809 7.42101 0.233064 5.39654 2.98058C4.41625 4.311 4.0063 5.99189 4.25831 7.61681L3.99172 7.97863C2.88645 9.47864 2.88998 11.4526 3.84536 12.9183L2.67067 14.5125C1.96921 14.1323 1.07165 14.32 0.581498 14.9852C0.0469179 15.7107 0.197988 16.7321 0.918389 17.2629C1.33379 17.569 1.84869 17.646 2.31314 17.5172C2.32771 17.9989 2.55379 18.4679 2.96919 18.774C3.6896 19.3048 4.70988 19.1465 5.24446 18.421C5.73461 17.7558 5.64794 16.8429 5.077 16.2856L6.25169 14.6914C7.93466 15.1697 9.82102 14.5883 10.9263 13.0883L11.1929 12.7264C12.8195 12.4858 14.3035 11.5963 15.2838 10.2659C17.3069 7.52023 16.7363 3.65147 14.0082 1.64126L14.0119 1.64402ZM4.68776 18.005C4.38367 18.4177 3.80019 18.5082 3.3904 18.2063C2.98061 17.9043 2.89422 17.3202 3.1983 16.9075C3.31355 16.7511 3.28121 16.5325 3.12591 16.418C2.9706 16.3036 2.7522 16.3375 2.63695 16.4939C2.33287 16.9066 1.74938 16.9971 1.33959 16.6952C0.929807 16.3932 0.843413 15.8091 1.1475 15.3964C1.45159 14.9837 2.03507 14.8932 2.44486 15.1952C2.47105 15.2145 2.49538 15.2324 2.51693 15.2541C2.59183 15.3209 2.68799 15.351 2.78487 15.341C2.88176 15.331 2.97237 15.2786 3.03069 15.1994L4.29147 13.4883C4.47001 13.6809 4.66853 13.8621 4.88746 14.0234C5.10638 14.1847 5.33823 14.3207 5.57509 14.4341L4.31431 16.1452C4.25599 16.2244 4.23275 16.3264 4.25187 16.422C4.271 16.5175 4.33015 16.6017 4.4143 16.6521C4.44001 16.6682 4.46759 16.6856 4.49192 16.7035C4.90171 17.0054 4.9881 17.5896 4.68401 18.0022L4.68776 18.005ZM4.05281 13.2049C4.05281 13.2049 4.06687 13.2211 4.07297 13.2285C4.06687 13.2211 4.05891 13.2123 4.05281 13.2049ZM5.88988 14.5672C5.88988 14.5672 5.9095 14.5759 5.91837 14.5795C5.9095 14.5759 5.89875 14.5709 5.88988 14.5672ZM10.9643 12.0492C10.8693 12.0606 10.782 12.1126 10.725 12.1898L10.3696 12.6722C9.181 14.2853 6.909 14.6378 5.30727 13.4576C3.70555 12.2774 3.36914 10.0029 4.55772 8.38986L4.91318 7.90744C4.9715 7.8283 4.99384 7.73136 4.97658 7.63724C4.70422 6.13397 5.05306 4.62612 5.96254 3.39181C7.75651 0.957115 11.1825 0.425626 13.6 2.20696C16.0176 3.9883 16.5248 7.41791 14.7309 9.85261C13.8228 11.085 12.4878 11.8663 10.9681 12.052L10.9643 12.0492ZM12.6287 3.83474C12.5134 3.99115 12.295 4.02503 12.1397 3.9106C10.8112 2.93169 8.92709 3.22398 7.94124 4.56194C7.82599 4.71835 7.60759 4.75223 7.45229 4.63779C7.29698 4.52336 7.26464 4.30472 7.37989 4.14831C8.59623 2.49754 10.9171 2.13749 12.5563 3.34527C12.7116 3.4597 12.7439 3.67834 12.6287 3.83474Z" fill="black"/>
</svg>
