<svg width="20" height="22" viewBox="0 0 20 22" fill="none" xmlns="http://www.w3.org/2000/svg">
<mask id="path-1-inside-1_1643_1330" fill="white">
<path d="M10.0035 12.6821C6.89582 12.6821 4.16992 9.5151 4.16992 5.90511C4.16992 2.53856 6.67797 0 10.0035 0C13.329 0 15.8366 2.5388 15.8366 5.90511C15.8366 9.5151 13.1109 12.6821 10.0035 12.6821ZM10.0035 0.914074C7.15163 0.914074 5.08194 3.01305 5.08194 5.90487C5.08194 9.02799 7.38181 11.7675 10.0035 11.7675C12.6252 11.7675 14.9248 9.02799 14.9248 5.90487C14.9248 3.01305 12.8551 0.914074 10.0035 0.914074Z"/>
</mask>
<path d="M10.0035 12.6821C6.89582 12.6821 4.16992 9.5151 4.16992 5.90511C4.16992 2.53856 6.67797 0 10.0035 0C13.329 0 15.8366 2.5388 15.8366 5.90511C15.8366 9.5151 13.1109 12.6821 10.0035 12.6821ZM10.0035 0.914074C7.15163 0.914074 5.08194 3.01305 5.08194 5.90487C5.08194 9.02799 7.38181 11.7675 10.0035 11.7675C12.6252 11.7675 14.9248 9.02799 14.9248 5.90487C14.9248 3.01305 12.8551 0.914074 10.0035 0.914074Z" fill="#3F2F6D"/>
<path d="M15.8366 5.90511H14.3366H15.8366ZM10.0035 12.6821V11.1821C7.92741 11.1821 5.66992 8.9056 5.66992 5.90511H4.16992H2.66992C2.66992 10.1246 5.86423 14.1821 10.0035 14.1821V12.6821ZM4.16992 5.90511H5.66992C5.66992 3.34974 7.52354 1.5 10.0035 1.5V0V-1.5C5.8324 -1.5 2.66992 1.72737 2.66992 5.90511H4.16992ZM10.0035 0V1.5C12.4833 1.5 14.3366 3.34977 14.3366 5.90511H15.8366H17.3366C17.3366 1.72782 14.1748 -1.5 10.0035 -1.5V0ZM15.8366 5.90511H14.3366C14.3366 8.90573 12.0792 11.1821 10.0035 11.1821V12.6821V14.1821C14.1426 14.1821 17.3366 10.1245 17.3366 5.90511H15.8366ZM10.0035 0.914074V-0.585926C6.30348 -0.585926 3.58194 2.20448 3.58194 5.90487H5.08194H6.58194C6.58194 3.82162 7.99978 2.41407 10.0035 2.41407V0.914074ZM5.08194 5.90487H3.58194C3.58194 7.82767 4.28674 9.63291 5.41074 10.9718C6.53039 12.3056 8.15347 13.2675 10.0035 13.2675V11.7675V10.2675C9.23184 10.2675 8.39414 9.85976 7.70844 9.04294C7.02707 8.23129 6.58194 7.1052 6.58194 5.90487H5.08194ZM10.0035 11.7675V13.2675C11.8535 13.2675 13.4766 12.3055 14.5962 10.9718C15.7201 9.63286 16.4248 7.82762 16.4248 5.90487H14.9248H13.4248C13.4248 7.10524 12.9797 8.23135 12.2984 9.04298C11.6128 9.85978 10.7751 10.2675 10.0035 10.2675V11.7675ZM14.9248 5.90487H16.4248C16.4248 2.20453 13.7033 -0.585926 10.0035 -0.585926V0.914074V2.41407C12.0069 2.41407 13.4248 3.82157 13.4248 5.90487H14.9248Z" fill="black" mask="url(#path-1-inside-1_1643_1330)"/>
<mask id="path-3-inside-2_1643_1330" fill="white">
<path d="M19.9998 21.1369H0V20.6757C0 17.1421 1.89524 13.8344 4.9465 12.0438L5.29984 11.8367L5.56412 12.1431C6.8087 13.5865 8.41788 14.3814 10.0955 14.3814C11.742 14.3814 13.3294 13.6112 14.5652 12.213L14.8342 11.9089L15.1852 12.1222C18.2 13.9537 20 17.1515 20 20.6759L19.9998 21.1369ZM0.969287 20.2144H19.031C18.889 17.3249 17.4156 14.7218 15.0107 13.1165C13.6323 14.5304 11.9012 15.3039 10.0955 15.3039C8.25366 15.3039 6.49606 14.5032 5.10617 13.0407C2.66584 14.622 1.11819 17.3083 0.969287 20.2144Z"/>
</mask>
<path d="M19.9998 21.1369H0V20.6757C0 17.1421 1.89524 13.8344 4.9465 12.0438L5.29984 11.8367L5.56412 12.1431C6.8087 13.5865 8.41788 14.3814 10.0955 14.3814C11.742 14.3814 13.3294 13.6112 14.5652 12.213L14.8342 11.9089L15.1852 12.1222C18.2 13.9537 20 17.1515 20 20.6759L19.9998 21.1369ZM0.969287 20.2144H19.031C18.889 17.3249 17.4156 14.7218 15.0107 13.1165C13.6323 14.5304 11.9012 15.3039 10.0955 15.3039C8.25366 15.3039 6.49606 14.5032 5.10617 13.0407C2.66584 14.622 1.11819 17.3083 0.969287 20.2144Z" fill="#3F2F6D"/>
<path d="M19.9998 21.1369V22.6369H21.499L21.4998 21.1377L19.9998 21.1369ZM0 21.1369H-1.5V22.6369H0V21.1369ZM4.9465 12.0438L4.18803 10.7496L4.18728 10.7501L4.9465 12.0438ZM5.29984 11.8367L6.4358 10.8571L5.61962 9.91061L4.54137 10.5426L5.29984 11.8367ZM5.56412 12.1431L6.70012 11.1636L6.70009 11.1636L5.56412 12.1431ZM14.5652 12.213L13.4417 11.2192L13.4412 11.2197L14.5652 12.213ZM14.8342 11.9089L15.6133 10.6271L14.5417 9.97567L13.7107 10.915L14.8342 11.9089ZM15.1852 12.1222L14.4061 13.404L14.4064 13.4041L15.1852 12.1222ZM20 20.6759L21.5 20.6767V20.6759H20ZM0.969287 20.2144L-0.528749 20.1377L-0.609536 21.7144H0.969287V20.2144ZM19.031 20.2144V21.7144H20.6065L20.5291 20.1408L19.031 20.2144ZM15.0107 13.1165L15.8434 11.869L14.8067 11.177L13.9366 12.0694L15.0107 13.1165ZM5.10617 13.0407L6.19348 12.0074L5.33559 11.1046L4.29048 11.7819L5.10617 13.0407ZM19.9998 21.1369V19.6369H0V21.1369V22.6369H19.9998V21.1369ZM0 21.1369H1.5V20.6757H0H-1.5V21.1369H0ZM0 20.6757H1.5C1.5 17.6749 3.11274 14.8592 5.70571 13.3374L4.9465 12.0438L4.18728 10.7501C0.677743 12.8097 -1.5 16.6092 -1.5 20.6757H0ZM4.9465 12.0438L5.70496 13.3379L6.0583 13.1308L5.29984 11.8367L4.54137 10.5426L4.18803 10.7496L4.9465 12.0438ZM5.29984 11.8367L4.16387 12.8162L4.42815 13.1227L5.56412 12.1431L6.70009 11.1636L6.4358 10.8571L5.29984 11.8367ZM5.56412 12.1431L4.42812 13.1227C5.91438 14.8463 7.91937 15.8814 10.0955 15.8814V14.3814V12.8814C8.91639 12.8814 7.70303 12.3267 6.70012 11.1636L5.56412 12.1431ZM10.0955 14.3814V15.8814C12.2319 15.8814 14.2109 14.8789 15.6891 13.2064L14.5652 12.213L13.4412 11.2197C12.4479 12.3435 11.2522 12.8814 10.0955 12.8814V14.3814ZM14.5652 12.213L15.6886 13.2069L15.9577 12.9027L14.8342 11.9089L13.7107 10.915L13.4417 11.2192L14.5652 12.213ZM14.8342 11.9089L14.0551 13.1906L14.4061 13.404L15.1852 12.1222L15.9643 10.8404L15.6133 10.6271L14.8342 11.9089ZM15.1852 12.1222L14.4064 13.4041C16.9739 14.9639 18.5 17.676 18.5 20.6759H20H21.5C21.5 16.627 19.4262 12.9434 15.964 10.8402L15.1852 12.1222ZM20 20.6759L18.5 20.6751L18.4998 21.1361L19.9998 21.1369L21.4998 21.1377L21.5 20.6767L20 20.6759ZM0.969287 20.2144V21.7144H19.031V20.2144V18.7144H0.969287V20.2144ZM19.031 20.2144L20.5291 20.1408C20.3639 16.7775 18.6443 13.7385 15.8434 11.869L15.0107 13.1165L14.1779 14.3641C16.1868 15.7051 17.4141 17.8723 17.5328 20.2881L19.031 20.2144ZM15.0107 13.1165L13.9366 12.0694C12.8094 13.2256 11.4543 13.8039 10.0955 13.8039V15.3039V16.8039C12.3481 16.8039 14.4551 15.8352 16.0847 14.1637L15.0107 13.1165ZM10.0955 15.3039V13.8039C8.70899 13.8039 7.3322 13.2056 6.19348 12.0074L5.10617 13.0407L4.01886 14.074C5.65993 15.8008 7.79833 16.8039 10.0955 16.8039V15.3039ZM5.10617 13.0407L4.29048 11.7819C1.4452 13.6255 -0.355283 16.7521 -0.528749 20.1377L0.969287 20.2144L2.46732 20.2912C2.59166 17.8645 3.88648 15.6184 5.92186 14.2995L5.10617 13.0407Z" fill="black" mask="url(#path-3-inside-2_1643_1330)"/>
</svg>
