<svg width="16" height="16" viewBox="0 0 16 16" fill="none" xmlns="http://www.w3.org/2000/svg">
<path d="M4.69212 13.5127L8.00069 10.9892L11.3093 13.5127L10.0685 9.35225L13.1703 7.16969H9.31033L8.00069 2.94099L6.69105 7.16969H2.83105L5.93283 9.35225L4.69212 13.5127ZM8.00069 12.7216L3.82775 15.8658C3.68071 15.9658 3.5332 16.0099 3.38523 15.9981C3.23727 15.9863 3.10125 15.9449 2.97718 15.874C2.8531 15.8031 2.7589 15.6962 2.69457 15.5534C2.63024 15.4107 2.62886 15.2592 2.69043 15.0992L4.28406 9.91835L0.320669 7.08785C0.162592 6.99691 0.0637952 6.87732 0.0242762 6.72909C-0.0152428 6.57995 -0.00651248 6.43308 0.0504685 6.28849C0.10653 6.14298 0.192462 6.02612 0.308262 5.93791C0.423143 5.8497 0.560999 5.80559 0.721833 5.80559H5.7095L7.32519 0.516993C7.38309 0.350573 7.47178 0.223257 7.59125 0.135046C7.71073 0.0450152 7.84675 0 7.99931 0C8.15187 0 8.28789 0.0445605 8.40737 0.133682C8.52684 0.222803 8.61553 0.350573 8.67343 0.516993L10.2891 5.80559H15.2768C15.4385 5.80559 15.5769 5.8497 15.6917 5.93791C15.8075 6.02612 15.8935 6.14298 15.9495 6.28849C16.0065 6.43399 16.0152 6.58086 15.9757 6.72909C15.9362 6.87732 15.8374 6.99736 15.6793 7.08921L11.7159 9.91835L13.3096 15.0992C13.3711 15.2601 13.3698 15.4116 13.3054 15.5534C13.2411 15.6953 13.1469 15.8022 13.0228 15.874C12.8988 15.9458 12.7627 15.9872 12.6148 15.9981C12.4668 16.009 12.3193 15.9649 12.1722 15.8658L8.00069 12.7216Z" fill="black"/>
</svg>
