<svg width="33" height="33" viewBox="0 0 33 33" fill="none" xmlns="http://www.w3.org/2000/svg">
<path d="M16.7634 2.65601L20.5326 0.0815541C20.7687 -0.0797385 21.0931 0.00716623 21.2169 0.264962L23.1939 4.37912C23.2346 4.46385 23.2999 4.53433 23.3813 4.58133C23.4627 4.62833 23.5564 4.64967 23.6501 4.64256L28.2015 4.29754C28.4867 4.27594 28.7241 4.51337 28.7025 4.79854L28.3575 9.34995C28.3504 9.44367 28.3717 9.53737 28.4187 9.61877C28.4657 9.70018 28.5362 9.7655 28.6209 9.8062L32.7351 11.7831C32.9929 11.907 33.0798 12.2314 32.9185 12.4675L30.3441 16.2366C30.291 16.3142 30.2627 16.406 30.2627 16.5C30.2627 16.594 30.291 16.6858 30.3441 16.7634L32.9185 20.5326C33.0798 20.7687 32.9929 21.0931 32.7351 21.2169L28.6209 23.1939C28.5362 23.2346 28.4657 23.2999 28.4187 23.3813C28.3717 23.4627 28.3504 23.5564 28.3575 23.6501L28.7025 28.2015C28.7241 28.4867 28.4867 28.7241 28.2015 28.7025L23.6501 28.3575C23.5564 28.3504 23.4627 28.3717 23.3813 28.4187C23.2999 28.4657 23.2346 28.5362 23.1939 28.6209L21.2169 32.7351C21.093 32.9929 20.7687 33.0798 20.5326 32.9185L16.7634 30.3441C16.6858 30.291 16.594 30.2627 16.5 30.2627C16.406 30.2627 16.3142 30.291 16.2366 30.3441L12.4675 32.9185C12.2314 33.0798 11.907 32.9929 11.7831 32.7351L9.80619 28.6209C9.7655 28.5362 9.70017 28.4657 9.61877 28.4187C9.53737 28.3717 9.44367 28.3504 9.34994 28.3575L4.79854 28.7025C4.51337 28.7241 4.27594 28.4867 4.29754 28.2015L4.64256 23.6501C4.64967 23.5564 4.62833 23.4627 4.58133 23.3813C4.53433 23.2999 4.46385 23.2346 4.37912 23.1939L0.264897 21.2169C0.00710135 21.093 -0.0798034 20.7687 0.0814892 20.5326L2.65595 16.7634C2.70897 16.6858 2.73733 16.594 2.73733 16.5C2.73733 16.406 2.70897 16.3142 2.65595 16.2366L0.0815541 12.4674C-0.0797385 12.2313 0.0071662 11.9069 0.264962 11.7831L4.37912 9.80613C4.46385 9.76543 4.53433 9.70011 4.58133 9.61871C4.62833 9.5373 4.64967 9.44361 4.64256 9.34988L4.29754 4.79847C4.27594 4.51331 4.51337 4.27588 4.79854 4.29747L9.34994 4.6425C9.44367 4.64961 9.53737 4.62827 9.61877 4.58127C9.70017 4.53427 9.7655 4.46379 9.80619 4.37906L11.7831 0.264897C11.907 0.00710139 12.2314 -0.0798034 12.4675 0.0814892L16.2366 2.65594C16.3142 2.70898 16.406 2.73735 16.5 2.73736C16.594 2.73737 16.6858 2.70902 16.7634 2.65601Z" fill="#FFC639"/>
<path d="M16.5 30C23.9558 30 30 24.1797 30 17C30 9.8203 23.9558 4 16.5 4C9.04416 4 3 9.8203 3 17C3 24.1797 9.04416 30 16.5 30Z" fill="#FFE564"/>
</svg>
