<svg width="18" height="20" viewBox="0 0 18 20" fill="none" xmlns="http://www.w3.org/2000/svg">
<path fill-rule="evenodd" clip-rule="evenodd" d="M8.97325 3.9072C12.8423 3.9072 15.9733 7.0332 15.9733 10.8822C15.9727 12.1282 15.6382 13.3513 15.0046 14.4241C14.3709 15.4969 13.4612 16.3803 12.3703 16.9822C11.9262 17.228 11.4568 17.4249 10.9703 17.5692C10.7159 17.6445 10.5019 17.8178 10.3753 18.0509C10.3126 18.1663 10.2733 18.293 10.2596 18.4236C10.2458 18.5542 10.258 18.6863 10.2952 18.8122C10.3325 18.9381 10.3943 19.0555 10.4769 19.1576C10.5596 19.2597 10.6615 19.3445 10.777 19.4071C11.0101 19.5337 11.2839 19.5625 11.5382 19.4872C12.1642 19.3016 12.7681 19.0484 13.3392 18.7322C14.7427 17.9572 15.9128 16.8203 16.7278 15.4397C17.5427 14.0592 17.9728 12.4854 17.9733 10.8822C17.9733 5.9222 13.9412 1.9082 8.97325 1.9082C7.73325 1.9082 6.54825 2.1582 5.47125 2.6132C5.35024 2.66422 5.24046 2.73858 5.14818 2.83202C5.0559 2.92547 4.98293 3.03617 4.93344 3.15781C4.88395 3.27946 4.8589 3.40966 4.85972 3.54099C4.86055 3.67231 4.88723 3.80219 4.93825 3.9232C4.98927 4.04422 5.06362 4.154 5.15707 4.24627C5.25051 4.33855 5.36122 4.41152 5.48286 4.46101C5.60451 4.51051 5.73471 4.53556 5.86603 4.53473C5.99736 4.53391 6.12724 4.50722 6.24825 4.4562C7.11075 4.09288 8.03735 3.9062 8.97325 3.9072ZM9.57325 18.9192C9.58743 18.6546 9.49597 18.3951 9.31896 18.1978C9.14196 18.0006 8.89388 17.8817 8.62925 17.8672C7.71197 17.8186 6.81322 17.5899 5.98425 17.1942C5.86528 17.1339 5.73545 17.098 5.60241 17.0887C5.46936 17.0793 5.33579 17.0967 5.20955 17.1397C5.08332 17.1828 4.96696 17.2506 4.86734 17.3393C4.76773 17.428 4.68685 17.5357 4.62948 17.6561C4.57212 17.7765 4.53942 17.9072 4.5333 18.0404C4.52719 18.1736 4.54779 18.3067 4.59389 18.4319C4.64 18.557 4.71067 18.6717 4.80175 18.7691C4.89283 18.8666 5.00248 18.9448 5.12425 18.9992C6.18894 19.5074 7.34317 19.8013 8.52125 19.8642C8.78607 19.8784 9.04566 19.7868 9.24295 19.6096C9.44023 19.4323 9.55904 19.184 9.57325 18.9192ZM2.18125 6.5442C1.94135 6.43147 1.6665 6.41859 1.4171 6.50841C1.16771 6.59823 0.964185 6.78339 0.85125 7.0232C0.34786 8.08989 0.0590521 9.24512 0.00125052 10.4232C-0.00531557 10.5544 0.0140224 10.6856 0.0581606 10.8093C0.102299 10.933 0.170373 11.0468 0.258495 11.1442C0.346618 11.2417 0.453064 11.3208 0.571756 11.377C0.690447 11.4333 0.81906 11.4656 0.95025 11.4722C1.08144 11.4788 1.21264 11.4594 1.33636 11.4153C1.46007 11.3712 1.57389 11.3031 1.67129 11.215C1.7687 11.1268 1.8478 11.0204 1.90407 10.9017C1.96034 10.783 1.99268 10.6544 1.99925 10.5232C2.04425 9.6052 2.26925 8.7042 2.65925 7.8752C2.71526 7.75642 2.74733 7.62777 2.75362 7.4966C2.75991 7.36543 2.7403 7.2343 2.69591 7.1107C2.65153 6.98711 2.58323 6.87347 2.49493 6.77627C2.40662 6.67907 2.30003 6.60021 2.18125 6.5442ZM3.72525 16.9762C3.92226 16.7987 4.04073 16.5503 4.0546 16.2855C4.06848 16.0207 3.97663 15.7613 3.79925 15.5642C3.18522 14.8805 2.70976 14.0841 2.39925 13.2192C2.30931 12.9702 2.12433 12.7671 1.88486 12.6543C1.64539 12.5415 1.37097 12.5283 1.12175 12.6175C0.872526 12.7067 0.668842 12.8911 0.555341 13.1302C0.44184 13.3693 0.427782 13.6437 0.51625 13.8932C0.914621 15.0032 1.52494 16.0251 2.31325 16.9022C2.49071 17.0992 2.73914 17.2177 3.00393 17.2316C3.26871 17.2454 3.52817 17.1536 3.72525 16.9762Z" fill="black"/>
<path fill-rule="evenodd" clip-rule="evenodd" d="M7.16704 0.0902147C7.06626 0.0399126 6.95656 0.00996905 6.8442 0.00209619C6.73184 -0.00577667 6.61904 0.0085757 6.51223 0.0443325C6.40542 0.0800893 6.30671 0.136549 6.22174 0.210484C6.13677 0.284418 6.06721 0.374376 6.01703 0.475215L4.68603 3.15821C4.62267 3.28616 4.58517 3.42535 4.57565 3.56781C4.56614 3.71027 4.58482 3.85321 4.63061 3.98845C4.6764 4.12368 4.74841 4.24856 4.84251 4.35594C4.93662 4.46332 5.05097 4.55108 5.17904 4.61421L7.87004 5.94322C7.97139 5.99793 8.08274 6.03166 8.19742 6.04238C8.3121 6.0531 8.42777 6.04059 8.53751 6.00559C8.64725 5.9706 8.74881 5.91385 8.83612 5.83872C8.92344 5.7636 8.99471 5.67164 9.04568 5.56835C9.09665 5.46506 9.12628 5.35255 9.13279 5.23755C9.13931 5.12256 9.12257 5.00742 9.08359 4.89904C9.0446 4.79065 8.98417 4.69124 8.9059 4.60673C8.82763 4.52223 8.73312 4.45437 8.62804 4.40722L6.50303 3.35721L7.55604 1.23921C7.60608 1.13831 7.63573 1.02853 7.64331 0.916147C7.65089 0.803769 7.63625 0.690999 7.60021 0.584286C7.56418 0.477572 7.50746 0.379009 7.4333 0.294232C7.35915 0.209455 7.26801 0.140128 7.16704 0.0902147Z" fill="black"/>
</svg>
