<svg width="18" height="18" viewBox="0 0 18 18" fill="none" xmlns="http://www.w3.org/2000/svg">
<path d="M17 13.3077V15.7692C17 16.0957 16.8703 16.4087 16.6395 16.6395C16.4087 16.8703 16.0957 17 15.7692 17H13.3077M13.3077 1H15.7692C16.0957 1 16.4087 1.12967 16.6395 1.36048C16.8703 1.5913 17 1.90435 17 2.23077V4.69231M1 4.69231V2.23077C1 1.90435 1.12967 1.5913 1.36048 1.36048C1.5913 1.12967 1.90435 1 2.23077 1H4.69231M4.69231 17H2.23077C1.90435 17 1.5913 16.8703 1.36048 16.6395C1.12967 16.4087 1 16.0957 1 15.7692V13.3077M9 5.92308V10.2308H7.15385M5.92308 12.6923C6.75338 13.481 7.85483 13.9207 9 13.9207C10.1452 13.9207 11.2466 13.481 12.0769 12.6923M5.30769 6.23077C5.22609 6.23077 5.14782 6.19835 5.09012 6.14065C5.03242 6.08295 5 6.00468 5 5.92308C5 5.84147 5.03242 5.76321 5.09012 5.70551C5.14782 5.6478 5.22609 5.61538 5.30769 5.61538C5.3893 5.61538 5.46756 5.6478 5.52526 5.70551C5.58297 5.76321 5.61538 5.84147 5.61538 5.92308C5.61538 6.00468 5.58297 6.08295 5.52526 6.14065C5.46756 6.19835 5.3893 6.23077 5.30769 6.23077ZM12.6923 6.23077C12.6107 6.23077 12.5324 6.19835 12.4747 6.14065C12.417 6.08295 12.3846 6.00468 12.3846 5.92308C12.3846 5.84147 12.417 5.76321 12.4747 5.70551C12.5324 5.6478 12.6107 5.61538 12.6923 5.61538C12.7739 5.61538 12.8522 5.6478 12.9099 5.70551C12.9676 5.76321 13 5.84147 13 5.92308C13 6.00468 12.9676 6.08295 12.9099 6.14065C12.8522 6.19835 12.7739 6.23077 12.6923 6.23077Z" stroke="white" stroke-linecap="round" stroke-linejoin="round"/>
</svg>
