<svg width="14" height="18" viewBox="0 0 14 18" fill="none" xmlns="http://www.w3.org/2000/svg">
<path d="M7 14.135C8.14667 14.135 9.12233 13.7323 9.927 12.927C10.7317 12.1217 11.1343 11.146 11.135 10C11.1357 8.854 10.733 7.87833 9.927 7.073C9.121 6.26767 8.14533 5.86533 7 5.866C6.29 5.866 5.67267 6.021 5.148 6.331C4.62333 6.641 4.183 6.996 3.827 7.396V5.692H2.942V8.942H6.192V8.058H4.431C4.68833 7.69333 5.04267 7.38433 5.494 7.131C5.94533 6.87767 6.44733 6.75067 7 6.75C7.9 6.75 8.66667 7.06667 9.3 7.7C9.93333 8.33333 10.25 9.1 10.25 10C10.25 10.9 9.93333 11.6667 9.3 12.3C8.66667 12.9333 7.9 13.25 7 13.25C6.26667 13.25 5.625 13.0373 5.075 12.612C4.525 12.1867 4.13333 11.6493 3.9 11H2.965C3.237 11.968 3.74133 12.7323 4.478 13.293C5.21467 13.8537 6.05533 14.1343 7 14.135ZM1.616 18C1.15533 18 0.771 17.846 0.463 17.538C0.155 17.23 0.000666667 16.8457 0 16.385V1.615C0 1.155 0.154333 0.771 0.463 0.463C0.771667 0.155 1.156 0.000666667 1.616 0H8.577L14 5.423V16.385C14 16.845 13.846 17.2293 13.538 17.538C13.23 17.8467 12.8453 18.0007 12.384 18H1.616ZM1.616 17H12.385C12.5383 17 12.6793 16.936 12.808 16.808C12.9367 16.68 13.0007 16.5387 13 16.384V5.85L8.15 1H1.616C1.462 1 1.32067 1.064 1.192 1.192C1.06333 1.32 0.999333 1.461 1 1.615V16.385C1 16.5383 1.064 16.6793 1.192 16.808C1.32 16.9367 1.461 17.0007 1.615 17" fill="black"/>
</svg>
