<svg width="20" height="20" viewBox="0 0 20 20" fill="none" xmlns="http://www.w3.org/2000/svg">
<path fill-rule="evenodd" clip-rule="evenodd" d="M1.4312 0H17.1744L18.6056 1.43472V9.03874C18.1552 8.81769 17.6717 8.67229 17.1744 8.60832V1.43472H10.0184V17.0445L8.41545 18.6514H1.4312L0 17.2166V1.43472L1.4312 0ZM1.4312 17.2166H8.58719V1.43472H1.4312V17.2166ZM16.2856 10.0459C15.6851 10.0663 15.0994 10.238 14.5825 10.5452H14.5395C14.1254 10.7958 13.766 11.1276 13.4829 11.5208C13.1998 11.914 12.9988 12.3604 12.892 12.8334C12.7852 13.3063 12.7748 13.796 12.8614 14.2731C12.948 14.7502 13.1299 15.2048 13.396 15.6098L10.0184 18.9813L11.0345 20L14.3979 16.6141C14.863 16.9297 15.3997 17.1277 15.9579 17.1879C16.5088 17.2534 17.0674 17.1896 17.5894 17.0014C18.1317 16.8191 18.6225 16.5092 19.0206 16.0976C19.4071 15.6922 19.6916 15.2004 19.8507 14.6628C20.0068 14.1273 20.041 13.5635 19.9509 13.0129C19.8515 12.4596 19.6252 11.9371 19.2899 11.4864C18.9546 11.0358 18.5194 10.6694 18.0188 10.4161C17.4812 10.1489 16.8852 10.0217 16.2856 10.0459ZM16.6291 15.7733C16.1357 15.8223 15.6407 15.6986 15.228 15.4232C14.8723 15.1826 14.5939 14.8437 14.4265 14.4476C14.2685 14.0565 14.2286 13.6274 14.312 13.2138C14.3928 12.7949 14.5968 12.4098 14.8978 12.108C15.1988 11.8063 15.5829 11.6018 16.0008 11.5208C16.4134 11.4373 16.8414 11.4772 17.2316 11.6356C17.6266 11.8034 17.9644 12.0818 18.2048 12.439C18.4101 12.7481 18.5322 13.1052 18.5591 13.4755C18.586 13.8459 18.5168 14.2169 18.3584 14.5525C18.1999 14.8881 17.9575 15.177 17.6547 15.3909C17.352 15.6048 16.9977 15.7365 16.6291 15.7733Z" fill="black"/>
</svg>
