<svg width="27" height="27" viewBox="0 0 27 27" fill="none" xmlns="http://www.w3.org/2000/svg">
<path d="M18.5 19.75L18.7625 20.0125C19.2237 20.4737 19.4537 20.7038 19.7325 20.6875C20.0112 20.6725 20.215 20.4188 20.6225 19.9088L22.25 17.875M18.7137 8.3875V10.375M18.7137 8.3875C18.7137 7.445 19.5062 6.68125 20.4825 6.68125C21.4575 6.68125 22.25 7.445 22.25 8.38625V10.375M18.7137 8.3875V4.97625C18.7137 4.035 17.9225 3.27125 16.9462 3.27125C15.97 3.27125 15.1775 4.03375 15.1775 4.97625M15.1775 4.97625V10.375M15.1775 4.97625V2.705C15.1775 1.7625 14.3875 1 13.41 1C12.4325 1 11.6425 1.7625 11.6425 2.705V6.1125M11.6425 6.1125C11.6425 5.17125 10.85 4.4075 9.87371 4.4075C8.89871 4.4075 8.10621 5.17 8.10621 6.1125V14.2963C8.10621 14.8163 7.43996 15.0625 7.07745 14.6775L4.21495 11.6288C3.9716 11.3467 3.64542 11.1487 3.28292 11.063C2.92042 10.9772 2.5401 11.0081 2.19619 11.1513C0.936189 11.6725 0.639938 13.5113 1.45869 14.5713C2.86119 16.3863 4.2962 18.8625 5.4562 21.0463C7.0312 24.0125 10.1375 26 13.59 26M11.6425 6.1125V10.375M14.75 17.8175V18.3C14.75 19.8025 14.75 20.5538 14.935 21.2413C15.1661 22.094 15.6011 22.8777 16.2025 23.525C16.69 24.0525 17.335 24.4625 18.6237 25.2838C19.2 25.6513 19.4887 25.835 19.7962 25.9213C20.175 26.0263 20.5762 26.0263 20.955 25.9213C21.2612 25.835 21.55 25.6513 22.1262 25.2838C23.415 24.4625 24.06 24.0525 24.5475 23.525C25.1489 22.8777 25.5839 22.094 25.815 21.2413C26 20.5538 26 19.8038 26 18.3V17.8175C26 16.8825 26 16.415 25.8225 16.02C25.7111 15.7762 25.5546 15.5556 25.3612 15.37C25.045 15.07 24.5962 14.905 23.6987 14.5763L21.8562 13.9013C21.1237 13.6338 20.7575 13.5 20.375 13.5C19.9925 13.5 19.6262 13.6337 18.8937 13.9025L17.0512 14.5775C16.1537 14.905 15.705 15.0688 15.3887 15.37C15.1949 15.5555 15.038 15.7761 14.9262 16.02C14.75 16.415 14.75 16.8825 14.75 17.8175Z" stroke="url(#paint0_linear_1686_103)" stroke-width="1.5" stroke-linecap="round" stroke-linejoin="round"/>
<defs>
<linearGradient id="paint0_linear_1686_103" x1="13.5" y1="1" x2="13.5" y2="26" gradientUnits="userSpaceOnUse">
<stop stop-color="#FEC100"/>
<stop offset="1" stop-color="#F77062"/>
</linearGradient>
</defs>
</svg>
