<svg width="23" height="23" viewBox="0 0 23 23" fill="none" xmlns="http://www.w3.org/2000/svg">
<path d="M6.29157 6.30114V8.03467M16.6842 6.30114V8.03467M11.4879 8.90144V11.0684C11.4879 11.5281 11.3054 11.969 10.9806 12.2941C10.6557 12.6192 10.2152 12.8019 9.75577 12.8019H8.88972M8.51905 17.2467C9.32043 18.0078 10.3831 18.4321 11.4879 18.4321C12.5927 18.4321 13.6553 18.0078 14.4567 17.2467M16.7084 1C17.3493 1.0705 17.9856 1.14273 18.6172 1.21669C19.4273 1.31168 20.1816 1.67767 20.7578 2.25535C21.3341 2.83303 21.6986 3.58855 21.7921 4.39946L22 6.29767M16.7084 22C17.3493 21.9307 17.9856 21.8584 18.6172 21.7833C19.4273 21.6883 20.1816 21.3223 20.7578 20.7447C21.3341 20.167 21.6986 19.4115 21.7921 18.6005L22 16.7023M6.29157 1C5.65069 1.0705 5.01443 1.14273 4.38279 1.21669C3.57297 1.3116 2.81888 1.67734 2.24265 2.25468C1.66642 2.83201 1.3018 3.58713 1.20785 4.39772C1.13626 5.02526 1.06697 5.658 1 6.29594M6.29157 22C5.65069 21.9307 5.01443 21.8584 4.38279 21.7833C3.57271 21.6883 2.81841 21.3223 2.24215 20.7447C1.66589 20.167 1.30144 19.4115 1.20785 18.6005C1.13626 17.9742 1.06697 17.3414 1 16.7023" stroke="#F894D6" stroke-width="2" stroke-linecap="round" stroke-linejoin="round"/>
</svg>
