<svg width="26" height="23" viewBox="0 0 26 23" fill="none" xmlns="http://www.w3.org/2000/svg">
<path d="M23.8 6.90038V4.54023C23.8 3.6013 23.4207 2.70083 22.7456 2.03691C22.0705 1.37299 21.1548 1 20.2 1H16.6M16.6 22.2414H20.2C21.1548 22.2414 22.0705 21.8684 22.7456 21.2045C23.4207 20.5405 23.8 19.6401 23.8 18.7011V16.341M2.2 16.341V18.7011C2.2 19.6401 2.57928 20.5405 3.25442 21.2045C3.92955 21.8684 4.84522 22.2414 5.8 22.2414H9.4M9.4 1H5.8C4.84522 1 3.92955 1.37299 3.25442 2.03691C2.57928 2.70083 2.2 3.6013 2.2 4.54023V6.90038M1 11.6207H25" stroke="black" stroke-width="1.5" stroke-linecap="round" stroke-linejoin="round"/>
</svg>
