<svg width="20" height="20" viewBox="0 0 20 20" fill="none" xmlns="http://www.w3.org/2000/svg">
<path d="M10 0C4.47717 0 0 4.47717 0 10C0 15.5228 4.47717 20 10 20C15.5228 20 20 15.5228 20 10C20 4.47717 15.5228 0 10 0ZM16.1283 16.1283C14.6087 17.6433 12.5795 18.5383 10.4361 18.6389C8.29264 18.7395 6.18853 18.0386 4.53372 16.6725C2.87891 15.3065 1.79194 13.3733 1.48462 11.2497C1.17729 9.12602 1.67163 6.964 2.8713 5.18491C4.07097 3.40581 5.89003 2.13708 7.97405 1.62593C10.0581 1.11478 12.2577 1.39782 14.1445 2.41992C16.0312 3.44201 17.4698 5.12993 18.18 7.15478C18.8902 9.17963 18.8211 11.3964 17.9861 13.373C17.551 14.403 16.92 15.3388 16.1283 16.1283Z" fill="black"/>
<path d="M5.59448 8H7.28894V9.66667H5.59448V8ZM12.7112 8H14.4057V9.66667H12.7112V8Z" fill="black"/>
<path d="M7 13H13C13.2652 13 13.5196 13.1054 13.7071 13.2929C13.8946 13.4804 14 13.7348 14 14C14 14.2652 13.8946 14.5196 13.7071 14.7071C13.5196 14.8946 13.2652 15 13 15H7C6.73478 15 6.48043 14.8946 6.29289 14.7071C6.10536 14.5196 6 14.2652 6 14C6 13.7348 6.10536 13.4804 6.29289 13.2929C6.48043 13.1054 6.73478 13 7 13Z" fill="black"/>
</svg>
