<svg width="16" height="21" viewBox="0 0 16 21" fill="none" xmlns="http://www.w3.org/2000/svg">
<path d="M8.16363 21H8.04259C6.47798 20.9792 4.96648 20.5641 3.6724 19.7992C2.28393 18.9778 1.2133 17.783 0.573614 16.3424C0.128836 15.3388 -0.0581338 14.2628 0.0156768 13.1423C0.103257 11.8236 0.467357 10.4959 1.12863 9.08417C1.7466 7.76547 2.54368 6.54783 3.24135 5.53126C4.53437 3.64782 6.05472 1.82186 7.76092 0.103996H7.76191C7.86326 0.00194892 8.01677 -0.0287661 8.14963 0.0286972C8.28149 0.0851714 8.3671 0.216942 8.36415 0.361592C8.35135 1.05513 8.36415 1.59015 8.40941 2.04587C8.65641 4.56537 10.2594 6.43983 11.7964 7.94185C12.0512 8.19053 12.315 8.43525 12.5935 8.69485C13.9022 9.90952 15.2562 11.1668 15.7867 12.9095C16.1518 14.1073 16.0455 15.4131 15.4886 16.5892C14.8155 18.01 13.7163 19.1831 12.3464 19.942C11.1036 20.6355 9.66024 21 8.16363 21ZM0.369935 13.166L0.72221 13.1898C0.654312 14.2073 0.817663 15.1426 1.22014 16.0531C2.35866 18.6262 4.97818 20.2489 8.05127 20.2905H8.16444C11.1204 20.2905 13.675 18.7628 14.851 16.2828C15.3322 15.2683 15.4247 14.1448 15.1117 13.1183C14.6365 11.5578 13.3543 10.3678 12.1152 9.2166C11.8456 8.96594 11.5661 8.70637 11.3054 8.45174C10.2604 7.43028 9.51248 6.53363 8.94862 5.63006C8.23223 4.47978 7.82682 3.32952 7.70873 2.11393C7.68314 1.84544 7.66641 1.55416 7.65854 1.22423C6.2248 2.7292 4.93762 4.31046 3.82266 5.93422C2.41943 7.98014 0.907014 10.3956 0.721102 13.1887L0.369935 13.166Z" fill="black"/>
<path d="M9.35335 18C9.17392 18 9.02308 17.8742 9.00238 17.7068C8.98168 17.5393 9.09801 17.3839 9.27251 17.346C9.77728 17.235 10.7277 16.9232 11.4326 16.0879C11.7352 15.7281 12.6807 14.4543 12.1138 13.1259C11.7244 12.2138 10.8361 11.7818 10.4733 11.6385V11.6375C10.2939 11.5663 10.2091 11.3721 10.285 11.2037C10.3599 11.0344 10.567 10.9549 10.7474 11.0261C11.193 11.2019 12.2824 11.7338 12.7714 12.879C13.4793 14.5366 12.3504 16.0695 11.9876 16.4995C11.1506 17.4921 10.0296 17.8603 9.43623 17.9916L9.43525 17.9907C9.40863 17.9972 9.38096 18 9.35335 18Z" fill="black"/>
</svg>
