<svg width="22" height="22" viewBox="0 0 22 22" fill="none" xmlns="http://www.w3.org/2000/svg">
<path d="M9.07692 16.3846C9.07692 16.3846 9.84615 17.1538 11 17.1538C12.1538 17.1538 12.9231 16.3846 12.9231 16.3846M16.3846 12.5385C16.3846 12.7425 16.3036 12.9381 16.1593 13.0824C16.0151 13.2266 15.8194 13.3077 15.6154 13.3077C15.4114 13.3077 15.2157 13.2266 15.0715 13.0824C14.9272 12.9381 14.8462 12.7425 14.8462 12.5385C14.8462 12.3344 14.9272 12.1388 15.0715 11.9945C15.2157 11.8503 15.4114 11.7692 15.6154 11.7692C15.8194 11.7692 16.0151 11.8503 16.1593 11.9945C16.3036 12.1388 16.3846 12.3344 16.3846 12.5385ZM7.15385 12.5385C7.15385 12.7425 7.0728 12.9381 6.92854 13.0824C6.78428 13.2266 6.58863 13.3077 6.38462 13.3077C6.1806 13.3077 5.98495 13.2266 5.84069 13.0824C5.69643 12.9381 5.61538 12.7425 5.61538 12.5385C5.61538 12.3344 5.69643 12.1388 5.84069 11.9945C5.98495 11.8503 6.1806 11.7692 6.38462 11.7692C6.58863 11.7692 6.78428 11.8503 6.92854 11.9945C7.0728 12.1388 7.15385 12.3344 7.15385 12.5385ZM21 11C21 16.5231 16.5231 21 11 21C5.47692 21 1 16.5231 1 11C1 5.47692 5.47692 1 11 1C16.5231 1 21 5.47692 21 11Z" stroke="black" stroke-width="1.5" stroke-linecap="round" stroke-linejoin="round"/>
</svg>
