<svg width="20" height="20" viewBox="0 0 20 20" fill="none" xmlns="http://www.w3.org/2000/svg">
<path d="M10 0C4.47717 0 0 4.47717 0 10C0 15.5228 4.47717 20 10 20C15.5228 20 20 15.5228 20 10C20 4.47717 15.5228 0 10 0ZM16.1283 16.1283C14.6087 17.6433 12.5795 18.5383 10.4361 18.6389C8.29264 18.7395 6.18853 18.0386 4.53372 16.6725C2.87891 15.3065 1.79194 13.3733 1.48462 11.2497C1.17729 9.12602 1.67163 6.964 2.8713 5.18491C4.07097 3.40581 5.89003 2.13708 7.97405 1.62593C10.0581 1.11478 12.2577 1.39782 14.1445 2.41992C16.0312 3.44201 17.4698 5.12993 18.18 7.15478C18.8902 9.17963 18.8211 11.3964 17.9861 13.373C17.551 14.403 16.92 15.3388 16.1283 16.1283Z" fill="black"/>
<path d="M5.59441 8H7.28887V9.66667H5.59441V8ZM12.7111 8H14.4056V9.66667H12.7111V8ZM13.4859 12.4667C13.2237 13.1174 12.7683 13.6754 12.179 14.0678C11.5896 14.4602 10.8938 14.6689 10.1822 14.6667H9.81785C9.10617 14.6689 8.4103 14.4603 7.82097 14.0678C7.23164 13.6754 6.77619 13.1174 6.514 12.4667L6.45982 12.3333H5L5.25552 12.9617C5.62025 13.8586 6.24983 14.6274 7.06304 15.1689C7.87625 15.7105 8.83578 16 9.81785 16H10.1822C11.1642 16 12.1238 15.7105 12.937 15.1689C13.7502 14.6274 14.3797 13.8586 14.7445 12.9617L15 12.3333H13.5401L13.4859 12.4667Z" fill="black"/>
</svg>
