<svg width="166" height="89" viewBox="0 0 166 89" fill="none" xmlns="http://www.w3.org/2000/svg">
<path d="M85.0016 0C99.9134 0 112.002 12.1793 112.002 27.2032C112.002 32.0991 110.718 36.6926 108.471 40.6613C108.344 40.7326 108.215 40.8042 108.085 40.8752C99.2711 45.6675 85.9394 39.2727 81.3642 22.9747C77.9906 10.9569 65.7968 12.113 62.1204 12.7551C66.8965 5.09319 75.3586 0 85.0016 0Z" fill="#3F641A"/>
<path d="M58.042 25.6799C60.8691 26.0669 65.3483 28.7928 68.3523 37.7748C71.3115 46.6228 76.8643 51.7928 80.1452 53.9677C67.5505 51.6637 57.9999 40.5577 57.9999 27.2037C57.9999 26.6923 58.0143 26.1843 58.042 25.6799Z" fill="#DAE8AF"/>
<path d="M108.341 40.885C104.409 47.6791 97.639 52.6005 89.6675 53.9999C94.9333 49.7541 96.0525 44.8208 96.332 42.9885C101.788 43.2704 106.424 41.9005 108.341 40.885Z" fill="#DAE8AF"/>
<path d="M87.2352 18.8875C92.7209 18.8875 97.1679 23.4941 97.1679 29.1767C97.1679 33.3656 94.7513 36.9692 91.2837 38.5746C87.1774 35.4476 83.5997 30.444 81.5584 23.6613C81.2407 23.6214 80.8863 23.9296 80.8004 24.1026C84.8295 37.2954 91.2461 41.8152 93.9508 42.4259C94.0907 46.9363 89.4741 56.5209 80.5206 50.8829C72.9102 46.0906 69.8884 35.5194 67.3702 29.7405C65.3557 25.1174 61.9609 22.5521 60.6552 21.9883C74.9247 19.3103 83.5984 43.6945 83.8782 44.2583C84.102 44.7093 84.4378 44.3523 84.5777 44.1173C81.7797 35.3221 78.6553 30.6802 77.4429 29.4586C77.9799 24.8052 79.875 22.1162 80.8113 21.3293C80.8057 21.3147 80.817 21.3438 80.8113 21.3293C82.5433 19.8064 84.7855 18.8875 87.2352 18.8875Z" fill="#DAE8AF"/>
<path d="M156.256 88.0376C156.189 88.0376 156.156 87.9382 156.156 87.7394C156.156 87.5406 156.189 87.4411 156.256 87.4411C157.481 87.4411 158.275 87.2257 158.639 86.7949C159.037 86.331 159.235 85.4031 159.235 84.0113L159.285 58.4619C159.285 57.3021 159.169 56.4571 158.937 55.9269C158.739 55.3966 158.341 55.1315 157.745 55.1315C157.249 55.1315 156.537 55.3469 155.61 55.7777C155.478 55.844 155.362 55.7777 155.262 55.5789C155.196 55.3801 155.213 55.2641 155.312 55.231L161.967 52.0497C162.033 52.0166 162.099 52 162.165 52C162.265 52 162.38 52.0497 162.513 52.1491C162.678 52.2485 162.761 52.3645 162.761 52.4971V84.0113C162.761 85.37 162.943 86.2813 163.307 86.7452C163.672 87.2092 164.466 87.4411 165.691 87.4411C165.824 87.4411 165.89 87.5406 165.89 87.7394C165.89 87.9382 165.824 88.0376 165.691 88.0376C165.095 88.0376 164.383 88.0211 163.556 87.9879C162.761 87.9548 161.9 87.9382 160.973 87.9382C160.079 87.9382 159.219 87.9548 158.391 87.9879C157.596 88.0211 156.885 88.0376 156.256 88.0376Z" fill="#3F641A"/>
<path d="M144.091 88.614C141.671 88.614 139.64 88.0849 138.001 87.0266C136.361 85.9291 135.111 84.5181 134.252 82.7935C133.432 81.0689 133.022 79.2267 133.022 77.2669C133.022 74.9151 133.569 72.7986 134.662 70.9172C135.795 68.9966 137.317 67.4875 139.23 66.3901C141.144 65.2534 143.271 64.6851 145.614 64.6851C147.879 64.6851 149.616 65.2534 150.826 66.3901C152.076 67.5267 152.7 69.1926 152.7 71.3875C152.7 71.8971 152.642 72.3086 152.525 72.6222C152.447 72.8966 152.271 73.0337 151.998 73.0337H147.957C148.113 70.682 147.8 68.8986 147.02 67.6835C146.278 66.4685 145.146 65.8609 143.623 65.8609C141.71 65.8609 140.206 66.684 139.113 68.3303C138.059 69.9765 137.532 72.191 137.532 74.9739C137.532 77.2081 137.883 79.1875 138.586 80.9121C139.289 82.5975 140.324 83.9106 141.69 84.8513C143.057 85.792 144.716 86.2623 146.668 86.2623C147.957 86.2623 149.011 86.0859 149.831 85.7332C150.69 85.3804 151.568 84.9492 152.466 84.4397C152.544 84.3613 152.642 84.4201 152.759 84.6161C152.915 84.7729 152.954 84.91 152.876 85.0276C151.471 86.3211 150.046 87.2422 148.601 87.7909C147.156 88.3397 145.653 88.614 144.091 88.614ZM136.185 73.0925L136.126 72.2106L149.245 71.9755V73.0337L136.185 73.0925Z" fill="#3F641A"/>
<path d="M107.711 87.3275L121.505 66.3966C121.661 66.1207 121.563 65.9827 121.211 65.9827C118.589 65.9827 116.418 66.1601 114.696 66.5149C112.974 66.8302 111.605 67.382 110.587 68.1704C109.57 68.9588 108.826 70.1019 108.357 71.5998C108.318 71.6786 108.181 71.6983 107.946 71.6589C107.75 71.6195 107.672 71.5406 107.711 71.4224L109.824 63.322C109.863 63.2432 110 63.2235 110.235 63.2629C110.47 63.2629 110.568 63.3023 110.528 63.3811C110.333 64.1301 110.45 64.6228 110.881 64.8593C111.35 65.0958 112.172 65.2141 113.346 65.2141C114.794 65.2141 116.574 65.2141 118.687 65.2141C120.8 65.2141 123.265 65.2141 126.083 65.2141C126.279 65.2141 126.416 65.2929 126.494 65.4506C126.611 65.6082 126.631 65.7659 126.552 65.9236L112.876 86.6771C112.72 86.9531 112.818 87.091 113.17 87.091C115.635 87.091 117.65 87.0122 119.215 86.8545C120.781 86.6968 122.033 86.4012 122.972 85.9676C123.95 85.534 124.713 84.923 125.261 84.1347C125.809 83.3069 126.259 82.2623 126.611 81.0009C126.65 80.8827 126.768 80.8236 126.963 80.8236C127.159 80.8236 127.257 80.8827 127.257 81.0009L127.139 87.3867C127.139 87.5443 127.081 87.702 126.963 87.8597C126.885 87.9779 126.768 88.0371 126.611 88.0371C124.733 88.0371 122.737 88.0371 120.624 88.0371C118.511 88.0371 116.378 88.0371 114.226 88.0371C112.113 88.0371 110.078 88.0371 108.122 88.0371C107.965 88.0371 107.828 87.9582 107.711 87.8005C107.633 87.6429 107.633 87.4852 107.711 87.3275Z" fill="#3F641A"/>
<path d="M36.4958 88.0376C36.4296 88.0376 36.3965 87.9382 36.3965 87.7394C36.3965 87.5406 36.4296 87.4411 36.4958 87.4411C37.7208 87.4411 38.5154 87.2257 38.8796 86.7949C39.2768 86.331 39.4755 85.4031 39.4755 84.0113L39.5251 58.4619C39.5251 57.3021 39.4093 56.4571 39.1775 55.9269C38.9789 55.3966 38.5816 55.1315 37.9857 55.1315C37.4891 55.1315 36.7772 55.3469 35.8502 55.7777C35.7178 55.844 35.6019 55.7777 35.5026 55.5789C35.4364 55.3801 35.453 55.2641 35.5523 55.231L42.2068 52.0497C42.273 52.0166 42.3393 52 42.4055 52C42.5048 52 42.6207 52.0497 42.7531 52.1491C42.9186 52.2485 43.0014 52.3645 43.0014 52.4971V84.0113C43.0014 85.37 43.1835 86.2813 43.5477 86.7452C43.9118 87.2092 44.7064 87.4411 45.9314 87.4411C46.0638 87.4411 46.13 87.5406 46.13 87.7394C46.13 87.9382 46.0638 88.0376 45.9314 88.0376C45.3355 88.0376 44.6237 88.0211 43.796 87.9879C43.0014 87.9548 42.1406 87.9382 41.2136 87.9382C40.3197 87.9382 39.4589 87.9548 38.6313 87.9879C37.8367 88.0211 37.1249 88.0376 36.4958 88.0376Z" fill="#3F641A"/>
<path d="M18.1004 88.6139C15.2416 88.6139 12.6819 88.1987 10.4214 87.3682C8.19422 86.5045 6.29941 85.3252 4.73702 83.8303C3.20788 82.3354 2.02778 80.6079 1.19672 78.648C0.398907 76.688 0 74.6118 0 72.4192C0 69.9278 0.465392 67.702 1.39617 65.7421C2.3602 63.7821 3.70651 62.1045 5.43511 60.7092C7.16371 59.2808 9.17486 58.2011 11.4686 57.4703C13.7623 56.7062 16.2555 56.3242 18.9481 56.3242C20.6767 56.3242 22.3056 56.4737 23.8347 56.7727C25.3971 57.0717 26.6935 57.5035 27.724 58.0683C28.0232 58.2011 28.1894 58.3174 28.2227 58.4171C28.2559 58.5167 28.2892 58.7825 28.3224 59.2143L28.9706 65.3932C28.9706 65.4929 28.8875 65.5593 28.7213 65.5926C28.5551 65.6258 28.4387 65.576 28.3723 65.4431C28.0398 64.4133 27.5911 63.4167 27.026 62.4533C26.4608 61.4567 25.7461 60.5764 24.8818 59.8123C24.0175 59.015 22.987 58.3839 21.7903 57.9188C20.6268 57.4537 19.2639 57.2212 17.7015 57.2212C15.2416 57.2212 13.0143 57.8025 11.0198 58.9652C9.02527 60.0947 7.44627 61.7391 6.28279 63.8983C5.11931 66.0244 4.53757 68.5823 4.53757 71.5721C4.53757 73.6982 4.85337 75.7412 5.48497 77.7012C6.14982 79.6612 7.11384 81.4052 8.37705 82.9333C9.64025 84.4615 11.186 85.674 13.0143 86.5709C14.8759 87.4346 17.0034 87.8665 19.3969 87.8665C20.8928 87.8665 22.0729 87.6838 22.9372 87.3184C23.8347 86.9197 24.4829 86.2885 24.8818 85.4248C25.2807 84.5279 25.4802 83.3154 25.4802 81.7873C25.4802 80.1927 25.3805 79.03 25.181 78.2992C24.9816 77.5351 24.4995 77.0368 23.735 76.8043C22.9704 76.5717 21.7238 76.4555 19.9952 76.4555C19.7958 76.4555 19.696 76.3226 19.696 76.0568C19.696 75.7911 19.7791 75.6582 19.9454 75.6582C22.1393 75.7911 24.1173 75.8741 25.8791 75.9073C27.6742 75.9073 29.5357 75.8575 31.4638 75.7578C31.63 75.7578 31.7131 75.8741 31.7131 76.1067C31.7131 76.3392 31.63 76.4555 31.4638 76.4555C30.7657 76.4222 30.2505 76.5385 29.918 76.8043C29.5856 77.0368 29.3695 77.5683 29.2698 78.3988C29.2033 79.2293 29.1701 80.5249 29.1701 82.2855C29.1701 83.3818 29.2033 84.1957 29.2698 84.7272C29.3363 85.2587 29.3862 85.6574 29.4194 85.9231C29.4859 86.1557 29.5191 86.4048 29.5191 86.6706C29.5191 86.8699 29.4859 87.0028 29.4194 87.0692C29.3529 87.1356 29.2033 87.2021 28.9706 87.2685C27.242 87.6339 25.4137 87.9495 23.4857 88.2153C21.5908 88.4811 19.7958 88.6139 18.1004 88.6139Z" fill="#3F641A"/>
<path d="M62.8176 64.9731C65.2717 64.9732 67.3696 65.5614 69.1112 66.7379C74.0182 70.0527 76.0819 77.4221 78.5917 82.4736L82.9537 72.0461L81.9861 70.0359C81.1548 68.3103 80.4821 67.1926 79.9675 66.6827C79.4925 66.1337 78.879 65.8591 78.1269 65.8591C78.0478 65.8591 78.0082 65.7412 78.0082 65.5059C78.0083 65.2707 78.0478 65.1531 78.1269 65.1531C78.7206 65.1531 79.3539 65.1727 80.0268 65.2119C80.7393 65.2511 81.5508 65.2707 82.4613 65.2707C83.8071 65.2707 84.9748 65.2511 85.9643 65.2119C86.9935 65.1727 87.9043 65.1531 88.696 65.1531C88.8146 65.1532 88.874 65.2708 88.874 65.5059C88.874 65.7411 88.8146 65.859 88.696 65.8591C87.5876 65.8591 86.7164 66.0358 86.083 66.3887C85.4499 66.7025 85.3509 67.2908 85.7863 68.1535L92.811 82.519L97.8992 70.271C98.4929 68.7808 98.4534 67.6826 97.7805 66.9767C97.1076 66.2315 95.8209 65.8591 93.9209 65.8591C93.8022 65.8591 93.7429 65.7412 93.7429 65.5059C93.7429 65.2707 93.8022 65.1531 93.9209 65.1531C94.8313 65.1531 95.7021 65.1727 96.5334 65.2119C97.4042 65.2511 98.5126 65.2707 99.8584 65.2707C100.769 65.2707 101.501 65.2511 102.056 65.2119C102.61 65.1727 103.263 65.1531 104.015 65.1531C104.133 65.1531 104.193 65.2707 104.193 65.5059C104.193 65.7412 104.133 65.8591 104.015 65.8591C103.025 65.8591 102.154 66.212 101.402 66.9179C100.65 67.5846 99.9177 68.7611 99.2052 70.4474L91.8425 87.802C91.7633 87.9588 91.5458 88.0372 91.1897 88.0372C90.8336 88.0372 90.6157 87.9588 90.5365 87.802L83.688 73.5721L77.6517 87.802C77.612 87.9588 77.3942 88.0372 76.9985 88.0372C76.6425 88.0372 76.4249 87.9588 76.3457 87.802L68.6546 71.8671C67.1653 68.8249 64.4179 66.1495 60.7986 66.1495C58.8591 66.1495 57.355 66.8949 56.2862 68.3851C55.257 69.8362 54.7424 71.9933 54.7424 74.8562C54.7424 76.9212 55.0048 78.8357 55.5302 80.5993C55.6334 80.9458 55.7469 81.2865 55.8704 81.6213C57.1107 84.9199 59.8235 87.0336 63.6765 87.0337C65.7382 86.8941 65.532 87.4934 62.7488 87.8765C61.3513 88.0089 59.9991 87.9318 58.7306 87.6652C53.7036 86.6083 49.9922 82.5735 49.9922 76.7974C49.9922 74.7581 50.3681 72.9933 51.1202 71.5031C51.9118 70.0128 52.9412 68.7972 54.2078 67.8559C55.4745 66.8755 56.86 66.1498 58.3642 65.6791C59.8684 65.2085 61.353 64.9731 62.8176 64.9731Z" fill="#3F641A"/>
</svg>
