<svg width="21" height="20" viewBox="0 0 21 20" fill="none" xmlns="http://www.w3.org/2000/svg">
<path fill-rule="evenodd" clip-rule="evenodd" d="M11.1 9.503L14.991 13.394L14.143 14.243L9.9 10V4H11.1V9.503ZM10.5 20C4.977 20 0.5 15.523 0.5 10C0.5 4.477 4.977 0 10.5 0C16.023 0 20.5 4.477 20.5 10C20.5 15.523 16.023 20 10.5 20ZM10.5 18.8C12.8339 18.8 15.0722 17.8729 16.7225 16.2225C18.3729 14.5722 19.3 12.3339 19.3 10C19.3 7.66609 18.3729 5.42778 16.7225 3.77746C15.0722 2.12714 12.8339 1.2 10.5 1.2C8.16609 1.2 5.92778 2.12714 4.27746 3.77746C2.62714 5.42778 1.7 7.66609 1.7 10C1.7 12.3339 2.62714 14.5722 4.27746 16.2225C5.92778 17.8729 8.16609 18.8 10.5 18.8Z" fill="black"/>
</svg>
