<svg width="11" height="11" viewBox="0 0 11 11" fill="none" xmlns="http://www.w3.org/2000/svg">
<path d="M0 5.50977C0 4.51332 0.249112 3.59014 0.742451 2.74512C1.23579 1.90009 1.90497 1.23091 2.75 0.737567C3.59503 0.244227 4.51332 0 5.50488 0C6.24734 0 6.96048 0.146536 7.63943 0.434725C8.31838 0.722913 8.89964 1.11856 9.39298 1.60702C9.88632 2.09547 10.2771 2.68162 10.5653 3.36545C10.8535 4.04929 11 4.75755 11 5.50977C11 6.25222 10.8535 6.96536 10.5653 7.64432C10.2771 8.32327 9.88144 8.90941 9.39298 9.39787C8.90453 9.88632 8.31838 10.2771 7.63943 10.5653C6.96048 10.8535 6.25222 11 5.50488 11C4.75755 11 4.03952 10.8535 3.36057 10.5653C2.68162 10.2771 2.09547 9.88144 1.60213 9.39298C1.10879 8.90453 0.722913 8.31838 0.42984 7.64432C0.136767 6.97025 0 6.25711 0 5.50977ZM1.21137 5.50977C1.21137 6.66741 1.63144 7.67362 2.47647 8.52842C3.32149 9.37345 4.32771 9.79352 5.50488 9.79352C6.27664 9.79352 6.99467 9.60302 7.6492 9.21714C8.30373 8.83126 8.83126 8.3135 9.21714 7.65409C9.60302 6.99467 9.7984 6.28153 9.7984 5.50977C9.7984 4.73801 9.60302 4.01998 9.21714 3.36057C8.83126 2.70115 8.30861 2.17851 7.6492 1.79263C6.98979 1.40675 6.27664 1.21625 5.50488 1.21625C4.73313 1.21625 4.0151 1.40675 3.36057 1.79263C2.70604 2.17851 2.17851 2.70115 1.78774 3.36057C1.39698 4.01998 1.21137 4.73801 1.21137 5.50977ZM5.07993 5.50977V2.25666C5.07993 2.14432 5.11901 2.04663 5.19716 1.96847C5.27531 1.89032 5.373 1.85124 5.48535 1.85124C5.59769 1.85124 5.69538 1.89032 5.77353 1.96847C5.85169 2.04663 5.89076 2.14432 5.89076 2.25666V5.09947H7.73712C7.84947 5.09947 7.94716 5.13854 8.02531 5.2167C8.10346 5.29485 8.14254 5.39254 8.14254 5.50489C8.14254 5.61235 8.10346 5.71004 8.02531 5.79307C7.94716 5.87611 7.84947 5.91519 7.73712 5.91519H5.56838C5.55373 5.92007 5.52442 5.92007 5.48046 5.92007C5.42676 5.92105 5.37343 5.91103 5.32374 5.89064C5.27406 5.87024 5.22907 5.83989 5.19155 5.80145C5.15403 5.76302 5.12478 5.71732 5.10558 5.66715C5.08638 5.61699 5.07765 5.56343 5.07993 5.50977Z" fill="white"/>
</svg>
