<svg width="27" height="27" viewBox="0 0 27 27" fill="none" xmlns="http://www.w3.org/2000/svg">
<path d="M13.5 27C19.2375 27 24.1875 23.4 26.1 18.3375V18.2812C26.6625 16.8188 27 15.1875 27 13.5C27 6.075 20.925 0 13.5 0C6.075 0 0 6.075 0 13.5C0 20.925 6.075 27 13.5 27ZM23.9625 20.0813C22.95 19.0688 20.925 17.7188 18.6187 18.6187C18.225 18.7875 17.775 19.0125 17.2688 19.2375C15.4688 20.1375 13.3875 21.2063 10.9688 19.6313C7.48125 17.3813 3.20625 19.35 2.75625 19.575C2.475 19.0125 2.19375 18.45 1.96875 17.8875C3.2625 16.65 6.69375 14.9062 9.675 14.2875C10.35 14.1187 10.9688 13.725 11.3625 13.05C11.8125 12.2625 12.6 11.8125 13.5 11.8125C13.5 11.8125 13.5 11.8125 13.5563 11.8125C14.4563 11.8125 15.3 12.3187 15.75 13.1062C16.0875 13.725 16.7063 14.1187 17.3813 14.2875C20.4188 14.9625 23.6812 16.9312 25.0312 18.225C24.6938 18.8438 24.3562 19.5188 23.9625 20.0813ZM3.31875 20.5312C4.05 20.1938 7.59375 18.7875 10.2937 20.5875C12.8812 22.275 15.1313 21.5438 17.7188 20.25C18.1688 20.025 18.5625 19.8 18.9563 19.6875C21.2063 18.8438 22.95 20.6438 23.2875 21.0375C18.1688 27.675 8.1 27.3937 3.31875 20.5312ZM13.5 1.125C20.3062 1.125 25.875 6.69375 25.875 13.5C25.875 14.7375 25.7062 15.9187 25.3687 17.0437C23.6812 15.5812 20.4187 13.8375 17.6062 13.1625C17.2125 13.05 16.875 12.825 16.7063 12.4875C16.0313 11.3625 14.9063 10.6875 13.5563 10.6312H13.5C12.2063 10.6312 11.025 11.3063 10.35 12.4313C10.125 12.825 9.7875 13.05 9.39375 13.1625C6.58125 13.7812 3.2625 15.3 1.51875 16.7063C1.29375 15.6938 1.125 14.625 1.125 13.5C1.125 6.69375 6.69375 1.125 13.5 1.125Z" fill="black"/>
</svg>
