<svg width="21" height="21" viewBox="0 0 21 21" fill="none" xmlns="http://www.w3.org/2000/svg">
<path d="M3 13.3482C4.03636 12.2428 5.43318 11.098 6.75 11.3518C8.43273 11.6763 8.79909 14.0576 9.89091 13.9989C11.44 13.9152 11.915 9.06011 13.6168 8.99647C14.2695 8.97218 14.4945 9.67521 15.2727 9.69196C16.4073 9.71625 17.365 8.25156 18 7" stroke="black" stroke-width="0.5" stroke-linecap="round" stroke-linejoin="round"/>
<path d="M10.5 20C15.7467 20 20 15.7467 20 10.5C20 5.25329 15.7467 1 10.5 1C5.25329 1 1 5.25329 1 10.5C1 15.7467 5.25329 20 10.5 20Z" stroke="black" stroke-width="0.5" stroke-linecap="round" stroke-linejoin="round"/>
</svg>
