<svg width="20" height="20" viewBox="0 0 20 20" fill="none" xmlns="http://www.w3.org/2000/svg">
<path d="M18.6758 10.1554C18.6907 10.1228 18.7065 10.0912 18.7167 10.0567C18.7688 9.87342 18.7391 9.68266 18.633 9.51981C18.1648 8.79674 17.4788 8.19281 16.6486 7.77405C16.066 7.47998 15.4387 7.28642 14.7788 7.19709C14.8458 7.00167 14.9361 6.82021 15.0459 6.66201C15.2507 6.36608 15.4405 6.26093 15.5401 6.26093C15.9338 6.26093 16.254 5.9408 16.254 5.54717C16.254 5.15355 15.9338 4.83342 15.5401 4.83342C14.9296 4.83342 14.3227 5.20472 13.8741 5.85146C13.6107 6.23019 13.4143 6.69364 13.3101 7.17288C12.6921 7.23523 12.1001 7.38878 11.5454 7.62888C11.7493 6.94118 11.9382 6.2786 12.0797 5.61604C12.2509 5.15727 12.2063 4.66871 11.9522 4.23692C11.6376 3.70277 11.0373 3.32868 10.3466 3.23377C10.262 3.2226 10.2154 3.1463 10.1 2.89225C9.90082 2.45581 9.60111 1.79602 8.3977 1.62945C8.31486 1.61828 8.24226 1.48335 8.13336 1.2628C7.88392 0.760279 7.50698 0 6.09134 0C4.6757 0 4.29876 0.75935 4.04932 1.2628C3.94042 1.48334 3.86783 1.61828 3.78498 1.62945C2.58247 1.79509 2.28185 2.45581 2.08268 2.89225C1.96727 3.14629 1.92074 3.22167 1.83603 3.23377C1.14451 3.32776 0.544169 3.70372 0.229584 4.23785C-0.0245038 4.66964 -0.0691789 5.1582 0.103005 5.61697C0.272399 6.40796 0.506939 7.19616 0.756381 8.02998C1.4079 10.215 2.1441 12.6902 1.77273 15.8207C1.63685 15.9119 1.50654 16.0041 1.38369 16.099C0.321734 16.9114 -0.153871 17.7684 0.0452966 18.5129C0.303102 19.4752 1.64895 20 3.49183 20C4.29691 20 5.19787 19.8976 6.14446 19.6901C6.14818 19.6892 6.15284 19.6892 6.15656 19.6883C6.15935 19.6873 6.16121 19.6864 6.16308 19.6855C6.37807 19.638 6.59494 19.5868 6.81366 19.5282L9.37027 18.8433L10.1186 18.6432C11.1954 19.518 12.5468 20 13.9382 20C17.2804 20 20 17.2809 20 13.9392C20.0019 12.5611 19.5311 11.2265 18.6758 10.1554ZM14.4084 13.953L13.8769 14.0953C13.8686 14.0739 13.8583 14.0535 13.849 14.0321C14.1264 13.805 14.3339 13.4998 14.4512 13.1369L14.9678 11.5344C14.9966 11.4432 15.0953 11.3939 15.1855 11.4227C15.2768 11.4516 15.327 11.5493 15.2972 11.6405L14.7807 13.2429C14.696 13.5072 14.5694 13.7455 14.4084 13.953ZM14.9063 14.3252C15.5597 14.1503 16.0335 13.7008 16.2401 13.0605L16.7576 11.4581C16.7715 11.4143 16.8022 11.3781 16.8432 11.3567C16.8842 11.3352 16.9316 11.3315 16.9754 11.3455C17.0191 11.3594 17.0554 11.3902 17.0768 11.4311C17.0982 11.472 17.1019 11.5195 17.088 11.5632L16.5714 13.1657C16.3294 13.9148 15.7561 14.4611 14.9985 14.6639L14.1134 14.9012L14.0222 14.5625L14.9063 14.3252ZM14.9687 16.0449C15.2125 16.1445 15.4406 16.2869 15.6472 16.4739L16.8963 17.6027C16.967 17.6669 16.9726 17.7767 16.9083 17.8474C16.8441 17.9182 16.7343 17.9237 16.6636 17.8595L15.4145 16.7307C15.0832 16.4311 14.6839 16.2608 14.2614 16.2348L14.9687 16.0449ZM14.2539 15.7313C14.253 15.6122 14.2455 15.494 14.2269 15.3749L15.1241 15.1348C15.8817 14.932 16.6515 15.1181 17.236 15.6466L18.485 16.7754C18.5194 16.8061 18.539 16.8489 18.5418 16.8955C18.5436 16.942 18.5278 16.9857 18.4971 17.0202C18.4329 17.0909 18.323 17.0965 18.2523 17.0323L17.0033 15.9035C16.5035 15.4521 15.8687 15.2995 15.2153 15.4745L14.2539 15.7313ZM18.8117 16.4144L17.5627 15.2856C17.1569 14.918 16.6766 14.6881 16.1675 14.6034C16.5658 14.2759 16.8665 13.8366 17.0349 13.3155L17.5515 11.7131C17.6055 11.5447 17.5906 11.366 17.5105 11.2087C17.4296 11.0514 17.2927 10.9351 17.1243 10.8811C16.7771 10.7695 16.4039 10.9612 16.2922 11.3083L15.7756 12.9107C15.6574 13.2774 15.4313 13.5528 15.1139 13.7232C15.1632 13.6171 15.2088 13.5082 15.2451 13.3937L15.7626 11.7913C15.8743 11.4442 15.6826 11.071 15.3354 10.9593C14.9882 10.8477 14.615 11.0394 14.5033 11.3865L13.9868 12.9889C13.9077 13.2337 13.7764 13.4421 13.6033 13.6031C13.0523 12.8447 12.0732 12.4604 11.1156 12.7172L8.38954 13.4477C8.48447 12.3785 8.88842 11.3502 9.55016 10.5044C9.55388 10.5063 9.55575 10.5081 9.55947 10.51C9.93548 10.6886 10.398 10.5714 10.6121 10.241C10.8299 9.90509 11.1129 9.60731 11.4489 9.35886C11.4107 9.46308 11.3744 9.5701 11.3409 9.67899C11.286 9.85859 11.3065 10.0494 11.3967 10.215C11.4917 10.3872 11.6508 10.5119 11.8453 10.5658C12.2325 10.6729 12.6402 10.4551 12.7537 10.0829C12.8729 9.6939 13.0283 9.35981 13.2098 9.09926V9.90885C13.2098 10.3025 13.53 10.6226 13.9237 10.6226C14.3174 10.6226 14.6376 10.3025 14.6376 9.90885V9.05271C14.833 9.31886 15.0005 9.66967 15.1262 10.0819C15.2397 10.4551 15.6474 10.6719 16.0355 10.5649C16.23 10.5118 16.3892 10.3871 16.4841 10.214C16.5753 10.0484 16.5949 9.85763 16.54 9.67804C16.5065 9.56916 16.4702 9.46214 16.432 9.35791C16.768 9.60638 17.0519 9.90416 17.2687 10.2401C17.4828 10.5704 17.9454 10.6877 18.3214 10.509C18.3251 10.5072 18.3279 10.5053 18.3307 10.5034C19.0948 11.4806 19.5136 12.6903 19.5136 13.9363C19.5136 14.8594 19.2866 15.7304 18.8873 16.4982C18.8649 16.4684 18.8396 16.4395 18.8117 16.4144ZM13.5327 7.64283C13.6453 7.63445 13.7374 7.5507 13.756 7.43903C13.8342 6.96443 14.0185 6.49915 14.2745 6.12971C14.6309 5.61604 15.0916 5.32104 15.5402 5.32104C15.665 5.32104 15.7664 5.42248 15.7664 5.54717C15.7664 5.67187 15.665 5.77331 15.5402 5.77331C15.2359 5.77331 14.9176 5.99013 14.6449 6.38376C14.4504 6.66387 14.307 6.9998 14.2288 7.35528C14.214 7.42414 14.2288 7.49579 14.2707 7.55163C14.3126 7.6084 14.3759 7.64376 14.4457 7.65027C15.1503 7.71262 15.8176 7.9006 16.4291 8.20956C17.1811 8.58924 17.8019 9.13455 18.2235 9.78503C18.2524 9.82876 18.2598 9.87715 18.2468 9.92368C18.23 9.98324 18.1807 10.0354 18.1109 10.0689C17.9601 10.1414 17.7572 10.0968 17.6781 9.97486C17.2826 9.36348 16.6981 8.86375 15.9889 8.52875C15.893 8.48315 15.7785 8.50549 15.7059 8.58366C15.6333 8.66182 15.6203 8.77722 15.6724 8.86934C15.8316 9.15223 15.9665 9.47234 16.0736 9.82039C16.0894 9.87344 16.0838 9.92927 16.0568 9.97859C16.0261 10.0344 15.9721 10.0754 15.906 10.094C15.7711 10.1312 15.6305 10.0614 15.5933 9.93858C15.4146 9.35511 15.1568 8.8712 14.8459 8.53899C14.7435 8.43011 14.6365 8.33799 14.5267 8.26727C14.4513 8.21888 14.3554 8.21422 14.2773 8.25703C14.1981 8.29984 14.1497 8.38173 14.1497 8.47106V9.90693C14.1497 10.0316 14.0483 10.1331 13.9236 10.1331C13.7989 10.1331 13.6974 10.0316 13.6974 9.90693V8.49432C13.6974 8.40312 13.6471 8.3203 13.5662 8.27842C13.5308 8.25981 13.4917 8.2505 13.4536 8.2505C13.4042 8.2505 13.3558 8.26539 13.3139 8.29424C13.219 8.36124 13.125 8.44313 13.0347 8.5399C12.7239 8.87211 12.466 9.35602 12.2873 9.93949C12.2501 10.0623 12.1096 10.1312 11.9746 10.0949C11.9085 10.0763 11.8546 10.0353 11.8238 9.9795C11.7969 9.93018 11.7903 9.87434 11.8071 9.8213C11.9132 9.47328 12.0481 9.15314 12.2082 8.87025C12.2604 8.77812 12.2464 8.6618 12.1747 8.58457C12.1021 8.5064 11.9886 8.485 11.8918 8.52966C11.1826 8.86373 10.5981 9.36439 10.2025 9.97577C10.1234 10.0986 9.92051 10.1414 9.76973 10.0698C9.69993 10.0363 9.6506 9.98415 9.63385 9.92459C9.62082 9.87806 9.62826 9.82967 9.65712 9.78594C10.0787 9.13546 10.6995 8.59015 11.4516 8.21047C12.0919 7.88569 12.7927 7.69493 13.5327 7.64283ZM1.22472 7.88944C0.977138 7.05843 0.742612 6.27397 0.577874 5.49597C0.575082 5.48294 0.571359 5.47084 0.566705 5.45874C0.441057 5.13676 0.47177 4.79059 0.652334 4.48537C0.89153 4.07872 1.3597 3.79208 1.90417 3.71764C2.26807 3.66832 2.40677 3.36308 2.52869 3.09508C2.71018 2.69586 2.9168 2.24268 3.85312 2.11332C4.19749 2.06586 4.34548 1.76808 4.48789 1.48054C4.71871 1.01619 4.98024 0.488535 6.09247 0.488535C7.20564 0.488535 7.46623 1.01523 7.69706 1.48054C7.83946 1.76808 7.98746 2.06586 8.33183 2.11332C9.26815 2.24267 9.47477 2.69493 9.65626 3.09508C9.77819 3.36401 9.91688 3.6683 10.2817 3.71764C10.8262 3.79208 11.2934 4.07869 11.5326 4.48537C11.7132 4.79154 11.7439 5.13678 11.6182 5.45967C11.6136 5.47177 11.6099 5.4848 11.6071 5.4969C11.4414 6.27485 11.2078 7.06026 10.9593 7.89132L10.9481 7.92948C10.2454 8.33706 9.66092 8.88239 9.24766 9.52076C9.14249 9.68361 9.11271 9.87439 9.1639 10.0577C9.17321 10.0921 9.18903 10.1238 9.20392 10.1563C8.42491 11.1316 7.96326 12.3357 7.88973 13.5818L6.33542 13.9978V12.5135C7.01486 10.6021 8.04239 9.24908 9.39096 8.49152C9.50823 8.42545 9.55012 8.27655 9.48403 8.15931C9.41795 8.04205 9.26904 8.00018 9.15177 8.06625C7.97811 8.72509 7.03529 9.79154 6.33545 11.2433V9.80457C6.7757 7.66424 7.73527 6.24784 9.18727 5.59557C9.31013 5.54067 9.36504 5.39643 9.31013 5.27358C9.25521 5.15075 9.11095 5.09584 8.98808 5.15075C7.79489 5.68676 6.90789 6.67316 6.33545 8.09047V4.05728C6.33545 3.92235 6.22656 3.81348 6.09161 3.81348C5.95667 3.81348 5.84777 3.92236 5.84777 4.05728V8.09047C5.27631 6.67321 4.38838 5.68676 3.19514 5.15075C3.07229 5.09584 2.92802 5.15075 2.8731 5.27358C2.81819 5.39642 2.8731 5.54066 2.99595 5.59557C4.44884 6.24791 5.40746 7.66424 5.84873 9.80457V11.2433C5.14882 9.79154 4.20599 8.72519 3.03241 8.06625C2.91514 8.00018 2.76622 8.04206 2.70015 8.15931C2.63406 8.27656 2.67595 8.42546 2.79322 8.49152C4.1409 9.24901 5.16846 10.6021 5.84876 12.5135V14.128L5.40108 14.2481C4.24884 14.557 3.18221 14.9879 2.29884 15.4951C2.58178 12.4465 1.86321 10.0316 1.22472 7.88944ZM6.68819 19.0554C6.54672 19.0935 6.40711 19.128 6.26843 19.1606L5.95199 17.9797C5.91662 17.8494 5.7826 17.7721 5.65323 17.8075C5.52292 17.8429 5.44568 17.9759 5.48104 18.1062L5.79191 19.2666C2.89744 19.852 0.771619 19.3364 0.516434 18.3854C0.374032 17.8531 0.797518 17.1608 1.67985 16.4851C2.08378 16.1762 2.56217 15.8859 3.09456 15.6225L3.34957 16.5754C3.37843 16.6843 3.47709 16.7559 3.58505 16.7559C3.60553 16.7559 3.62693 16.7532 3.64834 16.7476C3.77864 16.7122 3.85589 16.5791 3.82053 16.4489L3.54316 15.4122C4.15372 15.1423 4.82199 14.9069 5.52469 14.7189L6.24135 14.5272L6.55965 15.7146C6.5885 15.8235 6.68716 15.8951 6.79512 15.8951C6.8156 15.8951 6.837 15.8924 6.85841 15.8868C6.98871 15.8514 7.06596 15.7183 7.0306 15.5881L6.7123 14.4006L9.45142 13.6664L9.76972 14.8538C9.79857 14.9627 9.89723 15.0344 10.0052 15.0344C10.0257 15.0344 10.0471 15.0316 10.0685 15.026C10.1988 14.9906 10.276 14.8576 10.2407 14.7273L9.92237 13.5399L11.2393 13.1872C12.2213 12.9238 13.233 13.5082 13.4954 14.49L13.7039 15.2679C13.8305 15.7407 13.7644 16.2367 13.5178 16.6647C13.2711 17.0919 12.8747 17.3971 12.4009 17.5246L9.48118 18.3072L9.16288 17.1198C9.12844 16.9895 8.99348 16.9123 8.86411 16.9476C8.73381 16.983 8.65656 17.1161 8.69193 17.2464L9.01023 18.4338L6.68819 19.0554ZM13.9406 19.5095C12.7818 19.5095 11.6528 19.1475 10.7147 18.4812L12.5296 17.9955C13.129 17.8354 13.6307 17.4492 13.9425 16.9085C13.9769 16.848 14.0085 16.7866 14.0374 16.7243C14.4246 16.6936 14.7848 16.8183 15.0872 17.0919L16.3363 18.2207C16.4629 18.3351 16.6211 18.3919 16.7802 18.391C16.9608 18.391 17.1404 18.3184 17.2707 18.1741C17.5155 17.9043 17.4951 17.4855 17.2242 17.2398L15.9752 16.111C15.8858 16.0301 15.7918 15.9584 15.6969 15.8914C16.0571 15.8802 16.3903 16.0059 16.676 16.2636L17.925 17.3924C18.0032 17.4632 18.0954 17.5097 18.1903 17.5367C17.1665 18.7427 15.642 19.5095 13.9406 19.5095Z" fill="black"/>
</svg>
